<?xml version="1.0" encoding="UTF-8" standalone="no"?><!-- Generator: Gravit.io --><svg id="clients" xmlns="http://www.w3.org/2000/svg" xmlns:xlink="http://www.w3.org/1999/xlink" style="isolation:isolate" viewBox="0 0 1024 768"><defs><clipPath id="_clipPath_BEBmCuKA6s7Tk87OE27UZArWttAnkigp"><rect width="1024" height="768"/></clipPath></defs><g clip-path="url(#_clipPath_BEBmCuKA6s7Tk87OE27UZArWttAnkigp)"><g><clipPath id="_clipPath_pdvdSozaqokDC6yWKqeBZnxKnR0L4oEJ"><path d=" M 34.5 29.372 L 34.5 726 L 1003 726 L 1003 29.372 L 34.5 29.372 Z " fill="rgb(255,255,255)"/></clipPath><g clip-path="url(#_clipPath_pdvdSozaqokDC6yWKqeBZnxKnR0L4oEJ)"><path d=" M 662.975 291.309 L 662.975 363.852 C 662.975 376.468 673.615 387.108 686.739 387.108 L 946.851 387.108 C 959.978 387.108 970.616 376.468 970.616 363.342 L 970.616 302.049 L 1003 268.025 L 686.813 267.036 C 673.659 266.995 662.975 277.648 662.975 291.309 Z " fill="rgb(239,238,237)"/><path d=" M 932.274 310.986 L 696.239 309.896 L 696.263 302.641 L 932.299 303.732 L 932.274 310.986 Z " fill="rgb(216,217,217)"/><path d=" M 932.274 334.854 L 696.239 333.763 L 696.263 326.509 L 932.299 327.599 L 932.274 334.854 Z " fill="rgb(216,217,217)"/><path d=" M 932.274 358.118 L 838.881 357.657 L 838.911 350.403 L 932.302 350.863 L 932.274 358.118 Z " fill="rgb(216,217,217)"/><path d=" M 219.667 661.061 C 256.038 635.649 264.291 588.481 262.852 546.084 C 262.611 539.006 263.39 531.546 260.024 525.336 C 256.655 519.126 248.8 514.882 242.463 517.866 C 237.207 520.338 234.918 526.453 231.976 531.509 C 228.064 538.236 222.236 543.803 215.378 547.362 C 210.872 549.7 205.296 551.13 200.848 548.677 C 194.742 545.308 194.023 536.875 194.066 529.835 C 194.149 516.714 194.23 503.595 194.312 490.478 C 194.356 483.44 194.377 476.253 192.188 469.571 C 189.999 462.892 185.161 456.686 178.466 454.81 C 171.767 452.935 163.489 456.796 162.074 463.685 C 161.485 466.551 162.069 469.528 161.874 472.448 C 161.679 475.373 160.317 478.604 157.542 479.418 C 154.732 480.242 151.916 478.249 149.812 476.189 C 142.547 469.081 137.616 459.925 133.009 450.821 C 128.401 441.716 123.929 432.394 117.337 424.642 C 110.745 416.889 101.626 410.747 91.546 410.176 C 81.463 409.605 70.724 415.827 68.176 425.723 C 65.622 435.648 71.412 445.715 77.711 453.748 C 87.058 465.666 98.115 476.206 110.425 484.932 C 112.644 486.507 115.05 488.208 115.898 490.815 C 117.427 495.51 112.981 500.17 108.347 501.712 C 103.1 503.46 97.407 502.916 91.919 503.561 C 86.43 504.207 80.484 506.628 78.408 511.815 C 75.525 519.011 81.542 526.551 87.463 531.49 C 99.318 541.381 112.856 549.193 127.297 554.485 C 132.476 556.38 137.925 558.042 142.1 561.679 C 146.276 565.319 148.796 571.645 146.274 576.603 C 143.749 581.566 137.274 583.153 131.85 582.146 C 126.428 581.14 121.573 578.195 116.404 576.246 C 106.73 572.594 94.239 573.26 88.042 581.62 C 83.97 587.116 83.611 594.769 85.671 601.319 C 87.729 607.87 91.907 613.512 96.342 618.715 C 111.846 636.906 131.694 651.548 154.135 659.331 C 176.573 667.11 197.366 669.216 219.667 661.061 Z " fill="rgb(255,193,51)"/><path d=" M 220.223 692.494 C 218.686 675.699 215.003 655.861 208.722 634.481 C 202.481 613.084 193.696 590.197 183.685 566.575 C 181.16 560.679 178.666 554.854 176.208 549.113 C 173.74 543.386 171.294 537.708 168.559 532.302 C 163.132 521.463 157.089 511.457 151.056 502.138 C 145.025 492.812 138.962 484.182 133.234 476.156 C 127.486 468.137 121.989 460.765 116.691 454.259 C 106.133 441.201 96.388 431.7 89.433 425.448 C 85.961 422.31 83.189 419.966 81.287 418.401 C 80.372 417.658 79.654 417.074 79.114 416.633 C 78.62 416.243 78.36 416.052 78.346 416.069 C 78.33 416.085 78.562 416.312 79.029 416.738 C 79.548 417.2 80.241 417.817 81.119 418.602 C 82.963 420.23 85.681 422.635 89.097 425.825 C 95.938 432.185 105.547 441.754 115.983 454.845 C 121.221 461.369 126.663 468.755 132.363 476.791 C 138.049 484.84 144.07 493.478 150.06 502.797 C 156.05 512.113 162.047 522.095 167.427 532.881 C 170.14 538.262 172.559 543.893 175.029 549.634 C 177.484 555.372 179.974 561.195 182.496 567.09 C 192.498 590.694 201.295 613.512 207.581 634.826 C 213.904 656.121 217.666 675.86 219.313 692.585" fill="rgb(216,217,217)"/><path d=" M 168.188 532.251 C 168.275 532.264 168.514 531.195 168.876 529.247 C 169.245 527.303 169.687 524.472 170.182 520.966 C 171.177 513.959 172.221 504.232 173.331 493.506 C 174.442 482.774 175.621 473.091 176.72 466.118 C 177.261 462.628 177.725 459.81 178.072 457.865 C 178.409 455.916 178.553 454.83 178.466 454.81 C 178.378 454.791 178.068 455.839 177.58 457.758 C 177.082 459.676 176.477 462.479 175.821 465.959 C 174.486 472.917 173.157 482.624 172.046 493.366 C 170.977 503.955 170.012 513.533 169.273 520.851 C 168.919 524.156 168.618 526.94 168.376 529.175 C 168.172 531.141 168.098 532.238 168.188 532.251 Z " fill="rgb(216,217,217)"/><path d=" M 77.689 515.337 C 77.687 515.428 78.973 515.577 81.299 515.77 C 83.621 515.977 86.982 516.257 91.123 516.739 C 99.412 517.632 110.819 519.269 123.324 521.626 C 135.83 524.006 147.055 526.642 155.119 528.78 C 159.161 529.823 162.407 530.754 164.656 531.384 C 166.902 532.024 168.158 532.335 168.188 532.251 C 168.216 532.164 167.011 531.689 164.806 530.896 C 162.599 530.118 159.382 529.047 155.361 527.887 C 147.335 525.512 136.104 522.725 123.561 520.336 C 111.019 517.974 99.547 516.476 91.211 515.816 C 87.044 515.452 83.662 515.311 81.323 515.263 C 78.985 515.225 77.693 515.247 77.689 515.337 Z " fill="rgb(216,217,217)"/><path d=" M 207.609 632.816 C 207.65 632.834 207.862 632.456 208.23 631.714 C 208.648 630.827 209.158 629.747 209.777 628.439 C 211.109 625.59 212.927 621.418 215.107 616.231 C 219.473 605.866 225.054 591.354 230.994 575.259 C 236.941 559.157 242.379 544.614 246.522 534.171 C 248.553 529.095 250.225 524.919 251.466 521.815 C 251.996 520.468 252.434 519.358 252.792 518.445 C 253.082 517.668 253.215 517.254 253.174 517.232 C 253.133 517.216 252.921 517.596 252.552 518.339 C 252.134 519.224 251.624 520.302 251.006 521.61 C 249.675 524.459 247.856 528.631 245.676 533.817 C 241.31 544.184 235.729 558.695 229.785 574.796 C 223.842 590.895 218.403 605.435 214.261 615.881 C 212.228 620.956 210.558 625.134 209.318 628.233 C 208.786 629.582 208.349 630.694 207.99 631.606 C 207.701 632.382 207.568 632.798 207.609 632.816 Z " fill="rgb(216,217,217)"/><path d=" M 87.35 594.058 C 87.338 594.101 87.75 594.27 88.543 594.55 C 89.484 594.864 90.638 595.252 92.036 595.721 C 95.262 596.766 99.616 598.179 104.914 599.894 C 115.787 603.42 130.749 608.463 147.274 614.056 C 163.803 619.656 178.826 624.565 189.776 627.866 C 195.25 629.52 199.693 630.813 202.781 631.643 C 204.208 632.017 205.385 632.324 206.342 632.578 C 207.16 632.777 207.599 632.861 207.609 632.816 C 207.62 632.773 207.209 632.606 206.416 632.323 C 205.477 632.01 204.324 631.624 202.924 631.155 C 199.698 630.109 195.345 628.699 190.047 626.981 C 179.174 623.456 164.21 618.412 147.681 612.814 C 131.156 607.22 116.135 602.311 105.185 599.009 C 99.711 597.355 95.268 596.063 92.178 595.233 C 90.75 594.857 89.576 594.548 88.617 594.296 C 87.798 594.096 87.364 594.015 87.35 594.058 Z " fill="rgb(216,217,217)"/><path d=" M 303.594 216.26 L 303.594 272.468 C 303.594 282.636 295.349 290.881 285.179 290.881 L 83.638 290.881 C 73.467 290.881 65.223 282.636 65.223 272.468 L 65.223 224.977 L 40.131 198.613 L 285.122 197.847 C 295.314 197.814 303.594 206.069 303.594 216.26 Z " fill="rgb(216,217,217)"/><path d=" M 94.932 231.9 L 277.82 231.055 L 277.8 225.434 L 94.913 226.279 L 94.932 231.9 Z " fill="rgb(246,246,245)"/><path d=" M 94.932 250.392 L 277.82 249.548 L 277.8 243.927 L 94.913 244.773 L 94.932 250.392 Z " fill="rgb(246,246,245)"/><path d=" M 94.932 268.418 L 167.295 268.063 L 167.273 262.442 L 94.909 262.797 L 94.932 268.418 Z " fill="rgb(246,246,245)"/><path d=" M 982.488 725.572 C 982.488 725.809 770.258 726 508.516 726 C 246.686 726 34.5 725.809 34.5 725.572 C 34.5 725.337 246.686 725.143 508.516 725.143 C 770.258 725.143 982.488 725.337 982.488 725.572 Z " fill="rgb(44,61,67)"/><path d=" M 814.15 319.986 L 814.15 706.574 C 814.15 717.066 805.645 725.572 795.152 725.572 L 223.832 725.572 C 213.338 725.572 204.832 717.066 204.832 706.574 L 204.832 319.985 C 204.832 309.493 213.338 300.986 223.832 300.986 L 795.15 300.986 C 805.644 300.986 814.15 309.493 814.15 319.986 Z " fill="rgb(56,79,86)"/><path d=" M 755.374 314.375 L 755.374 712.185 L 246.52 712.185 L 246.52 314.375 L 755.374 314.375 Z " fill="rgb(254,254,254)"/><path d=" M 783.531 496.987 C 792.53 496.987 799.822 504.283 799.822 513.278 C 799.822 522.278 792.53 529.57 783.531 529.57 C 774.535 529.57 767.241 522.278 767.241 513.278 C 767.241 504.283 774.535 496.987 783.531 496.987 Z " fill="rgb(67,96,105)"/><path d=" M 229.112 451.339 L 229.112 575.221 C 229.112 576.325 228.217 577.22 227.112 577.22 L 224.381 577.22 C 223.276 577.22 222.381 576.325 222.381 575.221 L 222.381 451.339 C 222.381 450.234 223.276 449.339 224.381 449.339 L 227.112 449.339 C 228.217 449.339 229.112 450.234 229.112 451.339 Z " fill="rgb(67,96,105)"/><path d=" M 397.622 524.386 C 398.089 547.086 380.066 565.867 357.368 566.336 C 334.668 566.805 315.885 548.78 315.418 526.082 C 314.949 503.383 332.972 484.602 355.672 484.134 C 378.371 483.666 397.153 501.687 397.622 524.386 Z " fill="rgb(240,99,109)"/><clipPath id="_clipPath_kKEUpTckP8EdmYWJv3H6oIoj93C3PIRZ"><path d=" M 356.504 566.346 C 334.193 566.346 315.881 548.493 315.418 526.082 C 315.412 525.793 315.41 525.507 315.41 525.219 C 315.408 502.909 333.262 484.595 355.672 484.134 C 355.96 484.128 356.251 484.125 356.539 484.125 C 378.849 484.125 397.159 501.976 397.622 524.386 C 397.626 524.676 397.63 524.962 397.63 525.25 C 397.63 547.56 379.778 565.874 357.368 566.336 C 357.078 566.343 356.79 566.346 356.504 566.346 Z " fill="rgb(255,255,255)"/></clipPath><g clip-path="url(#_clipPath_kKEUpTckP8EdmYWJv3H6oIoj93C3PIRZ)"><path d=" M 315.408 484.125 L 397.63 484.125 L 397.63 566.346 L 315.408 566.346 L 315.408 484.125 Z " fill="rgb(0,171,147)"/></g><path d=" M 342.337 514.877 C 343.895 514.748 345.307 516.467 345.494 518.716 C 345.678 520.965 344.566 522.891 343.009 523.021 C 341.449 523.148 340.036 521.43 339.852 519.182 C 339.666 516.933 340.778 515.005 342.337 514.877 Z " fill="rgb(44,61,67)"/><path d=" M 368.473 514.339 C 366.911 514.275 365.572 516.05 365.478 518.305 C 365.384 520.559 366.577 522.439 368.138 522.503 C 369.701 522.567 371.041 520.79 371.135 518.537 C 371.227 516.283 370.036 514.401 368.473 514.339 Z " fill="rgb(44,61,67)"/><path d=" M 372.956 533.376 C 372.956 533.86 365.294 534.253 355.843 534.253 C 346.389 534.253 338.727 533.86 338.727 533.376 C 338.727 532.891 346.389 532.5 355.843 532.5 C 365.294 532.5 372.956 532.891 372.956 533.376 Z " fill="rgb(44,61,67)"/><path d=" M 345.479 510.154 C 345.379 510.644 343.43 510.624 341.143 510.999 C 338.85 511.341 336.999 511.953 336.754 511.517 C 336.502 511.123 338.221 509.673 340.872 509.265 C 343.518 508.844 345.598 509.701 345.479 510.154 Z " fill="rgb(44,61,67)"/><path d=" M 375.892 512.148 C 375.582 512.539 373.807 511.61 371.523 510.927 C 369.252 510.21 367.259 509.986 367.223 509.486 C 367.161 509.022 369.401 508.431 372.038 509.249 C 374.678 510.053 376.205 511.797 375.892 512.148 Z " fill="rgb(44,61,67)"/><path d=" M 696.725 520.947 C 697.209 544.474 678.53 563.941 655.001 564.426 C 631.472 564.912 612.005 546.232 611.52 522.704 C 611.036 499.175 629.717 479.706 653.246 479.222 C 676.775 478.737 696.239 497.418 696.725 520.947 Z " fill="rgb(240,99,109)"/><path d=" M 654.106 564.436 C 630.981 564.436 612 545.933 611.52 522.704 C 611.515 522.404 611.512 522.106 611.512 521.809 C 611.51 498.685 630.017 479.701 653.246 479.222 C 653.544 479.218 653.843 479.214 654.141 479.214 C 677.266 479.214 696.245 497.716 696.725 520.947 C 696.732 521.244 696.735 521.542 696.735 521.84 C 696.735 544.966 678.231 563.948 655.001 564.426 C 654.702 564.433 654.402 564.436 654.106 564.436 Z " fill="rgb(67,96,105)"/><path d=" M 639.421 511.088 C 641.037 510.955 642.502 512.736 642.695 515.067 C 642.886 517.398 641.734 519.395 640.119 519.53 C 638.503 519.662 637.038 517.88 636.847 515.549 C 636.654 513.218 637.807 511.221 639.421 511.088 Z " fill="rgb(44,61,67)"/><path d=" M 666.513 510.532 C 664.894 510.465 663.504 512.305 663.407 514.641 C 663.312 516.979 664.547 518.927 666.166 518.992 C 667.786 519.058 669.175 517.217 669.272 514.882 C 669.369 512.546 668.133 510.596 666.513 510.532 Z " fill="rgb(44,61,67)"/><path d=" M 671.159 530.264 C 670.984 530.494 669.216 529.241 666.169 527.675 C 663.131 526.15 658.638 524.457 653.483 524.541 C 648.329 524.64 643.853 526.395 640.765 527.844 C 637.677 529.345 635.843 530.494 635.68 530.264 C 635.562 530.103 637.146 528.585 640.183 526.749 C 643.206 524.977 647.89 522.896 653.455 522.789 C 659.025 522.697 663.792 524.729 666.775 526.594 C 669.782 528.502 671.284 530.116 671.159 530.264 Z " fill="rgb(44,61,67)"/><path d=" M 642.68 506.194 C 642.825 506.375 642.545 506.906 641.839 507.528 C 641.137 508.139 639.969 508.826 638.505 509.089 C 637.038 509.353 635.666 509.081 634.809 508.68 C 633.938 508.274 633.539 507.815 633.636 507.607 C 633.861 507.142 635.863 507.81 638.199 507.362 C 640.54 506.946 642.358 505.786 642.68 506.194 Z " fill="rgb(44,61,67)"/><path d=" M 674.203 508.259 C 674.274 508.474 673.807 508.89 672.866 509.188 C 671.938 509.474 670.481 509.568 669.036 509.05 C 667.589 508.548 666.525 507.67 665.903 506.956 C 665.276 506.232 665.051 505.666 665.217 505.5 C 665.588 505.118 667.301 506.584 669.609 507.392 C 671.904 508.231 674.037 507.767 674.203 508.259 Z " fill="rgb(44,61,67)"/><path d=" M 572.467 640.099 L 582.339 635.206 L 591.966 640.563 L 590.362 629.663 L 598.432 622.163 L 587.57 620.319 L 582.931 610.327 L 577.822 620.087 L 566.884 621.411 L 574.588 629.288 L 572.467 640.099 Z " fill="rgb(216,217,217)"/><path d=" M 532.197 640.099 L 542.069 635.206 L 551.696 640.563 L 550.093 629.663 L 558.162 622.163 L 547.3 620.319 L 542.661 610.327 L 537.552 620.087 L 526.612 621.411 L 534.318 629.288 L 532.197 640.099 Z " fill="rgb(255,193,51)"/><path d=" M 491.925 640.099 L 501.797 635.206 L 511.426 640.563 L 509.822 629.663 L 517.892 622.163 L 507.03 620.319 L 502.391 610.327 L 497.28 620.087 L 486.342 621.411 L 494.046 629.288 L 491.925 640.099 Z " fill="rgb(255,193,51)"/><path d=" M 451.655 640.099 L 461.527 635.206 L 471.154 640.563 L 469.552 629.663 L 477.622 622.163 L 466.758 620.319 L 462.119 610.327 L 457.01 620.087 L 446.072 621.411 L 453.776 629.288 L 451.655 640.099 Z " fill="rgb(255,193,51)"/><path d=" M 411.385 640.099 L 421.257 635.206 L 430.884 640.563 L 429.28 629.663 L 437.352 622.163 L 426.49 620.319 L 421.849 610.327 L 416.74 620.087 L 405.801 621.411 L 413.506 629.288 L 411.385 640.099 Z " fill="rgb(255,193,51)"/><path d=" M 598.886 397.707 C 598.886 397.947 554.704 398.144 500.22 398.144 C 445.717 398.144 401.547 397.947 401.547 397.707 C 401.547 397.463 445.717 397.268 500.22 397.268 C 554.704 397.268 598.886 397.463 598.886 397.707 Z " fill="rgb(0,171,147)"/><path d=" M 550.378 385.854 C 550.378 386.096 528.555 386.292 501.644 386.292 C 474.722 386.292 452.906 386.096 452.906 385.854 C 452.906 385.611 474.722 385.415 501.644 385.415 C 528.555 385.415 550.378 385.611 550.378 385.854 Z " fill="rgb(0,171,147)"/><path d=" M 564.759 510.855 C 565.397 541.848 540.789 567.493 509.797 568.131 C 478.802 568.769 453.156 544.161 452.519 513.167 C 451.879 482.174 476.489 456.528 507.481 455.891 C 538.475 455.251 564.119 479.859 564.759 510.855 Z " fill="rgb(255,204,51)"/><path d=" M 489.274 497.867 C 491.399 497.693 493.329 500.04 493.584 503.111 C 493.835 506.181 492.317 508.811 490.19 508.987 C 488.061 509.163 486.132 506.816 485.88 503.746 C 485.627 500.674 487.147 498.043 489.274 497.867 Z " fill="rgb(44,61,67)"/><path d=" M 524.959 497.133 C 522.827 497.045 520.996 499.469 520.87 502.547 C 520.743 505.627 522.37 508.193 524.503 508.28 C 526.635 508.367 528.466 505.943 528.593 502.863 C 528.721 499.787 527.093 497.219 524.959 497.133 Z " fill="rgb(44,61,67)"/><path d=" M 531.08 515.554 C 531.167 515.64 530.712 516.221 529.807 517.201 C 528.935 518.219 527.486 519.502 525.599 520.991 C 523.637 522.358 521.228 524.002 518.175 525.059 C 515.166 526.17 511.61 526.851 507.884 526.67 C 504.151 526.532 500.712 525.52 497.764 524.339 C 494.785 523.186 492.332 521.694 490.308 520.432 C 486.334 517.772 484.225 515.704 484.344 515.554 C 484.521 515.322 486.9 517.038 490.953 519.372 C 493.013 520.471 495.457 521.809 498.344 522.83 C 501.207 523.883 504.472 524.793 507.968 524.919 C 511.457 525.086 514.768 524.5 517.636 523.536 C 520.539 522.626 522.904 521.164 524.89 519.975 C 526.803 518.659 528.345 517.55 529.345 516.699 C 530.378 515.883 530.995 515.47 531.08 515.554 Z " fill="rgb(44,61,67)"/><path d=" M 491.809 485.242 C 491.712 485.735 489.027 485.557 485.837 486.076 C 482.641 486.554 480.139 487.545 479.895 487.102 C 479.642 486.714 482.014 484.888 485.567 484.345 C 489.116 483.778 491.932 484.793 491.809 485.242 Z " fill="rgb(44,61,67)"/><path d=" M 537.001 487.864 C 536.69 488.264 534.311 486.845 531.128 485.891 C 527.96 484.896 525.194 484.735 525.161 484.23 C 525.094 483.773 528.109 483.118 531.644 484.215 C 535.183 485.289 537.312 487.522 537.001 487.864 Z " fill="rgb(44,61,67)"/><path d=" M 485.26 511.517 C 485.479 511.48 485.834 512.059 485.892 513.12 C 485.956 514.169 485.614 515.671 484.673 516.999 C 483.727 518.328 482.424 519.145 481.412 519.43 C 480.391 519.726 479.726 519.583 479.691 519.363 C 479.609 518.876 481.764 518.153 483.243 515.984 C 484.801 513.873 484.773 511.601 485.26 511.517 Z " fill="rgb(44,61,67)"/><path d=" M 535.826 516.678 C 535.867 516.9 535.407 517.239 534.53 517.315 C 533.663 517.395 532.414 517.115 531.332 516.314 C 530.253 515.513 529.621 514.396 529.45 513.546 C 529.269 512.682 529.46 512.143 529.684 512.12 C 530.174 512.08 530.73 513.74 532.378 514.906 C 533.971 516.145 535.721 516.196 535.826 516.678 Z " fill="rgb(44,61,67)"/><path d=" M 577.276 511.517 C 577.276 511.517 577.226 511.136 577.174 510.391 C 577.123 509.614 577.054 508.514 576.963 507.079 C 576.919 506.35 576.871 505.536 576.818 504.641 C 576.725 503.75 576.534 502.782 576.377 501.73 C 576.211 500.677 576.03 499.545 575.84 498.336 C 575.693 497.115 575.242 495.877 574.928 494.533 C 573.701 489.147 571.183 482.781 567.208 476.034 C 563.201 469.315 557.42 462.295 549.546 456.335 C 548.557 455.6 547.557 454.855 546.543 454.101 C 545.491 453.409 544.379 452.776 543.28 452.099 C 542.159 451.463 541.098 450.688 539.894 450.143 C 538.707 449.573 537.506 448.997 536.293 448.416 C 535.685 448.127 535.074 447.837 534.461 447.546 C 533.823 447.314 533.179 447.08 532.536 446.847 C 531.246 446.376 529.945 445.901 528.631 445.422 C 527.305 444.985 525.917 444.703 524.543 444.328 C 523.158 444.016 521.792 443.527 520.346 443.379 C 517.478 442.973 514.579 442.381 511.575 442.364 C 510.08 442.313 508.573 442.167 507.055 442.191 C 505.536 442.269 504.007 442.348 502.467 442.428 C 501.697 442.481 500.919 442.476 500.149 442.578 L 497.836 442.935 C 496.293 443.19 494.724 443.369 493.172 443.692 C 490.111 444.526 486.941 445.146 483.927 446.404 C 480.817 447.401 477.893 448.936 474.886 450.377 C 473.422 451.173 472.019 452.096 470.57 452.956 C 469.861 453.41 469.104 453.797 468.428 454.31 L 466.387 455.839 C 463.57 457.771 461.106 460.191 458.525 462.521 C 457.357 463.809 456.183 465.102 455.003 466.401 L 454.116 467.377 L 453.32 468.431 L 451.734 470.555 L 450.139 472.687 L 448.744 474.967 L 447.35 477.262 L 446.651 478.413 L 446.059 479.624 C 445.278 481.247 444.495 482.878 443.707 484.513 C 443.082 486.217 442.455 487.928 441.826 489.644 C 439.566 496.6 438.349 503.99 438.25 511.508 C 438.349 519.029 439.563 526.42 441.821 533.378 C 442.45 535.096 443.077 536.806 443.702 538.512 C 444.488 540.147 445.273 541.779 446.056 543.401 L 446.646 544.614 L 447.345 545.767 L 448.739 548.062 L 450.135 550.343 L 451.729 552.477 L 453.315 554.601 L 454.111 555.653 L 454.998 556.629 C 456.178 557.928 457.352 559.223 458.522 560.509 C 461.103 562.84 463.567 565.26 466.385 567.195 L 468.426 568.725 C 469.101 569.236 469.859 569.623 470.568 570.079 C 472.017 570.937 473.421 571.863 474.885 572.656 C 477.892 574.099 480.817 575.635 483.927 576.631 C 486.943 577.891 490.113 578.513 493.174 579.345 C 494.725 579.666 496.295 579.847 497.839 580.103 L 500.151 580.457 C 500.92 580.559 501.699 580.554 502.468 580.608 C 504.008 580.687 505.54 580.766 507.058 580.845 C 508.575 580.868 510.083 580.723 511.579 580.671 C 514.584 580.654 517.481 580.062 520.35 579.656 C 521.797 579.508 523.161 579.019 524.548 578.705 C 525.92 578.332 527.31 578.05 528.636 577.611 C 529.95 577.132 531.251 576.659 532.541 576.188 C 533.184 575.953 533.826 575.719 534.466 575.487 C 535.079 575.196 535.69 574.907 536.297 574.619 C 537.511 574.036 538.711 573.461 539.899 572.892 C 541.102 572.345 542.164 571.571 543.285 570.932 C 544.383 570.256 545.494 569.623 546.547 568.934 C 547.56 568.179 548.56 567.432 549.55 566.696 C 557.424 560.736 563.203 553.717 567.21 546.999 C 571.184 540.251 573.703 533.886 574.928 528.499 C 575.242 527.155 575.695 525.918 575.84 524.699 C 576.03 523.49 576.211 522.358 576.377 521.304 C 576.534 520.253 576.725 519.285 576.818 518.394 C 576.871 517.499 576.919 516.686 576.963 515.956 C 577.054 514.521 577.123 513.421 577.174 512.648 C 577.226 511.901 577.276 511.517 577.276 511.517 C 577.276 511.517 577.286 511.901 577.262 512.648 C 577.235 513.424 577.192 514.528 577.139 515.966 C 577.11 516.701 577.073 517.517 577.037 518.415 C 576.957 519.31 576.779 520.282 576.636 521.342 C 576.481 522.399 576.313 523.539 576.136 524.755 C 576.004 525.982 575.562 527.229 575.261 528.583 C 574.079 534.008 571.594 540.429 567.631 547.249 C 563.637 554.04 557.846 561.144 549.926 567.19 C 548.93 567.937 547.924 568.692 546.905 569.457 C 545.846 570.159 544.726 570.802 543.62 571.488 C 542.492 572.136 541.421 572.921 540.21 573.477 C 539.011 574.056 537.802 574.642 536.578 575.234 C 535.966 575.527 535.349 575.821 534.731 576.117 C 534.086 576.354 533.439 576.593 532.789 576.831 C 531.488 577.31 530.174 577.792 528.85 578.281 C 527.511 578.728 526.111 579.018 524.724 579.399 C 523.322 579.72 521.944 580.217 520.483 580.371 C 517.586 580.791 514.658 581.395 511.621 581.419 C 510.111 581.477 508.586 581.625 507.053 581.607 C 505.517 581.531 503.97 581.454 502.411 581.377 C 501.634 581.326 500.848 581.33 500.07 581.23 L 497.729 580.875 C 496.168 580.62 494.581 580.44 493.011 580.118 C 489.912 579.284 486.704 578.659 483.653 577.391 C 480.502 576.387 477.54 574.839 474.496 573.383 C 473.014 572.581 471.591 571.65 470.124 570.781 C 469.405 570.32 468.639 569.93 467.954 569.412 L 465.887 567.868 C 463.032 565.913 460.534 563.469 457.92 561.112 C 456.737 559.81 455.546 558.501 454.35 557.187 L 453.452 556.198 L 452.646 555.134 L 451.037 552.983 L 449.422 550.825 L 448.007 548.517 L 446.594 546.193 L 445.886 545.028 L 445.286 543.801 C 444.493 542.158 443.698 540.508 442.901 538.851 C 442.267 537.125 441.632 535.393 440.994 533.653 C 438.703 526.607 437.472 519.121 437.373 511.508 C 437.472 503.894 438.706 496.413 440.999 489.369 C 441.637 487.632 442.272 485.898 442.906 484.172 C 443.703 482.517 444.498 480.867 445.291 479.224 L 445.891 477.999 L 446.6 476.832 L 448.012 474.509 L 449.426 472.203 L 451.042 470.045 L 452.649 467.898 L 453.457 466.831 L 454.353 465.845 C 455.551 464.531 456.74 463.223 457.925 461.92 C 460.537 459.563 463.036 457.12 465.89 455.166 L 467.958 453.623 C 468.642 453.105 469.407 452.713 470.126 452.254 C 471.593 451.385 473.016 450.453 474.498 449.652 C 477.541 448.196 480.504 446.649 483.653 445.644 C 486.704 444.379 489.912 443.753 493.01 442.919 C 494.579 442.596 496.166 442.415 497.727 442.16 L 500.067 441.807 C 500.845 441.706 501.633 441.713 502.409 441.658 C 503.969 441.581 505.513 441.507 507.05 441.431 C 508.583 441.41 510.108 441.56 511.618 441.616 C 514.655 441.642 517.583 442.244 520.48 442.665 C 521.939 442.818 523.317 443.313 524.719 443.637 C 526.106 444.017 527.506 444.309 528.845 444.753 C 530.169 445.241 531.483 445.723 532.784 446.202 C 533.434 446.442 534.081 446.679 534.726 446.918 C 535.346 447.212 535.961 447.507 536.573 447.799 C 537.797 448.392 539.006 448.977 540.205 449.556 C 541.416 450.111 542.487 450.897 543.615 451.543 C 544.722 452.231 545.841 452.874 546.9 453.577 C 547.919 454.34 548.927 455.095 549.921 455.842 C 557.841 461.886 563.634 468.994 567.629 475.784 C 571.592 482.601 574.078 489.023 575.261 494.45 C 575.562 495.804 576.002 497.051 576.136 498.278 C 576.313 499.496 576.481 500.634 576.634 501.693 C 576.779 502.751 576.957 503.723 577.037 504.622 C 577.073 505.52 577.11 506.336 577.139 507.068 C 577.192 508.505 577.235 509.611 577.262 510.389 C 577.286 511.136 577.276 511.517 577.276 511.517 Z " fill="rgb(56,79,86)"/><path d=" M 755.374 339.763 L 246.52 339.763 L 246.52 314.375 L 755.374 314.375 L 755.374 339.763 Z " fill="rgb(216,217,217)"/><path d=" M 262.939 326.367 C 262.939 328.267 261.401 329.805 259.501 329.805 C 257.602 329.805 256.064 328.267 256.064 326.367 C 256.064 324.471 257.602 322.931 259.501 322.931 C 261.401 322.931 262.939 324.471 262.939 326.367 Z " fill="rgb(254,254,254)"/><path d=" M 274.36 326.367 C 274.36 328.267 272.82 329.805 270.922 329.805 C 269.024 329.805 267.486 328.267 267.486 326.367 C 267.486 324.471 269.024 322.931 270.922 322.931 C 272.82 322.931 274.36 324.471 274.36 326.367 Z " fill="rgb(254,254,254)"/><path d=" M 285.782 326.367 C 285.782 328.267 284.243 329.805 282.345 329.805 C 280.445 329.805 278.907 328.267 278.907 326.367 C 278.907 324.471 280.445 322.931 282.345 322.931 C 284.243 322.931 285.782 324.471 285.782 326.367 Z " fill="rgb(254,254,254)"/><path d=" M 699.31 417.725 C 699.31 417.967 611.017 418.163 502.126 418.163 C 393.2 418.163 304.926 417.967 304.926 417.725 C 304.926 417.483 393.2 417.286 502.126 417.286 C 611.017 417.286 699.31 417.483 699.31 417.725 Z " fill="rgb(216,217,217)"/><path d=" M 699.31 427.5 C 699.31 427.742 611.017 427.939 502.126 427.939 C 393.2 427.939 304.926 427.742 304.926 427.5 C 304.926 427.258 393.2 427.062 502.126 427.062 C 611.017 427.062 699.31 427.258 699.31 427.5 Z " fill="rgb(216,217,217)"/><path d=" M 440.487 303.669 C 440.487 303.669 437.008 295.795 436.36 294.061 C 434.592 289.336 423.206 257.704 425.937 252.916 C 438.561 230.767 448.341 215.021 473.24 215.021 L 517.204 214.726 C 517.204 214.726 558.868 206.243 588.225 300.986 L 440.487 303.669 Z " fill="rgb(0,171,147)"/><path d=" M 347.733 311.605 L 405.3 299.197 L 472.983 263.595 L 473.24 215.021 C 463.083 212.218 443.654 219.263 408.668 237.086 L 356.697 263.916 C 338.898 273.103 334.486 296.581 347.733 311.605 Z " fill="rgb(0,171,147)"/><path d=" M 477.3 405.631 C 476.467 402.899 477.033 401.143 481.016 402.479 C 489.8 405.427 497.644 404.466 499.563 402.764 C 501.483 401.058 499.72 397.796 496.866 398.074 C 494.558 398.301 490.58 397.509 487.614 396.794 C 485.168 396.207 482.829 395.233 480.715 393.877 C 478.884 392.708 477.3 391.615 475.896 390.61 C 475.896 390.61 467.798 384.761 465.258 380.051 L 437.477 391.969 L 441.951 405.886 C 441.951 405.886 443.407 414.078 451.349 416.666 C 459.29 419.252 471.92 418.279 471.92 418.279 C 474.237 416.763 483.176 429.694 485.878 434.258 C 488.548 438.77 491.812 439.388 492.858 436.598 C 493.572 434.697 485.632 420.53 482.853 416.077 C 481.333 413.64 478.301 408.926 477.3 405.631 Z " fill="rgb(199,120,95)"/><path d=" M 458.479 418.317 C 458.456 418.416 457.793 418.388 456.845 417.922 C 455.901 417.468 454.737 416.496 453.942 415.083 C 453.154 413.667 452.935 412.165 453.042 411.124 C 453.143 410.072 453.463 409.493 453.56 409.525 C 453.809 409.559 453.215 412.078 454.709 414.654 C 456.122 417.274 458.579 418.087 458.479 418.317 Z " fill="rgb(172,92,72)"/><path d=" M 467.267 418.653 C 467.237 418.753 466.607 418.691 465.719 418.214 C 464.834 417.746 463.746 416.791 463.006 415.429 C 462.269 414.065 462.063 412.632 462.156 411.635 C 462.241 410.63 462.536 410.069 462.634 410.099 C 462.886 410.132 462.389 412.535 463.778 415.011 C 465.092 417.524 467.375 418.424 467.267 418.653 Z " fill="rgb(172,92,72)"/><path d=" M 346.098 309.72 C 346.098 309.72 434.294 411.084 434.19 409.413 C 434.087 407.74 473.725 378.102 473.725 378.102 L 387.25 275.102 L 346.098 309.72 Z " fill="rgb(0,171,147)"/><path d=" M 399.591 289.8 C 399.615 289.782 399.827 289.989 400.211 290.401 C 400.653 290.894 401.198 291.499 401.856 292.232 C 403.343 293.949 405.345 296.262 407.783 299.075 C 412.757 304.877 419.584 312.932 427.082 321.865 C 434.583 330.799 441.336 338.919 446.192 344.824 C 448.541 347.713 450.474 350.087 451.907 351.849 C 452.516 352.625 453.017 353.265 453.427 353.786 C 453.768 354.237 453.935 354.482 453.912 354.502 C 453.889 354.523 453.677 354.316 453.294 353.903 C 452.85 353.41 452.308 352.806 451.649 352.072 C 450.163 350.357 448.16 348.044 445.723 345.231 C 440.749 339.429 433.92 331.371 426.419 322.437 C 418.918 313.505 412.165 305.385 407.311 299.478 C 404.962 296.589 403.029 294.215 401.596 292.454 C 400.987 291.679 400.485 291.037 400.076 290.516 C 399.735 290.067 399.568 289.82 399.591 289.8 Z " fill="rgb(44,61,67)"/><path d=" M 555.616 301.481 C 555.433 301.43 556.586 299.063 556.672 294.987 C 556.71 292.967 556.42 290.537 555.532 288.022 C 554.65 285.5 553.074 282.993 550.908 280.767 C 548.769 278.519 546.468 276.578 544.615 274.538 C 542.742 272.509 541.395 270.351 540.664 268.377 C 539.917 266.403 539.814 264.651 539.949 263.491 C 540.09 262.323 540.37 261.728 540.406 261.741 C 540.597 261.728 539.628 264.365 541.24 268.148 C 542.013 270.011 543.357 272.047 545.208 273.987 C 547.047 275.951 549.353 277.862 551.546 280.165 C 553.763 282.439 555.428 285.118 556.295 287.757 C 557.18 290.394 557.412 292.926 557.292 295.008 C 557.177 297.099 556.751 298.749 556.366 299.843 C 555.986 300.942 555.655 301.5 555.616 301.481 Z " fill="rgb(44,61,67)"/><path d=" M 436.659 223.483 C 436.648 223.455 437.087 223.246 437.939 222.874 C 438.793 222.507 440.073 222.014 441.757 221.481 C 443.45 220.974 445.562 220.445 448.076 220.195 C 450.575 219.974 453.526 220.02 456.586 220.987 C 459.654 221.904 462.74 223.815 465.289 226.587 C 467.856 229.37 469.609 233.146 470.52 237.248 C 471.404 241.349 471.871 245.786 471.356 250.362 C 470.825 254.904 469.328 259.583 466.48 263.579 C 463.623 267.576 459.774 270.524 455.929 272.935 C 452.07 275.368 448.181 277.357 444.498 279.3 C 437.141 283.161 430.51 286.642 424.911 289.581 C 419.379 292.45 414.874 294.785 411.672 296.444 C 410.157 297.209 408.951 297.818 408.053 298.27 C 407.222 298.68 406.779 298.881 406.765 298.854 C 406.751 298.826 407.168 298.573 407.974 298.112 C 408.852 297.624 410.033 296.966 411.517 296.14 C 414.687 294.421 419.145 292.003 424.621 289.034 C 430.193 286.048 436.791 282.513 444.11 278.591 C 447.778 276.633 451.669 274.62 455.472 272.21 C 459.265 269.816 463.011 266.928 465.765 263.072 C 468.51 259.219 469.974 254.687 470.502 250.262 C 471.017 245.826 470.576 241.446 469.733 237.426 C 468.861 233.412 467.194 229.773 464.75 227.074 C 462.314 224.381 459.349 222.499 456.398 221.578 C 453.45 220.604 450.576 220.512 448.115 220.683 C 445.645 220.882 443.545 221.356 441.853 221.808 C 440.167 222.287 438.874 222.726 438.003 223.039 C 437.135 223.356 436.671 223.511 436.659 223.483 Z " fill="rgb(44,61,67)"/><path d=" M 409.288 299.091 C 409.005 299.173 408.275 293.281 404.369 287.339 C 400.545 281.341 395.467 278.267 395.656 278.04 C 395.707 277.956 397.029 278.594 398.901 280.044 C 400.772 281.485 403.127 283.821 405.105 286.862 C 407.072 289.909 408.238 293.015 408.788 295.311 C 409.346 297.611 409.387 299.081 409.288 299.091 Z " fill="rgb(44,61,67)"/><path d=" M 538.927 288.083 C 538.927 288.083 538.304 288.341 537.053 288.586 C 535.806 288.836 533.915 289.065 531.491 288.825 C 529.083 288.593 526.125 287.839 523.131 286.079 C 520.152 284.339 517.206 281.419 515.413 277.408 C 513.635 273.444 512.883 268.402 514.349 263.411 C 515.104 260.935 516.593 258.489 519.003 256.961 C 520.185 256.199 521.727 255.798 523.204 256.102 C 524.696 256.372 525.979 257.362 526.871 258.537 C 530.213 263.435 530.771 270.088 528.836 276.084 C 527.83 279.076 526.181 281.935 523.85 284.25 C 521.528 286.569 518.524 288.244 515.278 289.096 C 508.798 290.817 501.588 289.264 496.953 284.831 C 492.335 280.396 490.517 273.847 491.455 268.124 C 491.889 265.238 493.093 262.564 494.811 260.382 C 495.698 259.315 496.785 258.379 498.094 257.869 C 499.389 257.334 500.894 257.38 502.133 257.913 C 504.625 259.014 506.15 261.461 506.433 263.889 C 506.717 266.337 506.01 268.645 505.099 270.613 C 503.168 274.536 500.619 277.604 498.098 279.948 C 495.561 282.286 493.056 283.923 490.909 285.035 C 488.76 286.153 486.99 286.806 485.776 287.18 C 485.171 287.38 484.696 287.482 484.381 287.568 C 484.066 287.647 483.903 287.68 483.898 287.665 C 483.895 287.65 484.051 287.588 484.357 287.481 C 484.661 287.367 485.128 287.239 485.719 287.014 C 486.91 286.586 488.645 285.888 490.748 284.735 C 492.847 283.587 495.294 281.927 497.762 279.59 C 500.213 277.254 502.692 274.187 504.536 270.353 C 505.405 268.435 506.043 266.232 505.76 263.972 C 505.5 261.769 504.049 259.527 501.853 258.584 C 500.764 258.13 499.502 258.094 498.367 258.568 C 497.226 259.017 496.229 259.869 495.405 260.874 C 493.802 262.932 492.653 265.495 492.253 268.249 C 491.369 273.723 493.151 280.014 497.543 284.207 C 501.935 288.404 508.846 289.901 515.054 288.249 C 518.165 287.43 521.021 285.839 523.237 283.631 C 525.461 281.425 527.048 278.688 528.022 275.813 C 528.953 272.922 529.304 269.895 528.993 266.987 C 528.851 265.534 528.552 264.112 528.086 262.763 C 527.659 261.401 527.055 260.113 526.232 259.03 C 525.416 257.953 524.313 257.11 523.046 256.877 C 521.797 256.617 520.481 256.934 519.404 257.619 C 517.216 258.981 515.759 261.299 515.046 263.618 C 513.605 268.403 514.288 273.296 515.979 277.155 C 517.685 281.06 520.499 283.919 523.385 285.658 C 526.282 287.417 529.167 288.206 531.531 288.486 C 536.316 289.014 538.917 287.917 538.927 288.083 Z " fill="rgb(255,193,51)"/><path d=" M 545.568 189.382 C 543.702 187.111 542.349 184.42 541.638 181.568 C 541.404 180.631 541.243 179.633 541.534 178.713 C 541.824 177.792 542.696 176.993 543.656 177.083 C 544.642 177.176 545.311 178.096 545.841 178.935 C 547.391 181.393 548.889 183.906 549.899 186.631 C 550.176 187.381 550.419 188.169 550.373 188.968 C 550.327 189.767 549.94 190.59 549.23 190.959 C 548.453 191.365 547.466 191.138 546.754 190.627 C 546.043 190.116 545.545 189.366 545.065 188.634" fill="rgb(172,92,72)"/><path d=" M 549.799 187.542 C 548.348 184.507 546.897 181.471 545.446 178.436 C 545.017 177.536 544.578 176.601 544.548 175.603 C 544.518 174.605 545.01 173.519 545.946 173.172 C 546.762 172.87 547.708 173.207 548.355 173.79 C 549.001 174.372 549.414 175.166 549.812 175.94 C 550.496 177.271 551.181 178.601 551.865 179.932 C 552.424 181.02 552.99 182.126 553.219 183.327 C 553.449 184.529 553.298 185.86 552.538 186.817 C 551.776 187.774 550.319 188.214 549.268 187.592" fill="rgb(172,92,72)"/><path d=" M 530.468 215.733 C 530.468 215.733 524.413 207.883 523.868 203.744 C 523.324 199.607 528.399 192.264 539.274 190.615 C 545.111 189.73 548.532 188.103 550.45 186.785 C 551.829 185.839 552.362 184.087 551.725 182.542 C 550.296 179.074 547.721 172.641 547.917 171.778 C 548.424 169.557 549.87 169.602 553.633 175.102 C 557.397 180.602 561.73 186.186 560.895 188.72 C 560.057 191.253 546.803 199.099 546.803 199.099 L 550.427 204.942 L 530.468 215.733 Z " fill="rgb(199,120,95)"/><path d=" M 566.432 296.393 L 524.693 214.631 L 551.564 199.571 L 608.023 289.07 C 608.023 289.07 611.002 294.788 615.162 301.481 L 567.835 301.481" fill="rgb(0,171,147)"/><path d=" M 551.135 199.571 C 551.143 199.589 550.985 199.699 550.669 199.898 C 550.292 200.127 549.83 200.408 549.261 200.754 C 547.933 201.525 546.124 202.581 543.855 203.902 C 539.092 206.617 532.423 210.415 524.446 214.96 L 524.6 214.463 C 528.655 222.743 533.933 232.313 539.251 242.716 C 547.167 258.106 554.012 272.198 558.823 282.465 C 561.235 287.596 563.14 291.769 564.436 294.661 C 565.047 296.051 565.532 297.163 565.902 298.006 C 566.228 298.774 566.386 299.183 566.358 299.197 C 566.331 299.21 566.119 298.825 565.741 298.08 C 565.334 297.255 564.798 296.168 564.127 294.806 C 562.702 291.87 560.709 287.767 558.264 282.733 C 553.311 272.539 546.384 258.497 538.471 243.116 C 533.161 232.728 527.918 223.128 523.924 214.8 L 523.768 214.471 L 524.077 214.302 C 532.118 209.87 538.838 206.166 543.642 203.517 C 545.95 202.274 547.795 201.278 549.147 200.551 C 549.738 200.245 550.22 199.997 550.612 199.796 C 550.946 199.63 551.125 199.554 551.135 199.571 Z " fill="rgb(44,61,67)"/><path d=" M 440.487 303.669 C 440.29 303.78 437.951 299.779 436.02 294.419 C 434.07 289.065 433.307 284.495 433.529 284.452 C 433.781 284.396 434.919 288.831 436.844 294.12 C 438.752 299.417 440.716 303.553 440.487 303.669 Z " fill="rgb(44,61,67)"/><path d=" M 532.404 183.122 C 538.973 185.704 547.116 183.477 551.457 177.911 C 555.797 172.344 555.974 163.904 551.87 158.162 C 561.293 155.777 567.172 144.906 565.262 135.374 C 563.354 125.842 554.838 118.4 545.338 116.341 C 541.704 115.554 537.851 115.467 534.316 116.622 C 530.781 117.777 527.601 120.274 526.097 123.676" fill="rgb(44,61,67)"/><path d=" M 531.084 161.807 C 531.115 161.908 529.853 162.128 527.866 163.17 C 525.917 164.195 523.199 166.293 521.57 169.951 C 520.779 171.76 520.254 173.924 520.381 176.248 C 520.519 178.554 521.171 181.038 522.625 183.208 C 523.317 184.309 524.212 185.318 525.25 186.196 C 526.277 187.09 527.468 187.841 528.772 188.386 C 531.358 189.538 534.408 189.823 537.336 189.182 C 540.253 188.488 542.877 186.908 544.708 184.746 C 545.647 183.688 546.394 182.494 546.928 181.243 C 547.483 180.001 547.85 178.704 547.996 177.41 C 548.366 174.825 547.873 172.303 546.994 170.167 C 546.099 168.018 544.686 166.296 543.188 165.01 C 540.133 162.423 536.772 161.715 534.573 161.637 C 532.33 161.562 531.1 161.911 531.084 161.807 C 531.077 161.778 531.38 161.694 531.965 161.562 C 532.548 161.419 533.436 161.297 534.579 161.296 C 536.833 161.271 540.34 161.895 543.586 164.534 C 545.175 165.845 546.688 167.628 547.66 169.877 C 548.616 172.113 549.164 174.768 548.799 177.51 C 548.656 178.88 548.274 180.259 547.697 181.579 C 547.136 182.908 546.349 184.18 545.359 185.308 C 543.423 187.61 540.633 189.302 537.532 190.037 C 534.418 190.721 531.172 190.408 528.43 189.174 C 527.047 188.589 525.788 187.786 524.706 186.831 C 523.61 185.894 522.671 184.817 521.945 183.646 C 520.425 181.334 519.766 178.706 519.656 176.278 C 519.555 173.829 520.144 171.565 521.006 169.694 C 522.783 165.907 525.67 163.822 527.711 162.865 C 528.743 162.369 529.596 162.093 530.182 161.97 C 530.769 161.834 531.077 161.778 531.084 161.807 Z " fill="rgb(255,193,51)"/><path d=" M 538.21 135.882 C 545.02 135.499 551.289 130.337 552.974 123.728 C 554.655 117.118 551.617 109.585 545.821 105.993 C 548.624 98.118 545.867 88.598 539.291 83.44 C 532.714 78.283 522.809 77.876 515.833 82.477 C 510.498 73.127 499.085 67.658 488.455 69.362 C 477.826 71.065 468.691 79.826 466.546 90.374 C 456.982 86.426 445.103 88.968 437.994 96.486 C 430.884 104.005 429.007 116.006 433.483 125.335 C 423.081 126.235 414.43 136.508 415.315 146.912 C 416.2 157.315 426.459 165.979 436.865 165.111 C 434.741 172.021 437.408 180.132 443.216 184.435 C 449.027 188.737 457.563 188.924 463.554 184.88 C 467.375 191.055 474.918 194.708 482.134 193.879 C 489.349 193.051 495.867 187.782 498.188 180.9" fill="rgb(44,61,67)"/><path d=" M 518.414 213.057 C 518.756 205.046 519.188 197.796 519.188 197.796 C 519.188 197.796 537.089 195.537 537.863 177.262 C 538.636 158.986 536.816 116.906 536.816 116.906 L 503.862 101.081 L 468.407 129.644 L 473.968 213.575 C 474.77 225.667 485.097 234.896 497.204 234.337 C 508.716 233.804 517.92 224.57 518.414 213.057 Z " fill="rgb(199,120,95)"/><path d=" M 535.938 148.207 C 535.65 148.514 533.944 147.076 531.49 146.984 C 529.04 146.854 527.216 148.134 526.956 147.801 C 526.828 147.654 527.124 147.091 527.918 146.511 C 528.7 145.933 530.024 145.394 531.554 145.462 C 533.082 145.533 534.359 146.188 535.089 146.834 C 535.834 147.484 536.079 148.071 535.938 148.207 Z " fill="rgb(44,61,67)"/><path d=" M 508.769 148.207 C 508.479 148.514 506.772 147.076 504.319 146.984 C 501.868 146.854 500.045 148.134 499.785 147.801 C 499.657 147.654 499.95 147.091 500.748 146.511 C 501.527 145.933 502.855 145.394 504.383 145.462 C 505.911 145.533 507.188 146.188 507.917 146.834 C 508.66 147.484 508.909 148.071 508.769 148.207 Z " fill="rgb(44,61,67)"/><path d=" M 517.978 166.635 C 517.969 166.485 519.499 166.265 521.977 166.026 C 522.605 165.982 523.201 165.873 523.312 165.419 C 523.467 164.94 523.217 164.206 522.926 163.413 C 522.362 161.766 521.773 160.04 521.153 158.23 C 518.693 150.852 516.925 144.796 517.201 144.699 C 517.478 144.601 519.693 150.502 522.153 157.88 C 522.745 159.698 523.309 161.432 523.849 163.091 C 524.072 163.863 524.469 164.744 524.132 165.738 C 523.956 166.232 523.49 166.577 523.087 166.677 C 522.682 166.791 522.33 166.784 522.019 166.792 C 519.531 166.835 517.986 166.785 517.978 166.635 Z " fill="rgb(44,61,67)"/><path d=" M 519.188 197.796 C 519.188 197.796 507.211 198.14 495.479 190.035 C 495.479 190.035 501.05 203.346 518.876 202.28 L 519.188 197.796 Z " fill="rgb(172,92,72)"/><path d=" M 493.753 102.106 C 487.91 110.188 488.051 122.093 494.085 130.034 C 496.742 133.531 500.761 136.373 505.15 136.214 C 509.539 136.055 513.788 131.894 512.857 127.601 C 511.143 132.972 515.712 139.346 521.35 139.445 C 526.987 139.546 531.781 133.34 530.258 127.911 C 530.708 129.861 531.184 131.861 532.306 133.518 C 533.431 135.174 535.369 136.435 537.353 136.173 C 540.106 135.809 541.709 132.853 542.34 130.146 C 544.224 122.054 541.242 113.169 535.3 107.364 C 529.356 101.558 520.758 98.791 512.468 99.356 C 504.181 99.921 496.258 103.651 490.042 109.165" fill="rgb(44,61,67)"/><path d=" M 496.074 108.549 C 498.209 113.768 499.812 119.307 499.754 124.946 C 499.697 130.584 497.831 136.362 493.83 140.336 C 489.83 144.311 483.531 146.137 478.287 144.066 C 479.543 149 479.089 154.593 476.021 158.655 C 472.953 162.718 466.936 164.663 462.473 162.217 C 458.435 160.005 456.689 155.109 456.135 150.539 C 454.791 139.485 458.703 127.907 466.474 119.932 C 474.246 111.957 485.719 107.749 496.805 108.808" fill="rgb(44,61,67)"/><path d=" M 473.473 152.092 C 471.037 150.588 467.709 151.825 465.775 153.936 C 462.731 157.257 462.2 162.624 464.536 166.476 C 466.87 170.327 471.873 172.34 476.225 171.179" fill="rgb(199,120,95)"/><path d=" M 472.911 165.704 C 472.909 165.808 472.098 165.924 470.838 165.567 C 469.637 165.232 467.786 164.261 467.081 162.208 C 466.735 161.214 466.799 160.127 467.181 159.29 C 467.555 158.447 468.153 157.866 468.699 157.492 C 469.825 156.749 470.69 156.777 470.697 156.871 C 470.736 157.008 469.966 157.21 469.078 157.983 C 468.186 158.711 467.306 160.26 467.913 161.929 C 468.469 163.586 469.974 164.525 471.049 164.984 C 472.152 165.457 472.926 165.568 472.911 165.704 Z " fill="rgb(172,92,72)"/><path d=" M 510.276 140.577 C 510.047 141.288 507.376 141.028 504.196 141.168 C 501.016 141.265 498.371 141.723 498.088 141.032 C 497.793 140.391 500.391 138.669 504.099 138.539 C 507.805 138.392 510.522 139.916 510.276 140.577 Z " fill="rgb(44,61,67)"/><path d=" M 535.877 140.07 C 535.599 140.323 535.05 140.157 534.411 139.997 C 533.752 139.835 533.138 139.754 532.179 139.854 C 531.222 139.948 530.171 140.117 529.371 140.102 C 528.567 140.094 528.006 139.92 527.902 139.572 C 527.802 139.223 528.16 138.771 528.843 138.319 C 529.531 137.879 530.539 137.383 531.942 137.234 C 533.362 137.034 534.897 137.704 535.476 138.47 C 536.101 139.22 536.134 139.844 535.877 140.07 Z " fill="rgb(44,61,67)"/><path d=" M 513.724 171.316 C 515.104 170.491 516.831 170.11 518.341 170.662 C 519.85 171.214 520.988 172.865 520.633 174.432 C 520.44 175.286 519.851 176.01 519.151 176.536 C 518.075 177.345 516.66 177.747 515.344 177.469 C 514.025 177.192 512.849 176.184 512.51 174.879 C 512.172 173.575 512.786 172.046 513.995 171.453" fill="rgb(172,92,72)"/><path d=" M 522.696 173.262 C 522.738 173.359 522.112 173.78 520.934 174.033 C 519.772 174.29 518.029 174.299 516.301 173.58 C 514.574 172.861 513.352 171.616 512.715 170.609 C 512.065 169.595 511.924 168.854 512.023 168.816 C 512.146 168.761 512.487 169.392 513.214 170.239 C 513.929 171.085 515.094 172.127 516.639 172.771 C 518.182 173.413 519.743 173.507 520.847 173.42 C 521.959 173.339 522.648 173.137 522.696 173.262 Z " fill="rgb(44,61,67)"/><path d=" M 485.602 181.981 C 485.497 181.988 485.563 180.709 484.99 178.54 C 484.423 176.413 482.985 173.295 479.782 170.893 C 478.195 169.719 476.201 168.725 473.906 168.331 C 471.628 167.951 469.06 168.032 466.622 168.967 C 465.395 169.397 464.21 170.045 463.124 170.862 C 462.024 171.663 461.027 172.656 460.205 173.806 C 458.505 176.072 457.55 178.981 457.52 181.978 C 457.548 184.977 458.504 187.887 460.205 190.153 C 461.025 191.304 462.024 192.297 463.123 193.098 C 464.21 193.915 465.393 194.563 466.622 194.993 C 469.061 195.929 471.628 196.009 473.908 195.629 C 476.201 195.236 478.195 194.241 479.782 193.068 C 482.985 190.665 484.424 187.547 484.99 185.42 C 485.563 183.251 485.497 181.973 485.602 181.981 C 485.632 181.981 485.645 182.294 485.643 182.895 C 485.653 183.494 485.574 184.387 485.321 185.504 C 484.844 187.705 483.454 190.986 480.159 193.561 C 478.525 194.818 476.451 195.896 474.041 196.343 C 471.649 196.778 468.94 196.72 466.347 195.753 C 465.043 195.307 463.783 194.629 462.624 193.771 C 461.453 192.929 460.39 191.88 459.512 190.662 C 457.698 188.263 456.669 185.165 456.645 181.978 C 456.671 178.793 457.699 175.696 459.512 173.298 C 460.39 172.08 461.455 171.032 462.626 170.189 C 463.783 169.331 465.043 168.653 466.347 168.208 C 468.938 167.24 471.647 167.183 474.039 167.616 C 476.449 168.064 478.525 169.142 480.157 170.4 C 483.452 172.975 484.842 176.255 485.321 178.458 C 485.574 179.574 485.653 180.466 485.643 181.066 C 485.645 181.667 485.632 181.981 485.602 181.981 Z " fill="rgb(255,193,51)"/><path d=" M 535.867 100.203 C 535.874 100.181 536.027 100.218 536.325 100.314 C 536.604 100.433 537.035 100.633 537.471 101.053 C 538.345 101.84 539.327 103.584 538.942 105.849 C 538.583 108.135 536.274 110.319 533.247 110.893 C 530.171 111.537 526.719 110.382 523.607 108.588 L 520.212 106.628 L 523.938 107.852 C 525.216 108.271 526.135 109.458 526.453 110.737 C 526.792 112.018 526.647 113.458 525.933 114.671 C 525.194 115.888 523.938 116.684 522.587 117.041 C 521.23 117.399 519.779 117.345 518.419 116.949 C 515.076 115.911 512.914 113.192 511.254 110.762 L 508.874 107.278 L 511.901 110.213 C 513.628 111.89 514.013 114.388 513.528 116.432 C 513.061 118.517 511.611 120.258 509.869 121.064 C 506.346 122.748 502.585 121.694 500.509 119.923 C 498.343 118.152 497.421 116.042 496.964 114.644 C 496.732 113.933 496.63 113.364 496.571 112.981 C 496.523 112.594 496.512 112.392 496.538 112.388 C 496.609 112.374 496.712 113.181 497.241 114.546 C 497.77 115.882 498.751 117.879 500.843 119.493 C 502.837 121.109 506.365 121.982 509.535 120.406 C 511.103 119.647 512.332 118.122 512.745 116.252 C 513.163 114.415 512.776 112.225 511.312 110.832 L 511.959 110.283 C 513.59 112.663 515.686 115.196 518.662 116.107 C 521.062 116.847 523.969 116.222 525.196 114.229 C 526.394 112.288 525.68 109.283 523.679 108.62 L 524.01 107.884 C 527.037 109.669 530.286 110.771 533.12 110.225 C 535.938 109.743 538.077 107.784 538.458 105.753 C 538.879 103.702 538.05 102.029 537.287 101.239 C 536.502 100.401 535.828 100.278 535.867 100.203 Z " fill="rgb(67,96,105)"/><path d=" M 492.042 129.589 C 492.055 129.601 491.983 129.71 491.825 129.909 C 491.67 130.111 491.416 130.389 491.055 130.727 C 490.336 131.393 489.149 132.297 487.382 132.912 C 485.643 133.524 483.253 133.839 480.729 133.024 C 478.239 132.238 475.643 130.344 474.197 127.376 L 474.886 127.279 C 474.297 131.092 471.177 134.951 466.653 135.991 C 462.184 137.014 456.781 134.637 454.684 129.946 C 452.832 125.734 454.042 120.761 456.992 117.924 L 457.563 118.546 C 455.552 120.232 453.026 121.035 450.644 121.051 C 448.254 121.094 445.978 120.428 444.148 119.28 C 442.32 118.128 440.958 116.467 440.26 114.712 C 439.54 112.961 439.342 111.191 439.444 109.626 C 439.668 106.461 441.035 104.196 442.149 102.939 C 443.294 101.668 444.156 101.273 444.156 101.273 C 444.208 101.342 443.412 101.831 442.369 103.123 C 441.354 104.401 440.121 106.626 439.981 109.657 C 439.917 111.154 440.144 112.83 440.848 114.461 C 441.532 116.095 442.815 117.607 444.531 118.663 C 446.252 119.712 448.392 120.316 450.627 120.255 C 452.856 120.223 455.186 119.451 457.008 117.907 L 457.579 118.53 C 454.898 121.121 453.786 125.758 455.485 129.59 C 457.373 133.862 462.399 136.098 466.472 135.173 C 470.623 134.255 473.588 130.675 474.168 127.162 L 474.358 126.004 L 474.857 127.065 C 476.163 129.839 478.578 131.674 480.914 132.462 C 483.278 133.28 485.554 133.045 487.25 132.514 C 488.969 131.98 490.162 131.16 490.912 130.561 C 491.661 129.95 492.004 129.555 492.042 129.589 Z " fill="rgb(67,96,105)"/><path d=" M 459.412 158.85 C 459.431 158.878 458.979 159.262 457.989 159.697 C 457.005 160.117 455.436 160.571 453.437 160.408 C 451.474 160.253 449.01 159.412 447.158 157.343 C 445.325 155.333 444.118 152.197 444.685 148.906 L 445.437 149.239 C 443.912 151.246 441.817 153.087 439.259 154.283 C 437.344 155.173 435.271 155.63 433.262 155.561 C 431.26 155.487 429.356 154.948 427.752 154.047 C 424.47 152.305 422.632 149.033 422.512 146.263 C 422.302 143.468 423.297 141.3 424.203 140.09 C 424.68 139.486 425.113 139.075 425.432 138.833 C 425.758 138.596 425.934 138.486 425.952 138.511 C 426.011 138.578 425.31 139.064 424.483 140.286 C 423.698 141.503 422.854 143.592 423.129 146.206 C 423.327 148.796 425.059 151.739 428.138 153.337 C 431.147 155.009 435.281 155.233 438.89 153.488 C 441.298 152.362 443.299 150.622 444.764 148.726 L 445.829 147.351 L 445.516 149.06 C 444.973 152.039 446.039 154.968 447.702 156.86 C 449.372 158.804 451.631 159.653 453.491 159.875 C 455.378 160.103 456.901 159.753 457.887 159.428 C 458.877 159.09 459.379 158.793 459.412 158.85 Z " fill="rgb(67,96,105)"/><path d=" M 552.572 123.212 C 552.661 123.187 553.068 124.33 552.934 126.252 C 552.818 128.142 551.995 130.841 549.934 133.004 C 547.863 135.162 545.204 136.103 543.321 136.305 C 541.406 136.524 540.246 136.168 540.268 136.077 C 540.281 135.931 541.441 136.055 543.222 135.693 C 544.984 135.348 547.399 134.379 549.299 132.399 C 551.194 130.412 552.053 127.956 552.317 126.18 C 552.6 124.384 552.426 123.231 552.572 123.212 Z " fill="rgb(67,96,105)"/><path d=" M 562.637 140.436 C 562.678 140.421 562.898 140.841 563.05 141.684 C 563.188 142.516 563.247 143.808 562.709 145.291 C 562.194 146.723 560.914 148.487 558.726 148.951 C 557.672 149.179 556.496 149.107 555.394 148.664 C 554.291 148.244 553.262 147.349 552.776 146.122 L 553.602 145.844 C 553.731 146.349 553.833 146.901 553.808 147.46 C 553.732 150.206 551.878 152.507 549.685 153.322 C 548.577 153.726 547.405 153.725 546.41 153.457 C 545.415 153.178 544.584 152.666 543.939 152.097 C 542.632 150.948 542.095 149.575 541.949 148.647 C 541.802 147.701 541.954 147.182 541.993 147.189 C 542.076 147.192 542.044 147.711 542.281 148.572 C 542.516 149.42 543.1 150.637 544.341 151.623 C 545.523 152.612 547.491 153.319 549.398 152.566 C 551.261 151.844 552.88 149.777 552.931 147.446 C 552.954 146.972 552.864 146.511 552.763 146.088 L 553.592 145.81 C 554.374 147.796 556.802 148.552 558.569 148.182 C 560.416 147.846 561.612 146.365 562.155 145.071 C 562.719 143.741 562.763 142.526 562.724 141.719 C 562.679 140.903 562.569 140.455 562.637 140.436 Z " fill="rgb(67,96,105)"/><path d=" M 512.47 164.878 C 512.579 164.894 512.653 165.253 512.506 165.81 C 512.367 166.363 511.96 167.086 511.281 167.65 C 510.6 168.213 509.812 168.477 509.244 168.512 C 508.67 168.551 508.331 168.412 508.336 168.302 C 508.343 168.053 509.605 167.932 510.722 166.975 C 511.87 166.057 512.222 164.838 512.47 164.878 Z " fill="rgb(44,61,67)"/><path d=" M 904.559 636.685 C 900.453 642.55 892.471 640.609 888.77 637.029 C 885.069 633.448 883.504 628.26 882.081 623.311 C 878.829 612.005 875.547 600.145 877.965 588.631 C 878.691 585.19 879.977 581.757 882.397 579.203 C 884.814 576.65 888.533 575.13 891.933 576.029 C 895.959 577.093 898.459 581.034 900.269 584.783 C 905.582 595.805 908.395 608.024 908.438 620.261 C 908.456 625.975 907.783 631.967 904.559 636.685 Z " fill="rgb(240,99,109)"/><path d=" M 897.248 640.424 C 894.029 640.424 890.774 638.967 888.77 637.029 C 885.069 633.448 883.504 628.26 882.081 623.311 C 879.615 614.744 877.135 605.858 877.13 597.045 C 877.128 594.229 877.38 591.419 877.965 588.631 C 878.691 585.19 879.977 581.757 882.397 579.203 C 884.338 577.152 887.12 575.769 889.902 575.769 C 890.583 575.769 891.264 575.851 891.933 576.029 C 895.959 577.093 898.459 581.034 900.269 584.783 C 905.582 595.805 908.395 608.024 908.438 620.261 C 908.438 620.35 908.438 620.439 908.438 620.53 C 908.434 626.162 907.732 632.041 904.559 636.685 C 902.675 639.377 899.976 640.424 897.248 640.424 Z " fill="rgb(255,204,51)"/><path d=" M 889.173 666.389 C 882.458 662.923 874.549 662.473 867.092 663.706 C 863.086 664.368 858.909 665.567 856.184 668.576 C 853.46 671.584 852.941 676.88 856.072 679.464 C 857.934 681.002 860.533 681.237 862.948 681.209 C 868.786 681.14 875.263 680.112 879.926 683.626 C 882.586 685.63 884.358 688.959 887.539 689.946 C 890.65 690.91 894.162 689.074 895.812 686.265 C 897.462 683.457 897.518 679.944 896.748 676.779 C 896.748 676.779 895.937 669.88 889.173 666.389 Z " fill="rgb(255,193,51)"/><path d=" M 915.837 645.101 C 911.379 639.809 910.532 632.091 912.516 625.461 C 914.5 618.832 918.984 613.193 924.148 608.587 C 930.206 603.189 937.326 598.988 944.98 596.297 C 947.992 595.237 951.169 594.402 954.349 594.706 C 957.525 595.009 960.728 596.632 962.208 599.462 C 964.401 603.642 962.301 608.713 960.027 612.851 C 956.02 620.14 951.442 627.115 946.346 633.686 C 942.243 638.974 937.546 644.188 931.297 646.577 C 925.046 648.967 918.555 648.686 915.242 644.351" fill="rgb(255,193,51)"/><path d=" M 904.837 725.164 C 904.761 725.169 904.636 724.22 904.467 722.499 C 904.277 720.56 904.041 718.124 903.758 715.227 C 903.419 712.165 902.971 708.523 902.123 704.557 C 901.274 700.601 899.948 696.312 898.244 691.966 C 896.48 687.643 894.328 683.713 891.813 680.571 C 889.318 677.414 886.414 675.129 883.685 673.812 C 880.964 672.469 878.525 671.923 876.839 671.68 C 875.138 671.507 874.185 671.372 874.185 671.297 C 874.184 671.221 875.138 671.208 876.886 671.255 C 878.617 671.371 881.158 671.81 884.024 673.114 C 886.901 674.389 889.981 676.709 892.6 679.93 C 895.238 683.137 897.47 687.155 899.263 691.553 C 900.997 695.978 902.305 700.31 903.114 704.352 C 903.922 708.387 904.291 712.068 904.534 715.154 C 904.764 718.244 904.852 720.746 904.893 722.473 C 904.932 724.202 904.912 725.161 904.837 725.164 Z " fill="rgb(44,61,67)"/><path d=" M 904.335 719.568 C 904.299 719.566 904.274 719.14 904.266 718.331 C 904.266 717.401 904.269 716.232 904.274 714.794 C 904.282 711.726 904.281 707.285 904.118 701.8 C 903.846 690.831 902.901 675.689 901.076 659.046 C 899.239 642.398 896.803 627.422 894.583 616.677 C 894.059 613.984 893.531 611.561 893.032 609.439 C 892.558 607.312 892.154 605.478 891.762 603.994 C 891.427 602.597 891.153 601.461 890.936 600.557 C 890.76 599.768 890.685 599.348 890.719 599.337 C 890.757 599.325 890.902 599.725 891.15 600.497 C 891.42 601.387 891.759 602.508 892.177 603.885 C 892.631 605.354 893.098 607.177 893.633 609.296 C 894.187 611.41 894.769 613.828 895.345 616.516 C 897.765 627.246 900.329 642.241 902.17 658.926 C 903.998 675.603 904.82 690.788 904.894 701.785 C 904.959 707.283 904.843 711.734 904.702 714.806 C 904.613 716.242 904.542 717.411 904.486 718.341 C 904.424 719.147 904.375 719.571 904.335 719.568 Z " fill="rgb(44,61,67)"/><path d=" M 904.264 690.278 C 904.187 690.277 904.198 688.964 904.289 686.585 C 904.424 684.212 904.75 680.78 905.421 676.575 C 906.128 672.382 907.12 667.404 908.675 661.994 C 910.155 656.564 912.188 650.701 914.773 644.738 C 919.831 632.739 926.702 622.93 932.682 616.853 C 934.084 615.241 935.646 614.078 936.893 612.938 C 937.541 612.39 938.112 611.844 938.693 611.415 C 939.28 611.012 939.825 610.635 940.328 610.286 C 942.297 608.942 943.399 608.231 943.439 608.296 C 943.615 608.536 939.032 611.232 933.245 617.391 C 927.48 623.535 920.8 633.277 915.783 645.175 C 913.22 651.087 911.173 656.894 909.65 662.272 C 908.051 667.63 906.99 672.558 906.186 676.709 C 905.424 680.869 904.982 684.268 904.715 686.62 C 904.496 688.976 904.338 690.282 904.264 690.278 Z " fill="rgb(44,61,67)"/><path d=" M 326.483 29.397 C 326.483 29.42 326.094 29.469 325.339 29.538 C 324.525 29.607 323.413 29.701 321.988 29.82 C 320.506 29.863 318.71 30.205 316.59 30.604 C 315.535 30.83 314.369 30.929 313.181 31.295 C 311.985 31.642 310.717 32.009 309.373 32.397 C 304.074 34.136 297.7 36.874 291.306 41.617 C 284.925 46.324 278.567 53.023 273.651 61.722 C 271.064 66.001 269.208 70.93 267.547 76.105 C 266.209 81.37 265.035 86.961 265.008 92.838 C 264.78 95.771 265.109 98.745 265.27 101.768 C 265.365 103.28 265.709 104.776 265.92 106.298 C 266.143 107.82 266.384 109.352 266.834 110.85 C 268.152 116.962 270.715 122.939 273.937 128.658 C 280.379 140.139 291.097 149.971 304.262 155.59 C 310.847 158.407 318.109 159.882 325.479 160.101 C 332.86 160.485 340.401 159.215 347.536 156.671 L 349.694 155.851 L 349.978 155.743 L 350.238 155.871 C 360.903 161.134 371.362 166.294 381.497 171.295 L 380.582 172.094 C 377.146 161.832 373.815 151.882 370.62 142.336 L 370.497 141.968 L 370.768 141.691 C 378.511 133.759 383.861 124.166 386.776 114.377 C 389.699 104.556 390.104 94.587 388.816 85.467 C 387.528 76.329 384.44 68.042 380.373 61.084 C 376.305 54.105 371.283 48.456 366.144 44.062 C 360.946 39.697 355.575 36.76 350.766 34.52 C 345.845 32.526 341.462 31.262 337.825 30.604 C 336.007 30.315 334.39 30.059 332.98 29.836 C 331.584 29.754 330.395 29.684 329.411 29.627 C 328.495 29.567 327.771 29.519 327.225 29.483 C 326.733 29.444 326.483 29.416 326.483 29.397 C 326.483 29.379 326.731 29.371 327.226 29.372 C 327.774 29.382 328.498 29.394 329.419 29.411 C 330.409 29.439 331.605 29.473 333.012 29.515 C 334.435 29.71 336.065 29.934 337.899 30.187 C 341.574 30.785 346.011 31.996 351.008 33.953 C 355.889 36.158 361.352 39.077 366.652 43.454 C 371.892 47.859 377.021 53.55 381.189 60.603 C 385.358 67.637 388.538 76.036 389.885 85.315 C 391.234 94.571 390.86 104.708 387.918 114.712 C 384.981 124.685 379.558 134.475 371.676 142.578 L 371.824 141.932 C 375.034 151.474 378.378 161.417 381.829 171.675 L 382.334 173.175 L 380.915 172.475 C 370.776 167.48 360.316 162.326 349.649 157.069 L 350.192 157.089 L 347.988 157.928 C 340.696 160.529 332.982 161.823 325.44 161.43 C 317.907 161.201 310.483 159.682 303.758 156.797 C 290.312 151.041 279.407 140.983 272.871 129.273 C 269.601 123.439 267.015 117.345 265.691 111.123 C 265.242 109.596 265.002 108.037 264.776 106.488 C 264.567 104.939 264.225 103.417 264.131 101.881 C 263.98 98.805 263.659 95.781 263.903 92.803 C 263.954 86.832 265.17 81.155 266.558 75.817 C 268.267 70.568 270.182 65.58 272.832 61.255 C 277.871 52.46 284.365 45.72 290.863 41.016 C 297.376 36.274 303.85 33.578 309.22 31.901 C 310.579 31.53 311.865 31.179 313.074 30.85 C 314.277 30.501 315.454 30.42 316.519 30.214 C 318.662 29.852 320.473 29.551 321.964 29.553 C 323.398 29.488 324.517 29.44 325.334 29.402 C 326.093 29.376 326.483 29.374 326.483 29.397 Z " fill="rgb(44,61,67)"/><path d=" M 341.189 86.772 L 336.634 86.824 L 326.539 73.087 L 326.435 63.996 C 326.435 63.996 319.393 63.644 320.355 75.537 C 321.319 87.431 320.388 84.41 320.388 84.41 C 320.388 84.41 305.443 84.638 304.216 85.95 C 303.322 86.905 303.082 101.755 303.018 109.809 C 302.987 113.863 305.515 117.605 309.295 118.52 C 309.832 118.651 310.375 118.724 310.906 118.718 C 314.634 118.675 333.647 115.428 333.647 115.428 L 341.513 115.339 L 341.189 86.772 Z " fill="rgb(255,204,51)"/><path d=" M 354.196 84.129 L 351.75 115.308 L 343.951 115.396 L 343.604 84.876 L 354.196 84.129 Z " fill="rgb(255,204,51)"/></g></g><path d=" M 172.348 287.858 C 168.905 283.489 162.658 283.651 158.672 287.16 C 154.685 290.665 152.949 294.646 152.453 300.556 C 151.226 294.764 148.691 291.083 144.274 288.162 C 139.858 285.242 133.597 285.949 130.699 290.762 C 128.998 293.585 128.663 297.356 129.302 300.773 C 129.942 304.191 131.085 307.707 133.233 310.135 C 140.886 318.783 144.849 320.138 154.346 326 C 162.972 318.875 165.767 317.051 172.235 307.418 C 174.05 304.711 174.743 301.07 174.953 297.593 C 175.162 294.114 174.368 290.423 172.348 287.858 Z " fill="rgb(56,79,86)"/><path d=" M 680.907 59.724 C 680.907 56.139 683.424 51.78 686.528 49.986 L 691.107 47.344 C 694.21 45.552 699.245 45.552 702.348 47.344 L 759.379 80.203 C 762.483 81.997 765 86.355 765 89.94 L 765 167.175 C 765 170.76 762.483 175.118 759.379 176.912 L 754.8 179.554 C 751.697 181.346 746.662 181.346 743.559 179.554 L 723.024 167.73 L 714.978 181.664 C 714.463 182.554 713.142 182.428 712.805 181.456 L 704.301 156.914 L 686.528 146.695 C 683.424 144.904 680.907 140.543 680.907 136.959 L 680.907 59.724 Z " fill="rgb(255,193,51)"/><path d=" M 749.215 180.89 C 747.566 180.89 745.916 180.595 744.519 180.007 C 745.067 180.214 745.588 180.315 746.071 180.315 C 747.913 180.315 749.18 178.85 749.18 176.309 L 749.18 99.074 C 749.18 97.283 748.55 95.296 747.536 93.534 L 753.132 90.302 L 763.337 84.413 C 763.337 84.412 763.334 84.411 763.334 84.41 L 763.353 84.4 C 764.371 86.163 765 88.148 765 89.94 L 765 167.175 C 765 170.76 762.483 175.118 759.379 176.912 L 754.8 179.554 C 754.681 179.624 754.556 179.691 754.429 179.756 C 754.421 179.76 754.41 179.765 754.402 179.77 C 754.399 179.772 754.396 179.773 754.393 179.774 C 752.91 180.519 751.062 180.89 749.215 180.89 Z " fill="rgb(255,193,51)"/><path d=" M 747.522 93.539 C 746.527 91.755 745.108 90.234 743.562 89.343 L 686.519 56.474 C 685.616 55.953 684.762 55.706 684.008 55.706 C 682.591 55.706 681.52 56.571 681.091 58.126 C 681.363 56.553 682.041 54.928 682.974 53.503 C 683.649 52.472 684.461 51.545 685.345 50.814 C 685.725 50.502 686.118 50.227 686.519 49.996 L 691.109 47.348 C 692.658 46.456 694.69 46.01 696.727 46.01 C 698.548 46.01 700.368 46.366 701.849 47.079 C 702.02 47.162 702.188 47.251 702.348 47.344 L 713.201 53.596 L 759.377 80.217 C 760.923 81.108 762.312 82.627 763.334 84.41 L 753.132 90.302 L 747.522 93.539 Z " fill="rgb(255,179,0)"/><path d=" M 707.065 143.71 L 706.384 143.664 C 704.673 143.432 703.202 142.353 702.467 140.793 L 692.352 119.271 C 691.158 116.733 692.246 113.707 694.788 112.513 C 697.327 111.317 700.349 112.409 701.545 114.949 L 708.324 129.367 L 731.664 102.191 C 733.492 100.068 736.701 99.824 738.831 101.648 C 740.955 103.477 741.202 106.683 739.373 108.814 L 710.923 141.942 C 709.946 143.073 708.538 143.71 707.065 143.71 Z " fill="rgb(246,246,245)"/></g></svg>