<?xml version="1.0" encoding="UTF-8" standalone="no"?><!-- Generator: Gravit.io --><svg id="us" xmlns="http://www.w3.org/2000/svg" xmlns:xlink="http://www.w3.org/1999/xlink" style="isolation:isolate" viewBox="0 0 1024 768" ><defs><clipPath id="_clipPath_wjQfHhQXAMTORK6X2qQcwcDd8EWk8f0M"><rect width="1024" height="768"/></clipPath></defs><g clip-path="url(#_clipPath_wjQfHhQXAMTORK6X2qQcwcDd8EWk8f0M)"><g><clipPath id="_clipPath_OcEvf7DmaKUA13FVXGAGYeL743iBKMWs"><path d=" M 10 28.32 L 10 739.68 L 1014 739.68 L 1014 28.32 L 10 28.32 Z " fill="rgb(255,255,255)"/></clipPath><g clip-path="url(#_clipPath_OcEvf7DmaKUA13FVXGAGYeL743iBKMWs)"><path d=" M 266.693 279.32 C 266.693 279.32 257.558 271.838 243.215 294.051 C 228.871 316.263 222.962 329.314 222.962 329.314 C 222.962 329.314 219.304 333.902 216.258 330.346 C 213.215 326.792 209.527 317.213 203.626 318.268 C 197.506 319.358 194.868 325.793 195.003 335.66 C 195.139 345.528 194.643 367.156 194.59 369.111 C 194.54 371.031 193.162 373.726 190.699 371.637 C 188.237 369.547 174.74 351.022 166.334 357.954 C 157.927 364.883 162.82 392.31 163.298 395.318 C 163.776 398.325 163.074 399.519 161.608 400.1 C 160.144 400.684 156.194 394.029 152.139 388.918 C 148.084 383.807 142.487 378.591 137.972 382.995 C 133.457 387.4 130.123 407.26 145.825 441.683 L 154.145 457.158 L 171.772 457.978 C 209.602 457.439 226.126 445.927 228.176 439.961 C 230.225 433.994 223.115 431.168 216.76 429.691 C 210.404 428.214 202.7 427.492 202.599 425.918 C 202.498 424.345 203.276 423.2 206.2 422.345 C 209.122 421.488 236.005 414.173 238.671 403.611 C 241.337 393.046 218.817 388.776 215.876 387.445 C 212.934 386.115 214.78 383.715 216.493 382.847 C 218.238 381.964 237.574 372.259 246.549 368.158 C 255.526 364.057 260.212 358.92 258.58 352.923 C 257.005 347.137 246.771 347.905 242.256 346.674 C 237.739 345.444 240.32 340.173 240.32 340.173 C 240.32 340.173 249.587 329.247 263.525 306.777 C 277.461 284.308 266.497 279.181 266.497 279.181 L 266.693 279.32 Z " fill="rgb(255,179,0)"/><path d=" M 151.028 460.017 C 161.329 443.555 180.129 414.604 196.139 389.665 C 212.144 364.735 226.615 342.149 236.998 325.743 C 242.172 317.546 246.363 310.909 249.273 306.297 C 250.717 304.018 251.84 302.241 252.617 301.013 C 252.994 300.427 253.288 299.971 253.497 299.645 C 253.697 299.34 253.813 299.19 253.813 299.19 C 253.813 299.19 253.73 299.359 253.546 299.674 C 253.346 300.007 253.067 300.473 252.71 301.07 C 251.954 302.311 250.859 304.106 249.455 306.41 C 246.622 311.044 242.478 317.719 237.324 325.948 C 227.023 342.41 212.604 365.03 196.598 389.959 C 180.587 414.899 161.738 443.815 151.355 460.222" fill="rgb(216,217,217)"/><path d=" M 208.246 331.872 C 208.281 331.868 208.394 332.305 208.564 333.103 C 208.739 333.902 208.956 335.064 209.212 336.5 C 209.718 339.375 210.314 343.365 210.893 347.779 C 211.448 352.133 211.951 356.07 212.335 359.082 C 212.516 360.438 212.669 361.583 212.792 362.503 C 212.905 363.311 212.95 363.762 212.913 363.768 C 212.875 363.775 212.759 363.338 212.583 362.539 C 212.412 361.741 212.194 360.579 211.953 359.139 C 211.476 356.258 210.931 352.263 210.353 347.849 C 209.765 343.502 209.236 339.569 208.83 336.561 C 208.642 335.204 208.482 334.06 208.355 333.139 C 208.249 332.33 208.208 331.879 208.246 331.872 Z " fill="rgb(216,217,217)"/><path d=" M 214.485 364.244 C 214.459 364.095 222.629 362.502 232.73 360.685 C 242.837 358.87 251.048 357.516 251.074 357.665 C 251.102 357.813 242.933 359.407 232.827 361.222 C 222.725 363.039 214.512 364.39 214.485 364.244 Z " fill="rgb(216,217,217)"/><path d=" M 188.175 401.425 C 188.18 401.388 188.642 401.417 189.471 401.499 C 190.41 401.598 191.583 401.722 192.977 401.869 C 195.937 402.18 200.026 402.589 204.555 402.877 C 209.085 403.172 213.193 403.298 216.169 403.365 C 217.57 403.399 218.749 403.427 219.694 403.45 C 220.526 403.474 220.987 403.503 220.987 403.543 C 220.988 403.58 220.528 403.621 219.695 403.662 C 218.863 403.701 217.657 403.74 216.166 403.752 C 213.185 403.783 209.063 403.717 204.52 403.42 C 199.979 403.133 195.883 402.661 192.93 402.253 C 191.454 402.044 190.263 401.861 189.442 401.709 C 188.62 401.562 188.17 401.463 188.175 401.425 Z " fill="rgb(216,217,217)"/><path d=" M 176.087 373.39 C 176.121 373.374 176.327 373.748 176.669 374.438 C 177.053 375.238 177.523 376.219 178.078 377.378 C 179.245 379.871 180.822 383.33 182.533 387.163 C 184.246 390.997 185.769 394.483 186.844 397.015 C 187.337 398.201 187.754 399.207 188.093 400.026 C 188.377 400.741 188.519 401.145 188.483 401.161 C 188.449 401.176 188.243 400.802 187.901 400.111 C 187.517 399.313 187.047 398.33 186.493 397.171 C 185.326 394.679 183.748 391.221 182.035 387.385 C 180.324 383.552 178.803 380.068 177.726 377.535 C 177.233 376.35 176.816 375.342 176.477 374.525 C 176.191 373.808 176.052 373.405 176.087 373.39 Z " fill="rgb(216,217,217)"/><path d=" M 148.688 403.265 C 148.723 403.249 148.983 403.729 149.423 404.612 C 149.897 405.593 150.508 406.856 151.241 408.375 C 152.754 411.561 154.811 415.977 157.052 420.869 C 159.293 425.763 161.294 430.207 162.717 433.434 C 163.387 434.982 163.945 436.27 164.377 437.269 C 164.758 438.178 164.953 438.689 164.919 438.705 C 164.884 438.72 164.625 438.24 164.185 437.357 C 163.71 436.376 163.1 435.112 162.366 433.596 C 160.853 430.409 158.796 425.992 156.555 421.098 C 154.314 416.205 152.314 411.762 150.89 408.535 C 150.221 406.989 149.663 405.699 149.23 404.702 C 148.849 403.791 148.654 403.28 148.688 403.265 Z " fill="rgb(216,217,217)"/><path d=" M 164.769 437.749 C 164.773 437.709 165.358 437.731 166.412 437.798 C 167.563 437.879 169.065 437.982 170.875 438.109 C 174.642 438.367 179.848 438.704 185.604 438.913 C 191.36 439.131 196.577 439.19 200.353 439.206 C 202.168 439.215 203.672 439.223 204.826 439.229 C 205.882 439.239 206.468 439.263 206.468 439.299 C 206.469 439.339 205.885 439.386 204.831 439.441 C 203.774 439.497 202.246 439.554 200.356 439.592 C 196.577 439.675 191.35 439.676 185.583 439.458 C 179.817 439.249 174.606 438.85 170.843 438.493 C 168.962 438.31 167.441 438.147 166.393 438.01 C 165.344 437.876 164.765 437.784 164.769 437.749 Z " fill="rgb(216,217,217)"/><path d=" M 122.849 341.579 C 122.849 341.579 123.041 344.387 122.392 349.625 C 121.691 354.818 120.018 362.582 115.056 371.227 L 114.885 370.93 L 114.9 370.93 L 115.24 370.928 L 115.072 371.225 C 104.431 390.096 88.462 418.416 69.348 452.315 L 69.061 452.822 L 68.751 452.328 C 54.202 429.12 37.761 402.891 20.417 375.225 C 19.602 373.924 18.79 372.628 18.04 371.429 L 17.672 370.842 L 18.366 370.843 L 18.368 370.843 L 18.037 371.42 C 14.33 365.07 11.893 358.107 10.753 351.052 C 10.208 347.523 9.902 343.97 10.028 340.454 C 10.124 338.699 10.219 336.949 10.314 335.209 C 10.574 333.484 10.834 331.768 11.092 330.059 C 13.745 316.446 21.142 304.506 30.824 296.32 C 35.7 292.25 41.136 289.147 46.725 286.974 L 48.828 286.191 L 49.873 285.8 L 50.947 285.515 C 52.378 285.143 53.798 284.77 55.207 284.405 C 58.083 283.97 60.901 283.383 63.726 283.373 C 66.539 283.113 69.301 283.378 72.013 283.52 C 73.365 283.628 74.685 283.92 76.003 284.108 C 76.66 284.214 77.314 284.32 77.966 284.424 C 78.61 284.56 79.239 284.756 79.871 284.917 C 81.131 285.258 82.379 285.596 83.613 285.931 C 84.808 286.386 85.991 286.837 87.16 287.284 C 87.741 287.513 88.332 287.714 88.897 287.965 C 89.45 288.241 90 288.517 90.547 288.791 C 91.639 289.343 92.717 289.89 93.784 290.428 C 102.062 295.244 108.277 301.534 112.559 307.76 C 116.873 314.009 119.265 320.168 120.739 325.263 C 121.361 327.85 121.991 330.132 122.181 332.178 C 122.464 334.205 122.743 335.916 122.727 337.32 C 122.775 338.701 122.812 339.759 122.837 340.498 C 122.858 341.213 122.849 341.579 122.849 341.579 C 122.849 341.579 122.805 341.213 122.76 340.498 C 122.717 339.762 122.655 338.707 122.575 337.33 C 122.566 335.931 122.264 334.228 121.957 332.212 C 121.745 330.178 121.096 327.911 120.456 325.343 C 118.944 320.284 116.526 314.182 112.21 308.001 C 107.926 301.842 101.735 295.636 93.519 290.895 C 92.461 290.365 91.391 289.829 90.308 289.287 C 89.766 289.018 89.22 288.745 88.672 288.473 C 88.112 288.226 87.527 288.03 86.95 287.805 C 85.791 287.367 84.62 286.923 83.436 286.476 C 82.213 286.15 80.978 285.82 79.73 285.485 C 79.104 285.329 78.482 285.136 77.844 285.004 C 77.199 284.903 76.552 284.8 75.901 284.697 C 74.597 284.516 73.291 284.228 71.954 284.125 C 69.271 283.995 66.539 283.739 63.758 284.001 C 60.966 284.018 58.182 284.609 55.341 285.041 C 53.95 285.407 52.547 285.776 51.134 286.148 L 50.074 286.432 L 49.042 286.819 L 46.967 287.598 C 41.45 289.757 36.086 292.83 31.275 296.857 C 21.726 304.96 14.436 316.758 11.827 330.199 C 11.573 331.887 11.318 333.583 11.062 335.286 C 10.97 337.006 10.877 338.734 10.784 340.467 C 10.66 343.939 10.965 347.446 11.505 350.929 C 12.633 357.895 15.04 364.768 18.698 371.033 L 19.036 371.611 L 18.367 371.609 L 18.364 371.609 L 18.69 371.023 C 19.44 372.221 20.253 373.517 21.066 374.817 C 38.389 402.498 54.809 428.738 69.339 451.959 L 68.743 451.972 C 87.966 418.135 104.027 389.868 114.729 371.031 L 114.901 371.325 L 114.886 371.325 L 114.542 371.325 L 114.715 371.028 C 119.694 362.472 121.423 354.762 122.185 349.597 C 122.561 346.995 122.669 344.982 122.755 343.631 C 122.78 342.97 122.798 342.462 122.812 342.098 C 122.828 341.754 122.849 341.579 122.849 341.579 Z " fill="rgb(216,217,217)"/><path d=" M 102.336 340.934 C 102.323 340.934 102.301 340.738 102.27 340.356 C 102.24 339.937 102.2 339.375 102.15 338.662 C 102.127 338.285 102.1 337.868 102.072 337.415 C 102.022 336.957 101.923 336.463 101.842 335.922 C 101.671 334.847 101.508 333.6 101.096 332.243 C 100.467 329.489 99.178 326.234 97.147 322.785 C 95.101 319.35 92.15 315.76 88.132 312.714 C 84.125 309.694 79.07 307.123 73.231 306.077 C 67.432 305.068 60.883 305.234 54.641 307.588 C 53.053 308.093 51.56 308.875 50.025 309.606 C 48.57 310.481 47.037 311.287 45.683 312.384 C 44.243 313.367 42.984 314.598 41.664 315.785 C 40.472 317.097 39.219 318.384 38.191 319.874 C 36.08 322.791 34.234 326.033 33.114 329.602 C 31.953 333.147 31.323 336.913 31.263 340.748 C 31.303 344.586 31.913 348.357 33.055 351.909 C 34.157 355.484 35.986 358.736 38.083 361.664 C 39.104 363.161 40.35 364.454 41.536 365.775 C 42.849 366.966 44.103 368.205 45.538 369.196 C 46.887 370.3 48.416 371.113 49.866 371.996 C 51.398 372.735 52.889 373.526 54.474 374.038 C 60.704 376.423 67.253 376.624 73.057 375.643 C 78.901 374.626 83.971 372.079 87.991 369.08 C 92.025 366.052 94.994 362.479 97.057 359.054 C 99.104 355.614 100.409 352.368 101.052 349.617 C 101.472 348.262 101.64 347.015 101.817 345.941 C 101.901 345.402 102.002 344.907 102.054 344.452 C 102.085 343.996 102.113 343.58 102.139 343.205 C 102.193 342.49 102.235 341.93 102.266 341.512 C 102.3 341.13 102.323 340.934 102.336 340.934 C 102.35 340.934 102.352 341.13 102.345 341.514 C 102.332 341.933 102.315 342.496 102.293 343.215 C 102.278 343.593 102.262 344.013 102.245 344.472 C 102.205 344.932 102.116 345.43 102.043 345.973 C 101.889 347.059 101.741 348.318 101.342 349.69 C 100.737 352.475 99.462 355.773 97.425 359.274 C 95.372 362.761 92.393 366.41 88.319 369.513 C 84.259 372.585 79.117 375.204 73.173 376.268 C 67.269 377.295 60.595 377.115 54.231 374.701 C 52.612 374.182 51.089 373.384 49.525 372.629 C 48.041 371.735 46.481 370.905 45.1 369.784 C 43.634 368.774 42.351 367.513 41.009 366.297 C 39.795 364.954 38.522 363.635 37.476 362.108 C 35.331 359.121 33.46 355.799 32.331 352.147 C 31.16 348.52 30.537 344.664 30.495 340.746 C 30.557 336.83 31.201 332.981 32.391 329.358 C 33.539 325.715 35.426 322.404 37.586 319.428 C 38.64 317.907 39.92 316.596 41.14 315.258 C 42.488 314.05 43.777 312.796 45.248 311.794 C 46.634 310.68 48.199 309.857 49.686 308.971 C 51.254 308.227 52.781 307.435 54.402 306.924 C 60.778 304.541 67.451 304.395 73.35 305.452 C 79.289 306.545 84.416 309.19 88.462 312.283 C 92.52 315.406 95.481 319.069 97.516 322.566 C 99.536 326.079 100.795 329.383 101.386 332.171 C 101.778 333.544 101.92 334.806 102.069 335.891 C 102.138 336.435 102.225 336.935 102.262 337.395 C 102.278 337.855 102.292 338.273 102.304 338.652 C 102.323 339.37 102.337 339.933 102.348 340.355 C 102.353 340.738 102.35 340.934 102.336 340.934 Z " fill="rgb(216,217,217)"/><path d=" M 65.898 357.567 L 45.129 343.076 L 50.186 335.829 L 64.112 345.546 L 82.128 322.654 L 89.072 328.119 L 65.898 357.567 Z " fill="rgb(255,193,51)"/><path d=" M 638.807 127.553 C 619.703 128.236 606.116 146.081 610.547 164.679 C 613.823 178.435 626.634 188.181 640.766 187.665 C 659.859 186.969 673.426 169.139 669.009 150.554 C 665.739 136.799 652.936 127.049 638.807 127.553 Z  M 647.137 89.252 C 653.277 90.023 659.211 91.611 664.802 93.918 L 677.786 83.036 L 700.089 100.012 L 693.063 115.426 C 696.776 120.2 699.889 125.495 702.268 131.212 L 719.137 132.698 L 722.903 160.472 L 707.043 166.402 C 706.276 172.545 704.684 178.478 702.376 184.068 L 713.257 197.055 L 696.283 219.356 L 680.868 212.33 C 676.093 216.042 670.8 219.153 665.081 221.532 L 663.597 238.401 L 635.82 242.172 L 629.892 226.308 C 623.748 225.541 617.819 223.949 612.226 221.641 L 599.239 232.524 L 576.936 215.549 L 583.964 200.132 C 580.252 195.359 577.144 190.064 574.76 184.348 L 557.894 182.861 L 554.125 155.086 L 569.987 149.159 C 570.754 143.016 572.344 137.081 574.654 131.491 L 563.771 118.505 L 580.745 96.203 L 596.16 103.231 C 600.935 99.518 606.229 96.406 611.947 94.026 L 613.433 77.159 L 641.205 73.39 L 647.137 89.252 Z " fill-rule="evenodd" fill="rgb(239,238,237)"/><path d=" M 388.804 202.914 C 376.402 203.356 367.584 214.941 370.459 227.013 C 372.587 235.943 380.903 242.27 390.075 241.935 C 402.469 241.482 411.276 229.909 408.409 217.844 C 406.287 208.916 397.975 202.586 388.804 202.914 Z  M 394.212 178.052 C 398.197 178.552 402.049 179.583 405.678 181.08 L 414.106 174.017 L 428.584 185.036 L 424.023 195.042 C 426.433 198.14 428.454 201.578 429.998 205.289 L 440.948 206.254 L 443.394 224.282 L 433.098 228.131 C 432.6 232.12 431.567 235.97 430.067 239.599 L 437.132 248.029 L 426.115 262.506 L 416.108 257.945 C 413.008 260.356 409.57 262.373 405.858 263.919 L 404.896 274.87 L 386.864 277.317 L 383.017 267.018 C 379.029 266.52 375.18 265.488 371.549 263.989 L 363.119 271.055 L 348.641 260.034 L 353.205 250.027 C 350.794 246.929 348.777 243.491 347.229 239.78 L 336.28 238.816 L 333.833 220.787 L 344.131 216.94 C 344.629 212.952 345.66 209.099 347.16 205.47 L 340.095 197.04 L 351.113 182.563 L 361.121 187.126 C 364.219 184.715 367.657 182.696 371.368 181.151 L 372.333 170.201 L 390.361 167.755 L 394.212 178.052 Z " fill-rule="evenodd" fill="rgb(229,229,228)"/><path d=" M 545.491 309.831 C 545.491 309.831 548.168 310.811 552.008 314.141 C 555.762 317.416 560.632 323.598 562.114 332.716 C 562.811 337.214 562.69 342.379 560.996 347.516 C 559.291 352.606 556.303 357.789 551.676 361.779 C 549.43 363.829 546.782 365.546 543.89 366.875 C 541.015 368.248 537.856 369.193 534.567 369.6 C 527.999 370.563 520.915 369.265 514.72 365.935 C 508.578 362.5 503.675 357.222 500.957 351.164 C 499.531 348.171 498.632 344.999 498.244 341.837 C 497.809 338.685 497.835 335.527 498.356 332.53 C 499.234 326.484 502 321.177 505.377 317.004 C 508.8 312.814 513.09 309.936 517.26 308.109 C 525.747 304.459 533.576 305.244 538.352 306.651 C 543.225 308.099 545.491 309.831 545.491 309.831 C 545.396 310.035 542.993 308.54 538.176 307.334 C 533.447 306.16 525.861 305.623 517.779 309.28 C 513.807 311.108 509.751 313.919 506.538 317.954 C 503.369 321.975 500.787 327.049 500.005 332.785 C 499.53 335.63 499.527 338.621 499.956 341.603 C 500.34 344.594 501.205 347.593 502.565 350.417 C 505.157 356.137 509.791 361.098 515.59 364.348 C 521.448 367.489 528.119 368.731 534.333 367.843 C 537.445 367.471 540.439 366.591 543.166 365.306 C 545.91 364.064 548.431 362.454 550.574 360.526 C 554.992 356.783 557.883 351.879 559.571 347.047 C 561.247 342.171 561.438 337.238 560.847 332.907 C 559.589 324.125 555.06 318.016 551.528 314.658 C 547.923 311.243 545.369 310.021 545.491 309.831 Z " fill="rgb(229,229,228)"/><path d=" M 579.157 284.413 C 579.132 284.421 579.214 284.057 579.4 283.332 C 579.609 282.534 579.89 281.463 580.255 280.079 C 581.071 277.104 582.245 272.818 583.767 267.256 L 583.905 267.589 C 577.284 264.006 568.578 259.295 558.046 253.597 L 558.611 253.499 C 555.06 257.545 551.115 262.039 546.893 266.848 L 546.683 267.089 L 546.368 267.013 C 540.563 265.602 534.178 264.827 527.454 265.011 L 527.095 265.021 L 526.919 264.704 C 524.217 259.869 521.295 254.632 518.252 249.188 L 518.998 249.493 C 510.115 252.105 500.691 254.877 490.793 257.788 L 491.304 257.06 C 491.65 262.551 492.03 268.598 492.421 274.798 L 492.45 275.248 L 492.062 275.483 C 487.011 278.534 481.849 282.555 477.286 287.374 L 476.962 287.718 L 476.504 287.588 C 471.209 286.078 465.368 284.416 459.421 282.722 L 460.35 282.333 C 455.918 290.436 451.14 299.175 446.242 308.13 L 446.061 307.094 C 450.208 310.755 454.76 314.778 459.374 318.852 L 459.762 319.197 L 459.638 319.704 C 458.216 325.467 457.426 331.962 457.601 338.531 L 457.614 339.06 L 457.149 339.318 C 452.282 342.021 446.974 344.969 441.613 347.949 L 442.032 346.925 C 444.641 355.861 447.439 365.438 450.273 375.148 L 449.354 374.502 C 454.958 374.159 461.005 373.79 467.095 373.416 L 467.642 373.384 L 467.924 373.852 C 471.028 379.007 475.043 384.128 479.755 388.604 L 479.761 388.609 L 479.764 388.614 C 479.875 389.017 479.521 387.713 480.013 389.522 L 480.008 389.538 L 479.998 389.572 L 479.98 389.639 L 479.941 389.773 L 479.864 390.042 L 479.711 390.58 L 479.402 391.655 L 478.787 393.802 L 477.559 398.085 C 476.743 400.934 475.93 403.773 475.12 406.599 L 474.686 405.557 C 483.397 410.338 491.991 415.056 500.464 419.704 L 499.362 419.896 C 503.325 415.419 507.251 410.987 511.138 406.599 L 511.496 406.195 L 512.018 406.324 C 518.236 407.865 524.586 408.543 530.838 408.393 L 531.37 408.38 L 531.627 408.843 C 534.539 414.101 537.405 419.278 540.236 424.389 L 539.242 423.979 C 548.88 421.179 558.294 418.447 567.473 415.781 L 566.876 416.63 C 566.515 410.611 566.162 404.7 565.815 398.89 L 565.787 398.397 L 566.206 398.146 C 571.758 394.809 576.731 390.79 581.013 386.309 L 581.341 385.965 L 581.795 386.095 C 587.648 387.783 593.323 389.417 598.863 391.014 L 597.996 391.376 C 602.992 382.319 607.704 373.769 612.192 365.628 L 612.341 366.48 C 607.672 362.329 603.29 358.432 599.066 354.674 L 598.772 354.413 L 598.865 354.031 C 600.504 347.447 601.103 341.132 600.98 335.145 L 600.972 334.783 L 601.287 334.612 C 606.945 331.497 612.04 328.692 616.856 326.043 L 616.601 326.66 C 613.462 315.711 610.787 306.382 608.498 298.396 L 608.912 298.687 C 601.824 299.074 596.01 299.392 591.166 299.656 L 590.988 299.665 L 590.899 299.514 C 587.588 293.969 584.478 290.281 582.376 287.905 C 581.333 286.78 580.536 285.92 579.95 285.289 C 579.385 284.702 579.132 284.419 579.157 284.413 C 579.181 284.408 579.491 284.671 580.059 285.182 C 580.632 285.722 581.501 286.543 582.596 287.704 C 584.779 290.023 587.981 293.672 591.398 299.214 L 591.132 299.074 C 595.971 298.747 601.779 298.355 608.86 297.877 L 609.183 297.856 L 609.276 298.169 C 611.637 306.136 614.393 315.44 617.628 326.361 L 617.75 326.769 L 617.373 326.978 C 612.579 329.66 607.5 332.499 601.864 335.651 L 602.171 335.116 C 602.332 341.2 601.762 347.63 600.128 354.343 L 599.928 353.701 C 604.17 357.438 608.571 361.313 613.26 365.442 L 613.674 365.807 L 613.408 366.294 C 608.953 374.453 604.275 383.021 599.317 392.101 L 599.03 392.627 L 598.449 392.462 C 592.903 390.885 587.222 389.269 581.365 387.6 L 582.147 387.388 C 577.784 391.983 572.712 396.107 567.044 399.535 L 567.434 398.792 C 567.796 404.599 568.165 410.51 568.538 416.529 L 568.58 417.193 L 567.94 417.379 C 558.766 420.064 549.357 422.817 539.725 425.636 L 539.064 425.83 L 538.728 425.226 C 535.889 420.12 533.014 414.947 530.094 409.694 L 530.881 410.146 C 524.477 410.307 517.967 409.622 511.592 408.05 L 512.47 407.776 C 508.587 412.167 504.664 416.604 500.704 421.085 L 500.23 421.622 L 499.602 421.276 C 491.128 416.631 482.53 411.919 473.816 407.144 L 473.184 406.796 L 473.382 406.101 C 474.191 403.275 475.004 400.436 475.82 397.586 L 477.046 393.302 L 477.662 391.157 L 477.97 390.082 L 478.124 389.545 L 478.201 389.277 L 478.24 389.141 L 478.258 389.074 L 478.267 389.04 L 478.272 389.022 C 478.765 390.831 478.408 389.522 478.516 389.925 L 478.512 389.922 L 478.506 389.915 C 473.674 385.325 469.555 380.07 466.377 374.786 L 467.204 375.22 C 461.116 375.591 455.067 375.956 449.465 376.297 L 448.747 376.341 L 448.544 375.653 C 445.718 365.94 442.93 356.359 440.33 347.421 L 440.132 346.739 L 440.751 346.396 C 446.118 343.425 451.429 340.483 456.3 337.787 L 455.849 338.572 C 455.681 331.843 456.501 325.191 457.968 319.291 L 458.233 320.14 C 453.628 316.057 449.083 312.025 444.945 308.356 L 444.44 307.908 L 444.763 307.319 C 449.685 298.375 454.485 289.65 458.936 281.558 L 459.246 280.991 L 459.865 281.169 C 465.809 282.882 471.643 284.563 476.934 286.086 L 476.153 286.298 C 480.835 281.386 486.121 277.297 491.288 274.202 L 490.929 274.888 C 490.563 268.688 490.205 262.638 489.882 257.146 L 489.848 256.577 L 490.393 256.418 C 500.304 253.555 509.742 250.827 518.636 248.256 L 519.134 248.112 L 519.38 248.561 C 522.392 254.025 525.286 259.277 527.959 264.128 L 527.425 263.821 C 534.261 263.676 540.741 264.505 546.622 265.981 L 546.098 266.144 C 550.359 261.369 554.34 256.906 557.924 252.891 L 558.17 252.615 L 558.488 252.793 C 568.952 258.612 577.604 263.421 584.183 267.081 L 584.387 267.196 L 584.322 267.414 C 582.686 272.893 581.426 277.113 580.551 280.041 C 580.121 281.427 579.792 282.498 579.543 283.298 C 579.312 284.031 579.181 284.406 579.157 284.413 Z " fill="rgb(229,229,228)"/><path d=" M 648.275 313.932 L 622.659 212.063 L 726.885 210.341 L 648.275 313.932 Z " fill="rgb(255,179,0)"/><path d=" M 886.251 374.915 L 850.45 422.095 L 659.655 277.312 L 695.456 230.131 L 886.251 374.915 Z " fill="rgb(255,179,0)"/><path d=" M 834.731 574.341 L 847.974 604.358 C 847.974 604.358 821.907 627.896 823.814 633.683 L 882.939 610.102 L 864.229 562.484 L 834.731 574.341 Z " fill="rgb(240,99,109)"/><path d=" M 823.814 633.683 C 823.747 633.48 823.714 633.255 823.714 633.008 C 823.708 626.27 847.974 604.358 847.974 604.358 L 847.974 604.358 L 847.974 604.358 L 834.731 574.341 L 864.229 562.484 L 882.939 610.102 L 823.814 633.683 Z " fill="rgb(0,171,147)"/><path d=" M 882.939 610.102 L 880.866 605.376 L 824.952 629.752 C 824.952 629.752 822.777 631.947 823.814 633.683 L 882.939 610.102 Z " fill="rgb(44,61,67)"/><path d=" M 938.851 616.862 L 955.424 645.175 C 955.424 645.175 932.209 671.531 934.763 677.061 L 990.818 646.899 L 966.805 601.721 L 938.851 616.862 Z " fill="rgb(240,99,109)"/><path d=" M 934.763 677.061 C 934.631 676.776 934.568 676.434 934.568 676.043 C 934.55 668.873 955.424 645.175 955.424 645.175 L 955.424 645.175 L 955.424 645.175 L 945.387 628.028 L 974.542 616.279 L 990.818 646.899 L 934.763 677.061 Z " fill="rgb(0,171,147)"/><path d=" M 990.818 646.899 L 988.219 642.441 L 935.447 673.027 C 935.447 673.027 933.536 675.455 934.763 677.063 L 990.818 646.899 Z " fill="rgb(44,61,67)"/><path d=" M 866.523 219.697 L 830.19 222.527 L 828.984 202.186 C 828.984 202.186 814.329 201.972 812.135 187.657 C 809.941 173.343 807.798 140.065 807.798 140.065 C 823.393 130.597 842.894 130.312 858.759 139.319 L 861.115 140.656 L 866.523 219.697 Z " fill="rgb(248,180,156)"/><path d=" M 828.931 201.982 C 828.931 201.982 838.097 201.446 846.878 194.04 C 846.878 194.04 843.702 205.299 829.212 206.019 L 828.931 201.982 Z " fill="rgb(246,152,118)"/><path d=" M 861.436 155.757 C 861.666 155.617 870.88 151.458 871.944 161.306 C 873.01 171.153 862.902 170.192 862.855 169.911 C 862.809 169.631 861.436 155.757 861.436 155.757 Z " fill="rgb(248,180,156)"/><path d=" M 865.46 165.855 C 865.499 165.818 865.645 165.956 865.95 166.058 C 866.245 166.156 866.742 166.194 867.235 165.946 C 868.234 165.451 868.931 163.704 868.787 161.924 C 868.715 161.025 868.435 160.192 868.041 159.52 C 867.661 158.832 867.142 158.38 866.608 158.343 C 866.074 158.279 865.738 158.632 865.646 158.923 C 865.545 159.213 865.627 159.402 865.578 159.425 C 865.552 159.453 865.348 159.283 865.384 158.868 C 865.403 158.667 865.493 158.423 865.704 158.208 C 865.921 157.991 866.257 157.855 866.626 157.855 C 867.39 157.826 868.149 158.45 868.583 159.188 C 869.058 159.925 869.394 160.859 869.474 161.869 C 869.628 163.86 868.812 165.826 867.432 166.392 C 866.76 166.647 866.159 166.501 865.834 166.301 C 865.503 166.091 865.428 165.876 865.46 165.855 Z " fill="rgb(246,152,118)"/><path d=" M 813.987 162.599 C 814.099 163.685 815.113 164.485 816.251 164.387 C 817.385 164.288 818.214 163.33 818.102 162.243 C 817.988 161.157 816.974 160.356 815.838 160.454 C 814.701 160.551 813.871 161.511 813.987 162.599 Z " fill="rgb(44,61,67)"/><path d=" M 813.348 159.856 C 813.639 160.088 815.028 158.722 817.233 158.417 C 819.432 158.082 821.207 158.989 821.408 158.685 C 821.509 158.549 821.184 158.103 820.407 157.689 C 819.641 157.277 818.389 156.947 817.018 157.145 C 815.645 157.346 814.563 158.013 813.972 158.624 C 813.368 159.239 813.206 159.755 813.348 159.856 Z " fill="rgb(44,61,67)"/><path d=" M 835.417 160.119 C 835.531 161.205 836.545 162.005 837.681 161.907 C 838.817 161.81 839.647 160.851 839.532 159.764 C 839.42 158.677 838.406 157.876 837.27 157.974 C 836.134 158.072 835.303 159.032 835.417 160.119 Z " fill="rgb(44,61,67)"/><path d=" M 835.066 157.222 C 835.357 157.453 836.751 156.086 838.953 155.783 C 841.15 155.448 842.926 156.354 843.129 156.05 C 843.228 155.914 842.905 155.469 842.126 155.055 C 841.361 154.642 840.11 154.312 838.737 154.511 C 837.366 154.711 836.282 155.379 835.69 155.989 C 835.087 156.605 834.926 157.119 835.066 157.222 Z " fill="rgb(44,61,67)"/><path d=" M 829.366 174.688 C 829.361 174.562 827.955 174.518 825.696 174.546 C 825.126 174.567 824.578 174.53 824.429 174.16 C 824.24 173.771 824.39 173.132 824.57 172.439 C 824.907 171.003 825.26 169.497 825.631 167.92 C 827.085 161.495 828.053 156.243 827.794 156.187 C 827.532 156.13 826.145 161.293 824.692 167.718 C 824.348 169.301 824.016 170.81 823.704 172.253 C 823.582 172.923 823.316 173.7 823.722 174.502 C 823.933 174.902 824.39 175.149 824.764 175.195 C 825.141 175.255 825.458 175.216 825.738 175.193 C 827.989 175 829.375 174.815 829.366 174.688 Z " fill="rgb(44,61,67)"/><path d=" M 836.067 175.301 C 835.704 175.331 836.036 177.723 834.229 179.709 C 832.423 181.699 829.837 181.789 829.865 182.126 C 829.852 182.281 830.499 182.511 831.578 182.389 C 832.639 182.277 834.132 181.721 835.239 180.506 C 836.343 179.29 836.684 177.825 836.628 176.832 C 836.578 175.819 836.228 175.264 836.067 175.301 Z " fill="rgb(44,61,67)"/><path d=" M 833.283 148.666 C 833.584 149.235 835.745 148.641 838.373 148.589 C 841.002 148.485 843.192 148.948 843.46 148.363 C 843.579 148.084 843.135 147.571 842.211 147.11 C 841.294 146.648 839.883 146.285 838.306 146.33 C 836.73 146.379 835.345 146.825 834.457 147.341 C 833.561 147.857 833.15 148.395 833.283 148.666 Z " fill="rgb(44,61,67)"/><path d=" M 813.26 153.364 C 813.719 153.811 815.164 153.077 816.985 152.797 C 818.799 152.452 820.404 152.659 820.686 152.085 C 820.807 151.809 820.493 151.342 819.751 150.964 C 819.019 150.585 817.852 150.355 816.602 150.57 C 815.353 150.786 814.331 151.392 813.768 151.994 C 813.195 152.599 813.054 153.144 813.26 153.364 Z " fill="rgb(44,61,67)"/><path d=" M 799.538 131.995 C 799.135 130.239 799.528 128.239 800.827 126.991 C 802.127 125.743 804.38 125.494 805.744 126.671 C 804.734 124.37 806.304 121.334 808.763 120.827 C 811.081 120.35 813.324 121.836 815.671 122.138 C 817.961 122.433 820.255 121.577 822.258 120.424 C 824.259 119.271 826.078 117.812 828.115 116.726 C 832.366 114.459 837.52 113.944 842.136 115.324 C 846.751 116.706 850.775 119.966 853.083 124.195 C 856.08 122.774 859.868 123.865 862.176 126.249 C 864.482 128.634 865.47 132.054 865.544 135.37 C 865.594 137.612 865.256 139.832 864.807 142.036 C 864.835 142.22 864.878 142.398 864.902 142.583 C 865.862 150.489 866.273 159.875 862.915 160.4 C 857.065 161.314 856.91 150.07 856.91 150.07 C 849.322 148.302 850.486 137.144 848.457 135.762 C 846.429 134.379 842.13 131.107 828.146 140.926 C 822.717 144.738 814.927 145.739 810.544 145.373 L 810.16 145.349 L 810.069 145.343 L 809.938 145.311 C 808.536 145.149 807.156 144.809 805.844 144.215 C 804.357 143.544 802.953 142.549 802.161 141.123 C 801.371 139.696 801.324 137.784 802.354 136.518 C 801.045 135.279 799.941 133.751 799.538 131.995 Z " fill="rgb(44,61,67)"/><path d=" M 828.931 214.649 L 830.552 271.577 L 865.971 195.326 L 865.085 188.266 L 828.931 214.649 Z " fill="rgb(229,229,228)"/><path d=" M 852.43 384.83 C 851.131 385.255 777.386 459.837 779.043 473.234 C 780.7 486.63 833.197 585.846 833.197 585.846 L 870.651 567.378 L 835.517 480.399 L 835.975 475.002 L 878.916 439.817 L 876.623 383.229 L 852.43 384.83 Z " fill="rgb(44,61,67)"/><path d=" M 868.33 399.528 C 869.189 400.828 881.959 517.999 885.382 524.063 C 888.806 530.128 940.102 630.157 940.102 630.157 L 978.186 614.812 L 931.693 504.872 L 936.99 400.821 L 934.122 371.439 L 876.623 383.229 L 868.33 399.528 Z " fill="rgb(44,61,67)"/><path d=" M 884.715 522 C 884.685 522.005 884.601 521.6 884.465 520.828 C 884.325 519.977 884.142 518.853 883.912 517.445 C 883.451 514.414 882.811 510.178 882.023 504.98 C 880.497 494.368 878.409 479.852 876.102 463.817 C 873.887 447.762 871.882 433.232 870.416 422.611 C 869.737 417.399 869.184 413.151 868.787 410.112 C 868.619 408.696 868.485 407.565 868.386 406.706 C 868.302 405.928 868.271 405.516 868.301 405.513 C 868.328 405.508 868.412 405.911 868.547 406.685 C 868.688 407.534 868.872 408.66 869.102 410.067 C 869.563 413.097 870.202 417.333 870.991 422.531 C 872.517 433.143 874.605 447.659 876.912 463.703 C 879.127 479.753 881.132 494.281 882.598 504.902 C 883.277 510.114 883.832 514.363 884.227 517.401 C 884.393 518.818 884.527 519.95 884.63 520.807 C 884.713 521.585 884.741 521.997 884.715 522 Z " fill="rgb(67,96,105)"/><path d=" M 930.725 501.511 C 930.944 501.573 929.953 505.73 928.513 510.797 C 927.071 515.864 925.728 519.92 925.509 519.858 C 925.292 519.798 926.285 515.64 927.723 510.571 C 929.164 505.507 930.508 501.449 930.725 501.511 Z " fill="rgb(67,96,105)"/><path d=" M 936.487 528.048 C 936.412 528.104 935.511 527.072 934.408 525.159 C 933.302 523.252 932.073 520.418 931.363 517.112 C 930.663 513.802 930.63 510.713 930.86 508.523 C 931.087 506.325 931.489 505.016 931.58 505.036 C 931.855 505.055 930.74 510.459 932.165 516.943 C 933.506 523.438 936.727 527.919 936.487 528.048 Z " fill="rgb(67,96,105)"/><path d=" M 823.234 467.777 C 823.309 467.586 826.388 468.866 829.382 471.615 C 832.394 474.343 833.951 477.294 833.768 477.386 C 833.563 477.521 831.746 474.857 828.83 472.219 C 825.938 469.56 823.115 467.996 823.234 467.777 Z " fill="rgb(67,96,105)"/><path d=" M 829.015 464.316 C 829.162 464.163 831.042 465.823 832.645 468.437 C 834.263 471.04 834.908 473.465 834.704 473.528 C 834.48 473.61 833.514 471.383 831.948 468.866 C 830.399 466.341 828.84 464.48 829.015 464.316 Z " fill="rgb(67,96,105)"/><path d=" M 834.106 293.383 L 843.534 340.154 L 851.206 405.422 C 851.206 405.422 882.836 401.006 896.316 396.739 C 911.952 391.789 945.973 387.574 945.973 387.574 L 940.239 393.249 C 952.41 389.84 960.161 378.224 960.161 378.224 C 939.181 358.765 921.284 318.736 921.284 318.736 L 905.331 239.526 C 905.331 239.526 902.908 228.352 901.447 223.383 C 899.985 218.414 875.759 202.385 872.403 200.359 L 870.294 199.362 L 869.621 193.013 L 867.125 191.52 L 840.909 215.336 C 835.814 219.974 832.562 226.292 831.785 233.137 C 830.965 240.355 830.231 250.706 830.642 262.933 C 830.954 272.214 834.106 293.383 834.106 293.383 Z " fill="rgb(0,171,147)"/><path d=" M 852.104 212.361 C 852.104 212.361 838.253 219.785 835.851 226.088 C 833.45 232.389 840.59 301.48 840.59 301.48 L 790.855 302.414 L 790.698 332.05 C 790.698 332.05 869.7 338.293 872.775 334.021 C 876.931 328.247 881.762 274.261 881.762 274.261 L 883.556 235.415 C 883.556 235.415 878.975 205.793 852.104 212.361 Z " fill="rgb(0,171,147)"/><path d=" M 857.491 342.309 C 852.78 342.309 848.279 341.688 843.534 340.154 L 843.534 340.154 L 842.601 335.398 C 842.601 335.398 851.645 336.048 858.712 336.048 C 860.841 336.048 862.788 335.989 864.257 335.836 C 865.723 335.683 867.271 335.576 868.662 335.134 C 870.947 334.894 872.406 334.533 872.775 334.021 C 873.957 332.38 875.193 326.845 876.357 319.76 C 878.335 310.102 879.525 298.058 880.128 290.598 C 880.379 288.277 880.606 286.096 880.807 284.129 C 882.333 288.673 884.521 296.702 883.845 301.148 C 883.138 305.775 881.98 310.344 881.713 315.016 C 881.406 320.395 882.252 326.02 880.224 331.012 C 877.576 337.529 870.446 341.363 863.443 342.015 C 861.4 342.204 859.428 342.309 857.491 342.309 Z " fill="rgb(67,96,105)"/><path d=" M 868.662 335.134 C 869.421 334.892 870.132 334.55 870.759 334.045 C 872.284 332.818 873.151 330.963 873.833 329.128 C 874.788 326.564 875.625 323.325 876.357 319.76 C 875.193 326.845 873.957 332.38 872.775 334.021 C 872.406 334.533 870.947 334.894 868.662 335.134 Z  M 880.128 290.598 C 880.471 286.354 880.624 283.592 880.624 283.592 C 880.683 283.765 880.745 283.944 880.807 284.129 C 880.606 286.096 880.379 288.277 880.128 290.598 Z " fill="rgb(187,74,82)"/><path d=" M 883.471 239.612 C 883.486 239.612 883.486 239.851 883.473 240.318 C 883.453 240.819 883.428 241.504 883.394 242.381 C 883.303 244.235 883.175 246.901 883.012 250.316 C 882.829 253.774 882.611 257.985 882.353 262.868 C 882.056 267.759 881.892 273.34 881.293 279.481 C 880.758 285.626 880.113 292.351 879.344 299.563 C 878.543 306.774 877.687 314.477 876.316 322.537 C 875.926 324.549 875.616 326.58 874.95 328.629 C 874.266 330.648 873.077 332.586 871.363 334.001 C 869.674 335.384 867.434 336.368 865.175 336.211 C 862.981 336.26 860.783 336.203 858.56 336.177 C 849.683 335.958 840.507 335.503 831.111 334.994 C 816.992 334.213 803.386 333.333 790.671 332.441 L 790.305 332.414 L 790.308 332.047 C 790.37 321.523 790.431 311.606 790.484 302.459 L 790.488 302.116 L 790.827 302.11 C 810.687 301.682 827.222 301.328 838.834 301.078 C 844.591 300.979 849.126 300.899 852.265 300.845 C 853.784 300.83 854.962 300.819 855.801 300.811 C 856.601 300.809 857.016 300.837 857.016 300.837 C 857.016 300.837 856.603 300.884 855.804 300.922 C 854.965 300.954 853.787 301 852.27 301.06 C 849.133 301.16 844.599 301.304 838.845 301.486 C 827.234 301.808 810.702 302.263 790.845 302.812 L 791.188 302.463 C 791.157 311.609 791.124 321.526 791.088 332.052 L 790.726 331.66 C 803.438 332.529 817.044 333.397 831.155 334.176 C 840.546 334.685 849.719 335.145 858.58 335.376 C 860.792 335.405 862.99 335.464 865.15 335.418 C 867.277 335.575 869.279 334.672 870.865 333.397 C 872.45 332.093 873.569 330.297 874.223 328.377 C 874.855 326.453 875.185 324.386 875.572 322.403 C 876.959 314.389 877.839 306.687 878.668 299.49 C 879.468 292.286 880.144 285.567 880.717 279.429 C 881.352 273.296 881.554 267.72 881.897 262.834 C 882.207 257.958 882.473 253.751 882.692 250.295 C 882.924 246.886 883.104 244.224 883.229 242.371 C 883.298 241.496 883.35 240.812 883.389 240.313 C 883.43 239.849 883.456 239.611 883.471 239.612 Z " fill="rgb(67,96,105)"/><path d=" M 800.46 331.615 C 800.235 331.613 800.086 325.178 800.127 317.243 C 800.17 309.304 800.387 302.872 800.612 302.874 C 800.839 302.874 800.989 309.309 800.947 317.247 C 800.904 325.181 800.687 331.615 800.46 331.615 Z " fill="rgb(44,61,67)"/><path d=" M 795.187 307.376 C 795.091 307.322 795.589 306.769 796.533 307.082 C 796.968 307.219 797.497 307.706 797.541 308.398 C 797.599 309.053 797.274 309.82 796.531 310.174 C 795.78 310.499 794.996 310.249 794.531 309.805 C 794.032 309.345 793.944 308.677 794.046 308.24 C 794.268 307.301 794.923 307.102 794.946 307.197 C 795.023 307.29 794.634 307.636 794.619 308.31 C 794.614 308.638 794.727 309.007 795.032 309.242 C 795.329 309.489 795.824 309.598 796.193 309.428 C 796.56 309.265 796.795 308.814 796.787 308.441 C 796.795 308.063 796.568 307.774 796.291 307.608 C 795.718 307.267 795.238 307.482 795.187 307.376 Z " fill="rgb(44,61,67)"/><path d=" M 905.55 246.314 C 905.55 246.314 931.427 280.146 934.579 289.366 C 937.731 298.587 935.296 311.825 930.026 318.153 C 924.755 324.484 920.506 321.911 920.506 321.911 L 905.55 246.314 Z " fill="rgb(0,171,147)"/><path d=" M 919.58 319.195 C 919.618 319.419 916.714 320.103 913.095 320.723 C 909.476 321.345 906.509 321.666 906.472 321.443 C 906.433 321.221 909.337 320.537 912.958 319.915 C 916.575 319.295 919.543 318.971 919.58 319.195 Z " fill="rgb(44,61,67)"/><path d=" M 924.554 344.14 C 924.608 344.125 924.856 344.762 925.258 345.926 C 925.65 347.092 926.244 348.771 927.011 350.828 C 928.537 354.948 930.89 360.549 933.962 366.508 C 937.042 372.461 940.232 377.634 942.655 381.302 C 943.863 383.139 944.86 384.615 945.557 385.628 C 946.249 386.645 946.613 387.227 946.566 387.259 C 946.522 387.293 946.075 386.778 945.301 385.816 C 944.524 384.858 943.45 383.429 942.176 381.629 C 939.622 378.029 936.334 372.874 933.232 366.883 C 930.144 360.889 927.858 355.211 926.466 351.022 C 925.764 348.93 925.251 347.217 924.951 346.019 C 924.644 344.824 924.5 344.156 924.554 344.14 Z " fill="rgb(44,61,67)"/><path d=" M 945.849 384.415 C 945.72 384.415 945.591 384.401 945.462 384.371 C 944.772 384.208 944.269 383.637 943.83 383.075 C 943.466 382.53 943.073 381.937 942.655 381.302 C 940.232 377.634 937.042 372.461 933.962 366.508 C 931.069 360.899 928.815 355.605 927.287 351.566 C 927.045 350.802 926.814 350.036 926.592 349.266 L 926.312 348.149 C 930.413 355.458 934.628 362.908 940.875 368.494 C 943.081 370.466 945.547 372.216 947.23 374.65 C 948.912 377.084 949.638 380.488 948.042 382.977 C 947.549 383.743 946.726 384.415 945.849 384.415 Z " fill="rgb(67,96,105)"/><path d=" M 943.83 383.075 C 943.81 383.051 943.791 383.026 943.771 383.002 C 936.474 373.609 930.867 362.908 927.287 351.566 C 928.815 355.605 931.069 360.899 933.962 366.508 C 937.042 372.461 940.232 377.634 942.655 381.302 C 943.073 381.937 943.466 382.53 943.83 383.075 Z " fill="rgb(67,96,105)"/><path d=" M 922.896 321.784 L 920.525 318.377 L 907.724 251.415 L 910.254 260.8 C 913.542 274.271 917.298 285.427 922.857 297.764 C 924.651 301.739 926.627 305.736 927.155 310.066 C 927.679 314.397 926.44 319.241 922.896 321.784 Z " fill="rgb(67,96,105)"/><path d=" M 858.839 209.354 C 858.694 209.166 861.018 207.189 863.661 204.536 C 866.316 201.89 868.291 199.569 868.479 199.713 C 868.653 199.84 866.939 202.424 864.241 205.116 C 861.551 207.814 858.965 209.528 858.839 209.354 Z " fill="rgb(44,61,67)"/><path d=" M 856.224 215.087 C 856.265 215.224 854.73 215.686 852.44 216.819 C 850.151 217.942 847.154 219.858 844.412 222.62 C 841.682 225.394 839.8 228.416 838.705 230.717 C 837.598 233.021 837.157 234.56 837.018 234.521 C 836.965 234.506 837.03 234.111 837.196 233.401 C 837.351 232.691 837.68 231.685 838.176 230.481 C 839.157 228.068 841.02 224.899 843.831 222.044 C 846.65 219.202 849.797 217.304 852.197 216.293 C 853.395 215.782 854.396 215.441 855.106 215.279 C 855.814 215.103 856.208 215.033 856.224 215.087 Z " fill="rgb(44,61,67)"/><path d=" M 925.718 328.515 C 925.694 328.528 925.555 328.304 925.312 327.865 C 925.034 327.344 924.691 326.704 924.275 325.924 C 923.35 324.113 922.094 321.658 920.552 318.638 L 920.537 318.609 L 920.529 318.573 C 918.911 311.157 916.622 300.344 914.133 288.316 C 911.834 276.982 909.756 266.725 908.222 259.159 C 907.521 255.507 906.947 252.51 906.524 250.305 C 906.354 249.33 906.216 248.532 906.101 247.889 C 906.015 247.334 905.982 247.04 906.012 247.035 C 906.038 247.028 906.124 247.311 906.264 247.855 C 906.416 248.49 906.606 249.278 906.837 250.239 C 907.322 252.433 907.985 255.413 908.79 259.042 C 910.385 266.595 912.546 276.833 914.934 288.151 C 917.424 300.177 919.613 311.012 921.069 318.46 L 921.048 318.393 C 922.497 321.459 923.678 323.952 924.546 325.79 C 924.91 326.596 925.209 327.258 925.452 327.796 C 925.65 328.257 925.743 328.503 925.718 328.515 Z " fill="rgb(44,61,67)"/><path d=" M 839.732 301.454 C 839.676 301.459 839.544 300.585 839.354 299.002 C 839.165 297.271 838.92 295.012 838.623 292.288 C 838.044 286.615 837.299 278.774 836.525 270.108 C 835.753 261.44 835.097 253.589 834.666 247.903 C 834.473 245.171 834.317 242.905 834.194 241.168 C 834.103 239.576 834.077 238.695 834.134 238.69 C 834.191 238.687 834.323 239.56 834.513 241.144 C 834.7 242.874 834.945 245.135 835.242 247.858 C 835.823 253.53 836.57 261.371 837.342 270.038 C 838.114 278.701 838.768 286.55 839.201 292.234 C 839.392 294.968 839.55 297.236 839.671 298.972 C 839.764 300.564 839.789 301.447 839.732 301.454 Z " fill="rgb(44,61,67)"/><path d=" M 791.477 305.881 C 791.477 305.881 780.75 297.743 778.133 297.252 C 776.129 296.876 764.157 297.076 758.65 297.19 C 756.533 297.234 754.675 298.897 754.7 301.015 L 754.737 301.403 C 755.168 303.638 757.354 304.123 757.354 304.123 C 757.354 304.123 754.501 304.942 754.455 308.05 C 754.409 311.16 758.172 311.813 758.172 311.813 C 758.172 311.813 757.947 311.98 757.635 312.291 C 755.578 314.345 756.623 317.871 759.455 318.516 L 761.151 318.901 C 761.151 318.901 758.858 319.856 758.89 321.99 C 758.952 326.082 768.153 326.866 768.153 326.866 C 768.153 326.866 790.894 330.465 791.386 330.302 C 791.877 330.137 791.477 305.881 791.477 305.881 Z " fill="rgb(248,180,156)"/><path d=" M 760.766 292.351 C 760.867 293.7 761.184 296.57 763.477 297.871 L 776.152 297.374 C 776.152 297.374 766.715 294.118 765.371 292.508 C 764.901 291.943 764.253 291.244 763.562 290.738 C 762.361 289.859 760.657 290.866 760.766 292.351 Z " fill="rgb(248,180,156)"/><path d=" M 770.188 297.25 C 770.193 297.471 767.603 297.719 764.403 297.658 C 761.217 297.601 758.632 297.482 758.626 297.25 C 758.623 297.03 761.213 296.782 764.414 296.84 C 767.599 296.899 770.184 297.017 770.188 297.25 Z " fill="rgb(246,152,118)"/><path d=" M 767.341 304.325 C 767.364 304.542 765.129 304.937 762.346 304.834 C 759.561 304.74 757.359 304.188 757.398 303.971 C 757.436 303.741 759.649 303.924 762.374 304.017 C 765.098 304.118 767.322 304.092 767.341 304.325 Z " fill="rgb(246,152,118)"/><path d=" M 773.79 303.422 C 773.977 303.538 773.734 304.227 773.019 304.689 C 772.302 305.154 771.574 305.094 771.547 304.874 C 771.506 304.647 772.017 304.371 772.572 304.002 C 773.137 303.644 773.597 303.292 773.79 303.422 Z " fill="rgb(246,152,118)"/><path d=" M 768.737 312.353 C 768.719 312.579 766.274 312.683 763.275 312.584 C 760.276 312.486 757.844 312.221 757.842 311.996 C 757.839 311.769 760.284 311.666 763.303 311.766 C 766.32 311.864 768.753 312.128 768.737 312.353 Z " fill="rgb(246,152,118)"/><path d=" M 775.979 308.966 C 776.08 308.937 776.277 309.191 776.338 309.691 C 776.401 310.177 776.282 310.915 775.791 311.542 C 775.298 312.167 774.609 312.456 774.121 312.51 C 773.621 312.567 773.328 312.437 773.331 312.331 C 773.324 312.109 774.423 311.967 775.148 311.036 C 775.882 310.114 775.762 309.014 775.979 308.966 Z " fill="rgb(246,152,118)"/><path d=" M 770.65 320.215 C 770.623 320.441 768.417 320.352 765.724 320.019 C 763.03 319.686 760.869 319.234 760.897 319.009 C 760.924 318.785 763.13 318.873 765.825 319.206 C 768.517 319.539 770.676 319.992 770.65 320.215 Z " fill="rgb(246,152,118)"/><path d=" M 777.722 316.219 C 777.827 316.204 777.983 316.482 777.969 316.973 C 777.959 317.46 777.737 318.122 777.289 318.695 C 776.362 319.817 775.321 320.223 775.205 320.072 C 775.042 319.877 775.877 319.133 776.643 318.193 C 777.422 317.247 777.512 316.257 777.722 316.219 Z " fill="rgb(246,152,118)"/><path d=" M 935.936 393.933 C 940.413 393.534 944.633 390.877 946.925 387.009 C 947.185 386.57 947.408 385.973 947.069 385.594 C 946.84 385.336 946.455 385.31 946.11 385.305 C 942.57 385.272 939.024 385.88 935.697 387.091 C 935.32 387.23 934.904 387.413 934.763 387.79 C 934.661 388.062 934.732 388.366 934.806 388.648 C 935.253 390.366 935.697 392.08 936.145 393.797 L 935.936 393.933 Z " fill="rgb(240,99,109)"/><path d=" M 935.936 393.933 L 936.145 393.797 L 936.145 393.797 C 935.736 392.227 935.328 390.659 934.922 389.089 C 934.883 388.942 934.845 388.795 934.806 388.648 C 934.759 388.467 934.713 388.278 934.713 388.093 C 934.713 387.99 934.726 387.888 934.763 387.79 C 934.904 387.413 935.32 387.23 935.697 387.091 C 938.941 385.911 942.393 385.303 945.846 385.303 C 945.934 385.303 946.022 385.303 946.11 385.305 C 946.455 385.31 946.84 385.336 947.069 385.594 C 947.193 385.733 947.242 385.901 947.242 386.081 C 947.24 386.391 947.09 386.732 946.925 387.009 C 945.542 389.342 943.458 391.234 941.04 392.457 C 939.449 393.26 937.712 393.774 935.936 393.933 Z " fill="rgb(67,96,105)"/><path d=" M 828.931 214.649 C 828.931 214.649 823.714 232.164 825.151 231.168 C 826.589 230.174 829.707 227.408 829.707 227.408 L 828.931 214.649 Z " fill="rgb(229,229,228)"/><path d=" M 829.232 222.725 L 826.378 229.542 C 826.104 230.254 825.921 230.988 825.827 231.746 C 825.591 233.656 825.319 237.157 826.455 237.4 C 828.025 237.737 829.506 236.14 829.506 236.14 L 829.232 222.725 Z " fill="rgb(44,61,67)"/><path d=" M 917.711 223.801 C 917.711 223.801 889.803 212.911 874.349 222.527 C 858.896 232.142 856.082 247.486 846.878 247.486 C 828.931 247.486 829.506 234.821 829.506 234.821 L 825.691 235.977 C 825.618 238.568 821.532 257.172 840.445 259.477 C 859.358 261.784 867.307 236.001 884.321 235.977 C 901.335 235.952 914.252 245.179 914.252 245.179 L 926.476 237.448 L 917.711 223.801 Z " fill="rgb(44,61,67)"/><path d=" M 846.1 259.171 C 846.1 259.171 853.059 255.604 856.866 246.818 C 861.2 236.816 870.509 225.396 878.278 222.527 C 886.05 219.658 904.031 217.655 916.449 225.748 L 924.402 236.493 L 914.077 243.191 C 914.077 243.191 905.915 238.706 895.882 235.905 C 883.047 232.322 875.247 236.369 867.785 243.431 C 867.32 243.87 866.895 244.304 866.523 244.725 C 864.641 246.864 859.435 251.815 854.711 255.184 C 851.061 257.788 847.761 259.2 846.1 259.171 Z " fill="rgb(67,96,105)"/><path d=" M 268.232 107.222 C 251.68 109.772 239.544 95.869 235.674 83.489 C 232.102 72.062 230.403 60.172 225.384 49.303 C 218.372 34.112 199.793 27.092 183.121 28.496 C 166.447 29.9 149.646 38.256 134.894 46.152 L 138.963 137.595 C 138.963 137.595 171.087 103.387 186.524 102.765 C 212.279 101.725 210.875 144.059 235.886 150.31 C 235.886 150.31 270.947 159.815 294.652 129.198 C 309.696 109.766 311.028 86.16 311.028 86.16 C 311.028 86.16 299.505 102.404 268.232 107.222 Z " fill="rgb(255,193,51)"/><path d=" M 134.219 30.98 C 134.445 30.97 138.95 128.074 144.28 247.84 C 149.611 367.649 153.748 464.747 153.523 464.759 C 153.297 464.769 148.793 367.685 143.461 247.877 C 138.131 128.111 133.993 30.99 134.219 30.98 Z " fill="rgb(44,61,67)"/><path d=" M 245.137 134.142 C 243.423 134.142 241.916 133.667 240.527 132.149 C 238.589 130.03 236.012 127.481 234.541 124.977 C 226.984 112.101 223.246 93.684 222.632 79.116 L 222.632 77.163 C 224.916 85.721 230.039 97.145 234.805 104.611 C 239.574 112.076 246.804 118.361 255.475 120.168 C 257.044 120.496 258.668 120.682 260.114 121.373 C 261.559 122.064 262.831 123.409 262.876 125.011 C 262.943 127.406 260.467 128.974 258.319 130.032 C 255.26 131.539 252.155 133.062 248.803 133.689 C 247.476 133.937 246.262 134.142 245.137 134.142 Z " fill="rgb(255,179,0)"/><path d=" M 245.016 135.884 C 245 135.908 244.745 135.762 244.272 135.46 C 243.8 135.157 243.127 134.674 242.296 134.007 C 240.649 132.659 238.401 130.495 236.19 127.375 C 233.961 124.272 231.826 120.211 230.078 115.485 C 228.315 110.759 226.87 105.416 225.551 99.772 C 222.916 88.467 221.756 77.99 221.333 70.41 C 221.121 66.618 221.086 63.543 221.09 61.421 C 221.111 60.436 221.129 59.628 221.143 58.977 C 221.166 58.418 221.191 58.125 221.219 58.125 C 221.248 58.125 221.277 58.418 221.308 58.976 C 221.334 59.626 221.367 60.432 221.408 61.415 C 221.503 63.533 221.627 66.596 221.911 70.372 C 222.479 77.919 223.728 88.333 226.349 99.588 C 227.663 105.208 229.08 110.536 230.785 115.224 C 232.477 119.917 234.528 123.942 236.665 127.044 C 238.785 130.162 240.937 132.356 242.504 133.765 C 244.086 135.163 245.057 135.825 245.016 135.884 Z " fill="rgb(44,61,67)"/><path d=" M 34.406 484.064 L 253.106 519.868 L 253.106 484.064 L 34.406 484.064 Z " fill="rgb(216,217,217)"/><path d=" M 289.208 564.944 L 507.908 600.745 L 507.908 564.944 L 289.208 564.944 Z " fill="rgb(216,217,217)"/><path d=" M 542.255 642.31 L 760.954 678.114 L 760.954 642.31 L 542.255 642.31 Z " fill="rgb(216,217,217)"/><path d=" M 794.967 703.877 L 1013.665 739.681 L 1013.665 703.877 L 794.967 703.877 Z " fill="rgb(216,217,217)"/><path d=" M 253.106 484.064 L 34.406 484.064 L 34.406 457.248 L 253.106 457.248 L 253.106 484.064 Z " fill="rgb(0,171,147)"/><path d=" M 253.106 484.064 L 253.106 484.064 L 184.859 484.064 L 184.859 457.248 L 253.106 457.248 L 253.106 484.064 Z " fill="rgb(67,96,105)"/><path d=" M 507.908 564.944 L 289.208 564.944 L 289.208 538.127 L 507.908 538.127 L 507.908 564.944 Z " fill="rgb(0,171,147)"/><path d=" M 507.908 564.944 L 507.908 564.944 L 439.662 564.944 L 439.662 538.127 L 507.908 538.127 L 507.908 564.944 Z " fill="rgb(67,96,105)"/><path d=" M 760.954 642.31 L 542.255 642.31 L 542.255 615.496 L 760.954 615.496 L 760.954 642.31 Z " fill="rgb(0,171,147)"/><path d=" M 760.954 642.31 L 760.954 642.31 L 692.708 642.31 L 692.708 615.496 L 760.954 615.496 L 760.954 642.31 Z " fill="rgb(67,96,105)"/><path d=" M 1014 703.877 L 795.3 703.877 L 795.3 677.061 L 1014 677.061 L 1014 703.877 Z " fill="rgb(0,171,147)"/><path d=" M 1014 703.877 L 1013.665 703.877 L 945.755 703.877 L 945.755 677.061 L 1014 677.061 L 1014 703.877 Z " fill="rgb(67,96,105)"/><path d=" M 879.222 579.455 C 879.222 582.738 881.884 585.402 885.169 585.402 C 888.455 585.402 891.117 582.738 891.117 579.455 C 891.117 576.17 888.455 573.506 885.169 573.506 C 881.884 573.506 879.222 576.17 879.222 579.455 Z " fill="rgb(229,229,228)"/></g></g><path d=" M 121.363 239.307 C 117.92 234.938 111.672 235.1 107.686 238.609 C 103.699 242.114 101.963 246.094 101.467 252.004 C 100.24 246.213 97.705 242.532 93.289 239.611 C 88.873 236.69 82.612 237.397 79.714 242.211 C 78.012 245.033 77.677 248.804 78.316 252.221 C 78.956 255.64 80.099 259.156 82.248 261.583 C 89.9 270.232 93.863 271.587 103.361 277.449 C 111.986 270.324 114.782 268.499 121.249 258.867 C 123.064 256.16 123.758 252.519 123.968 249.042 C 124.177 245.563 123.382 241.872 121.363 239.307 Z " fill="rgb(56,79,86)"/><path d=" M 130.499 201.132 C 129.945 197.551 126.35 195.642 122.965 196.355 C 119.58 197.066 117.321 198.768 115.146 201.961 C 116.305 198.283 116.047 195.383 114.478 192.312 C 112.908 189.241 109.131 187.636 105.945 189.438 C 104.076 190.494 102.678 192.526 101.946 194.668 C 101.213 196.813 100.735 199.173 101.177 201.238 C 102.747 208.595 104.561 210.633 108.07 217 C 115.245 215.722 117.415 215.582 124.169 212.19 C 126.065 211.236 127.625 209.393 128.858 207.488 C 130.091 205.582 130.823 203.234 130.499 201.132 Z " fill="rgb(56,79,86)"/><path d=" M 99.673 153.852 C 98.211 152.307 95.837 152.584 94.44 154.058 C 93.042 155.531 92.518 157.106 92.533 159.374 C 91.866 157.211 90.774 155.896 88.991 154.936 C 87.208 153.976 84.848 154.461 83.91 156.395 C 83.36 157.528 83.362 158.976 83.723 160.255 C 84.085 161.535 84.641 162.835 85.544 163.686 C 88.756 166.716 90.312 167.095 94.132 169 C 97.171 165.989 98.173 165.198 100.304 161.306 C 100.902 160.212 101.041 158.802 101.001 157.47 C 100.96 156.138 100.531 154.76 99.673 153.852 Z " fill="rgb(56,79,86)"/></g></svg>