<svg aria-hidden="true" style="position: absolute; width: 0; height: 0; overflow: hidden;" version="1.1" xmlns="http://www.w3.org/2000/svg" xmlns:xlink="http://www.w3.org/1999/xlink">
<defs>
    <symbol id="icon-wink" viewBox="0 0 32 32">
        <path d="M16 32c8.837 0 16-7.163 16-16s-7.163-16-16-16-16 7.163-16 16 7.163 16 16 16zM16 3c7.18 0 13 5.82 13 13s-5.82 13-13 13-13-5.82-13-13 5.82-13 13-13zM16.961 22.22c4.383-0.866 7.785-2.861 9.014-5.519-0.677 5.249-5.047 9.299-10.339 9.299-3.726 0-6.996-2.009-8.84-5.030 2.2 1.721 6.079 2.056 10.165 1.249zM20 11c0-1.657 0.895-3 2-3s2 1.343 2 3c0 1.657-0.895 3-2 3s-2-1.343-2-3zM11 11.609c-1.306 0-2.417 0.489-2.829 1.172-0.111-0.183-0.171-1.005-0.171-1.211 0-0.971 1.343-1.758 3-1.758s3 0.787 3 1.758c0 0.206-0.061 1.028-0.171 1.211-0.412-0.683-1.522-1.172-2.829-1.172z"></path>
    </symbol>
    <symbol id="icon-paint-brush" viewBox="0 0 28 28">
        <path d="M25.234 0c1.422 0 2.734 1.062 2.734 2.547 0 0.828-0.328 1.625-0.703 2.359-1.219 2.312-5.313 9.953-7.266 11.75-0.953 0.891-2.078 1.422-3.406 1.422-2.641 0-4.797-2.25-4.797-4.875 0-1.25 0.516-2.469 1.437-3.313l9.969-9.047c0.547-0.5 1.266-0.844 2.031-0.844zM11.031 16.156c0.812 1.578 2.297 2.766 4.016 3.219l0.016 1.109c0.094 4.453-3 7.516-7.469 7.516-5.297 0-7.594-4.219-7.594-9.016 0.578 0.391 2.594 2 3.25 2 0.391 0 0.719-0.219 0.859-0.578 1.328-3.469 3.406-4.094 6.922-4.25z"></path>
    </symbol>
    <symbol id="icon-cogs" viewBox="0 0 32 32">
        <path d="M11.366 22.564l1.291-1.807-1.414-1.414-1.807 1.291c-0.335-0.187-0.694-0.337-1.071-0.444l-0.365-2.19h-2l-0.365 2.19c-0.377 0.107-0.736 0.256-1.071 0.444l-1.807-1.291-1.414 1.414 1.291 1.807c-0.187 0.335-0.337 0.694-0.443 1.071l-2.19 0.365v2l2.19 0.365c0.107 0.377 0.256 0.736 0.444 1.071l-1.291 1.807 1.414 1.414 1.807-1.291c0.335 0.187 0.694 0.337 1.071 0.444l0.365 2.19h2l0.365-2.19c0.377-0.107 0.736-0.256 1.071-0.444l1.807 1.291 1.414-1.414-1.291-1.807c0.187-0.335 0.337-0.694 0.444-1.071l2.19-0.365v-2l-2.19-0.365c-0.107-0.377-0.256-0.736-0.444-1.071zM7 27c-1.105 0-2-0.895-2-2s0.895-2 2-2 2 0.895 2 2-0.895 2-2 2zM32 12v-2l-2.106-0.383c-0.039-0.251-0.088-0.499-0.148-0.743l1.799-1.159-0.765-1.848-2.092 0.452c-0.132-0.216-0.273-0.426-0.422-0.629l1.219-1.761-1.414-1.414-1.761 1.219c-0.203-0.149-0.413-0.29-0.629-0.422l0.452-2.092-1.848-0.765-1.159 1.799c-0.244-0.059-0.492-0.109-0.743-0.148l-0.383-2.106h-2l-0.383 2.106c-0.251 0.039-0.499 0.088-0.743 0.148l-1.159-1.799-1.848 0.765 0.452 2.092c-0.216 0.132-0.426 0.273-0.629 0.422l-1.761-1.219-1.414 1.414 1.219 1.761c-0.149 0.203-0.29 0.413-0.422 0.629l-2.092-0.452-0.765 1.848 1.799 1.159c-0.059 0.244-0.109 0.492-0.148 0.743l-2.106 0.383v2l2.106 0.383c0.039 0.251 0.088 0.499 0.148 0.743l-1.799 1.159 0.765 1.848 2.092-0.452c0.132 0.216 0.273 0.426 0.422 0.629l-1.219 1.761 1.414 1.414 1.761-1.219c0.203 0.149 0.413 0.29 0.629 0.422l-0.452 2.092 1.848 0.765 1.159-1.799c0.244 0.059 0.492 0.109 0.743 0.148l0.383 2.106h2l0.383-2.106c0.251-0.039 0.499-0.088 0.743-0.148l1.159 1.799 1.848-0.765-0.452-2.092c0.216-0.132 0.426-0.273 0.629-0.422l1.761 1.219 1.414-1.414-1.219-1.761c0.149-0.203 0.29-0.413 0.422-0.629l2.092 0.452 0.765-1.848-1.799-1.159c0.059-0.244 0.109-0.492 0.148-0.743l2.106-0.383zM21 15.35c-2.402 0-4.35-1.948-4.35-4.35s1.948-4.35 4.35-4.35 4.35 1.948 4.35 4.35c0 2.402-1.948 4.35-4.35 4.35z"></path>
    </symbol>
    <symbol id="icon-handshake-o" viewBox="0 0 36 28">
        <path d="M3 18c1.313 0 1.313-2 0-2s-1.313 2 0 2zM26.016 17.094c-1.234-1.609-2.438-3.25-3.844-4.719l-1.953 2.188c-1.719 1.953-4.797 1.906-6.469-0.094-1.188-1.437-1.188-3.5 0.031-4.922l2.766-3.219c-0.969-0.5-2.141-0.328-3.187-0.328-0.922 0-1.813 0.375-2.469 1.031l-2.469 2.469h-2.422v8.5c0.688 0 1.312-0.094 1.859 0.438l4.641 4.562c0.953 0.922 2.187 1.734 3.547 1.734 0.703 0 1.453-0.234 1.953-0.734 1.172 0.406 2.531-0.25 2.891-1.453 0.75 0.063 1.437-0.172 1.984-0.688 0.359-0.328 0.828-0.984 0.781-1.5 0.141 0.141 0.484 0.156 0.672 0.156 1.859 0 2.828-1.953 1.687-3.422zM28.5 18h1.5v-8h-1.453l-2.453-2.812c-0.656-0.75-1.641-1.188-2.641-1.188h-2.609c-0.875 0-1.719 0.391-2.281 1.047l-3.266 3.797c-0.578 0.688-0.578 1.656-0.016 2.344 0.891 1.062 2.531 1.078 3.453 0.047l3.016-3.406c0.719-0.797 2.031-0.047 1.703 0.969 0.594 0.688 1.234 1.359 1.813 2.047 0.781 0.969 1.531 1.984 2.297 2.969 0.484 0.625 0.844 1.375 0.938 2.188zM33 18c1.313 0 1.313-2 0-2s-1.313 2 0 2zM36 9v10c0 0.547-0.453 1-1 1h-6.781c-0.562 1.359-1.797 2.266-3.234 2.469-0.672 0.984-1.703 1.734-2.859 1.984-0.859 1.094-2.25 1.75-3.641 1.656-2.578 1.453-5.484 0.187-7.406-1.703l-4.484-4.406h-5.594c-0.547 0-1-0.453-1-1v-10.5c0-0.547 0.453-1 1-1h6.578c1.813-1.813 3.062-3.5 5.781-3.5h1.828c1.016 0 2 0.313 2.828 0.875 0.828-0.562 1.813-0.875 2.828-0.875h2.609c2.969 0 4.203 1.937 6 4h5.547c0.547 0 1 0.453 1 1z"></path>
    </symbol>
    <symbol id="icon-twitter" viewBox="0 0 32 32">
        <path d="M32 7.075c-1.175 0.525-2.444 0.875-3.769 1.031 1.356-0.813 2.394-2.1 2.887-3.631-1.269 0.75-2.675 1.3-4.169 1.594-1.2-1.275-2.906-2.069-4.794-2.069-3.625 0-6.563 2.938-6.563 6.563 0 0.512 0.056 1.012 0.169 1.494-5.456-0.275-10.294-2.888-13.531-6.862-0.563 0.969-0.887 2.1-0.887 3.3 0 2.275 1.156 4.287 2.919 5.463-1.075-0.031-2.087-0.331-2.975-0.819 0 0.025 0 0.056 0 0.081 0 3.181 2.263 5.838 5.269 6.437-0.55 0.15-1.131 0.231-1.731 0.231-0.425 0-0.831-0.044-1.237-0.119 0.838 2.606 3.263 4.506 6.131 4.563-2.25 1.762-5.075 2.813-8.156 2.813-0.531 0-1.050-0.031-1.569-0.094 2.913 1.869 6.362 2.95 10.069 2.95 12.075 0 18.681-10.006 18.681-18.681 0-0.287-0.006-0.569-0.019-0.85 1.281-0.919 2.394-2.075 3.275-3.394z"></path>
    </symbol>
    <symbol id="icon-facebook" viewBox="0 0 32 32">
        <path d="M19 6h5v-6h-5c-3.86 0-7 3.14-7 7v3h-4v6h4v16h6v-16h5l1-6h-6v-3c0-0.542 0.458-1 1-1z"></path>
    </symbol>
    <symbol id="icon-github" viewBox="0 0 32 32">
        <path d="M16 0.395c-8.836 0-16 7.163-16 16 0 7.069 4.585 13.067 10.942 15.182 0.8 0.148 1.094-0.347 1.094-0.77 0-0.381-0.015-1.642-0.022-2.979-4.452 0.968-5.391-1.888-5.391-1.888-0.728-1.849-1.776-2.341-1.776-2.341-1.452-0.993 0.11-0.973 0.11-0.973 1.606 0.113 2.452 1.649 2.452 1.649 1.427 2.446 3.743 1.739 4.656 1.33 0.143-1.034 0.558-1.74 1.016-2.14-3.554-0.404-7.29-1.777-7.29-7.907 0-1.747 0.625-3.174 1.649-4.295-0.166-0.403-0.714-2.030 0.155-4.234 0 0 1.344-0.43 4.401 1.64 1.276-0.355 2.645-0.532 4.005-0.539 1.359 0.006 2.729 0.184 4.008 0.539 3.054-2.070 4.395-1.64 4.395-1.64 0.871 2.204 0.323 3.831 0.157 4.234 1.026 1.12 1.647 2.548 1.647 4.295 0 6.145-3.743 7.498-7.306 7.895 0.574 0.497 1.085 1.47 1.085 2.963 0 2.141-0.019 3.864-0.019 4.391 0 0.426 0.288 0.925 1.099 0.768 6.354-2.118 10.933-8.113 10.933-15.18 0-8.837-7.164-16-16-16z"></path>
    </symbol>
    <symbol id="icon-instagram" viewBox="0 0 32 32">
        <path d="M16 2.881c4.275 0 4.781 0.019 6.462 0.094 1.563 0.069 2.406 0.331 2.969 0.55 0.744 0.288 1.281 0.638 1.837 1.194 0.563 0.563 0.906 1.094 1.2 1.838 0.219 0.563 0.481 1.412 0.55 2.969 0.075 1.688 0.094 2.194 0.094 6.463s-0.019 4.781-0.094 6.463c-0.069 1.563-0.331 2.406-0.55 2.969-0.288 0.744-0.637 1.281-1.194 1.837-0.563 0.563-1.094 0.906-1.837 1.2-0.563 0.219-1.413 0.481-2.969 0.55-1.688 0.075-2.194 0.094-6.463 0.094s-4.781-0.019-6.463-0.094c-1.563-0.069-2.406-0.331-2.969-0.55-0.744-0.288-1.281-0.637-1.838-1.194-0.563-0.563-0.906-1.094-1.2-1.837-0.219-0.563-0.481-1.413-0.55-2.969-0.075-1.688-0.094-2.194-0.094-6.463s0.019-4.781 0.094-6.463c0.069-1.563 0.331-2.406 0.55-2.969 0.288-0.744 0.638-1.281 1.194-1.838 0.563-0.563 1.094-0.906 1.838-1.2 0.563-0.219 1.412-0.481 2.969-0.55 1.681-0.075 2.188-0.094 6.463-0.094zM16 0c-4.344 0-4.887 0.019-6.594 0.094-1.7 0.075-2.869 0.35-3.881 0.744-1.056 0.412-1.95 0.956-2.837 1.85-0.894 0.888-1.438 1.781-1.85 2.831-0.394 1.019-0.669 2.181-0.744 3.881-0.075 1.713-0.094 2.256-0.094 6.6s0.019 4.887 0.094 6.594c0.075 1.7 0.35 2.869 0.744 3.881 0.413 1.056 0.956 1.95 1.85 2.837 0.887 0.887 1.781 1.438 2.831 1.844 1.019 0.394 2.181 0.669 3.881 0.744 1.706 0.075 2.25 0.094 6.594 0.094s4.888-0.019 6.594-0.094c1.7-0.075 2.869-0.35 3.881-0.744 1.050-0.406 1.944-0.956 2.831-1.844s1.438-1.781 1.844-2.831c0.394-1.019 0.669-2.181 0.744-3.881 0.075-1.706 0.094-2.25 0.094-6.594s-0.019-4.887-0.094-6.594c-0.075-1.7-0.35-2.869-0.744-3.881-0.394-1.063-0.938-1.956-1.831-2.844-0.887-0.887-1.781-1.438-2.831-1.844-1.019-0.394-2.181-0.669-3.881-0.744-1.712-0.081-2.256-0.1-6.6-0.1v0z"></path>
        <path d="M16 7.781c-4.537 0-8.219 3.681-8.219 8.219s3.681 8.219 8.219 8.219 8.219-3.681 8.219-8.219c0-4.537-3.681-8.219-8.219-8.219zM16 21.331c-2.944 0-5.331-2.387-5.331-5.331s2.387-5.331 5.331-5.331c2.944 0 5.331 2.387 5.331 5.331s-2.387 5.331-5.331 5.331z"></path>
        <path d="M26.462 7.456c0 1.060-0.859 1.919-1.919 1.919s-1.919-0.859-1.919-1.919c0-1.060 0.859-1.919 1.919-1.919s1.919 0.859 1.919 1.919z"></path>
    </symbol>
    <symbol id="icon-pinterest" viewBox="0 0 32 32">
        <path d="M16 2.138c-7.656 0-13.863 6.206-13.863 13.863 0 5.875 3.656 10.887 8.813 12.906-0.119-1.094-0.231-2.781 0.050-3.975 0.25-1.081 1.625-6.887 1.625-6.887s-0.412-0.831-0.412-2.056c0-1.925 1.119-3.369 2.506-3.369 1.181 0 1.756 0.887 1.756 1.95 0 1.188-0.756 2.969-1.15 4.613-0.331 1.381 0.688 2.506 2.050 2.506 2.462 0 4.356-2.6 4.356-6.35 0-3.319-2.387-5.638-5.787-5.638-3.944 0-6.256 2.956-6.256 6.019 0 1.194 0.456 2.469 1.031 3.163 0.113 0.137 0.131 0.256 0.094 0.4-0.106 0.438-0.338 1.381-0.387 1.575-0.063 0.256-0.2 0.306-0.463 0.188-1.731-0.806-2.813-3.337-2.813-5.369 0-4.375 3.175-8.387 9.156-8.387 4.806 0 8.544 3.425 8.544 8.006 0 4.775-3.012 8.625-7.194 8.625-1.406 0-2.725-0.731-3.175-1.594 0 0-0.694 2.644-0.863 3.294-0.313 1.206-1.156 2.712-1.725 3.631 1.3 0.4 2.675 0.619 4.106 0.619 7.656 0 13.863-6.206 13.863-13.863 0-7.662-6.206-13.869-13.863-13.869z"></path>
    </symbol>
    <symbol id="icon-heart" viewBox="0 0 32 32">
        <path d="M29.193 5.265c-3.629-3.596-9.432-3.671-13.191-0.288-3.76-3.383-9.561-3.308-13.192 0.288-3.741 3.704-3.741 9.709 0 13.415 1.069 1.059 11.053 10.941 11.053 10.941 1.183 1.172 3.096 1.172 4.278 0 0 0 10.932-10.822 11.053-10.941 3.742-3.706 3.742-9.711-0.001-13.415zM27.768 17.268l-11.053 10.941c-0.393 0.391-1.034 0.391-1.425 0l-11.053-10.941c-2.95-2.92-2.95-7.671 0-10.591 2.844-2.815 7.416-2.914 10.409-0.222l1.356 1.22 1.355-1.22c2.994-2.692 7.566-2.594 10.41 0.222 2.95 2.919 2.95 7.67 0.001 10.591zM9.253 7.501c0.277 0 0.5 0.224 0.5 0.5s-0.224 0.5-0.5 0.5h-0.001c-1.794 0-3.249 1.455-3.249 3.249v0.001c0 0.276-0.224 0.5-0.5 0.5s-0.5-0.224-0.5-0.5v0c0-2.346 1.901-4.247 4.246-4.249 0.002 0 0.002-0.001 0.004-0.001z"></path>
    </symbol>
    <symbol id="icon-alarm" viewBox="0 0 32 32">
        <path d="M16 4c-7.732 0-14 6.268-14 14s6.268 14 14 14 14-6.268 14-14-6.268-14-14-14zM16 29.25c-6.213 0-11.25-5.037-11.25-11.25s5.037-11.25 11.25-11.25c6.213 0 11.25 5.037 11.25 11.25s-5.037 11.25-11.25 11.25zM29.212 8.974c0.501-0.877 0.788-1.892 0.788-2.974 0-3.314-2.686-6-6-6-1.932 0-3.65 0.913-4.747 2.331 4.121 0.851 7.663 3.287 9.96 6.643v0zM12.748 2.331c-1.097-1.418-2.816-2.331-4.748-2.331-3.314 0-6 2.686-6 6 0 1.082 0.287 2.098 0.788 2.974 2.297-3.356 5.838-5.792 9.96-6.643z"></path>
        <path d="M16 18v-8h-2v10h8v-2z"></path>
    </symbol>
    <symbol id="icon-users" viewBox="0 0 36 32">
        <path d="M24 24.082v-1.649c2.203-1.241 4-4.337 4-7.432 0-4.971 0-9-6-9s-6 4.029-6 9c0 3.096 1.797 6.191 4 7.432v1.649c-6.784 0.555-12 3.888-12 7.918h28c0-4.030-5.216-7.364-12-7.918z"></path>
        <path d="M10.225 24.854c1.728-1.13 3.877-1.989 6.243-2.513-0.47-0.556-0.897-1.176-1.265-1.844-0.95-1.726-1.453-3.627-1.453-5.497 0-2.689 0-5.228 0.956-7.305 0.928-2.016 2.598-3.265 4.976-3.734-0.529-2.39-1.936-3.961-5.682-3.961-6 0-6 4.029-6 9 0 3.096 1.797 6.191 4 7.432v1.649c-6.784 0.555-12 3.888-12 7.918h8.719c0.454-0.403 0.956-0.787 1.506-1.146z"></path>
    </symbol>
    <symbol id="icon-paint-format" viewBox="0 0 32 32">
        <path d="M32 18v-12h-6v-2c0-1.1-0.9-2-2-2h-22c-1.1 0-2 0.9-2 2v6c0 1.1 0.9 2 2 2h22c1.1 0 2-0.9 2-2v-2h4v8h-18v4h-1c-0.552 0-1 0.448-1 1v10c0 0.552 0.448 1 1 1h4c0.552 0 1-0.448 1-1v-10c0-0.552-0.448-1-1-1h-1v-2h18zM24 6h-22v-2h22v2z"></path>
    </symbol>
    <symbol id="icon-github-square" viewBox="0 0 24 28">
        <path d="M8.109 18.75v0c0.031-0.047 0.016-0.141-0.047-0.203-0.078-0.063-0.172-0.078-0.219-0.031-0.031 0.047-0.016 0.141 0.047 0.203 0.078 0.063 0.172 0.078 0.219 0.031zM7.672 18.109c-0.047-0.063-0.125-0.094-0.187-0.063-0.047 0.031-0.047 0.125 0 0.187 0.063 0.078 0.141 0.109 0.187 0.078v0c0.047-0.031 0.047-0.125 0-0.203zM7.031 17.484v0c0.016-0.031-0.016-0.094-0.078-0.125-0.047-0.016-0.109-0.016-0.125 0.031-0.031 0.047 0 0.094 0.063 0.125 0.063 0.016 0.125 0.016 0.141-0.031zM7.359 17.844v0c0.031-0.031 0.031-0.109-0.031-0.156-0.047-0.063-0.125-0.078-0.156-0.047-0.047 0.047-0.031 0.109 0.016 0.172 0.047 0.047 0.125 0.078 0.172 0.031zM8.703 19.016v0c0.016-0.063-0.047-0.141-0.141-0.172s-0.172 0-0.203 0.063c-0.016 0.063 0.047 0.141 0.141 0.172s0.172 0 0.203-0.063zM9.359 19.063v0c0-0.063-0.078-0.125-0.187-0.125-0.094 0-0.156 0.063-0.156 0.125s0.078 0.125 0.172 0.125 0.172-0.063 0.172-0.125zM9.969 18.953v0c-0.016-0.063-0.109-0.094-0.203-0.078s-0.156 0.078-0.141 0.141 0.094 0.109 0.187 0.094 0.156-0.094 0.156-0.156zM20 14c0-4.422-3.578-8-8-8s-8 3.578-8 8c0 3.531 2.297 6.531 5.469 7.594 0.406 0.078 0.547-0.172 0.547-0.391 0-0.187 0-0.812-0.016-1.484 0 0-2.219 0.484-2.688-0.953 0 0-0.359-0.922-0.891-1.156 0 0-0.719-0.5 0.063-0.5 0 0 0.781 0.063 1.219 0.828 0.703 1.234 1.875 0.875 2.328 0.672 0.078-0.516 0.281-0.875 0.516-1.078-1.781-0.203-3.656-0.891-3.656-3.953 0-0.875 0.313-1.578 0.828-2.141-0.078-0.203-0.359-1.016 0.078-2.125 0.672-0.203 2.203 0.828 2.203 0.828 0.641-0.187 1.313-0.266 2-0.266s1.359 0.078 2 0.266c0 0 1.531-1.031 2.203-0.828 0.438 1.109 0.156 1.922 0.078 2.125 0.516 0.562 0.828 1.266 0.828 2.141 0 3.078-1.875 3.75-3.656 3.953 0.281 0.25 0.547 0.734 0.547 1.484 0 1.062-0.016 1.922-0.016 2.188 0 0.219 0.141 0.469 0.547 0.391 3.172-1.062 5.469-4.062 5.469-7.594zM24 6.5v15c0 2.484-2.016 4.5-4.5 4.5h-15c-2.484 0-4.5-2.016-4.5-4.5v-15c0-2.484 2.016-4.5 4.5-4.5h15c2.484 0 4.5 2.016 4.5 4.5z"></path>
    </symbol>
    <symbol id="icon-twitter-square" viewBox="0 0 24 28">
        <path d="M20 9.531c-0.594 0.266-1.219 0.438-1.891 0.531 0.688-0.406 1.203-1.062 1.453-1.828-0.641 0.375-1.344 0.656-2.094 0.797-0.594-0.641-1.453-1.031-2.391-1.031-1.813 0-3.281 1.469-3.281 3.281 0 0.25 0.016 0.516 0.078 0.75-2.734-0.141-5.156-1.437-6.781-3.437-0.281 0.484-0.453 1.062-0.453 1.656 0 1.141 0.531 2.141 1.422 2.734-0.547-0.016-1.062-0.172-1.563-0.406v0.031c0 1.594 1.203 2.922 2.703 3.219-0.281 0.078-0.5 0.125-0.797 0.125-0.203 0-0.406-0.031-0.609-0.063 0.422 1.297 1.625 2.25 3.063 2.281-1.125 0.875-2.531 1.406-4.078 1.406-0.266 0-0.531-0.016-0.781-0.047 1.453 0.922 3.172 1.469 5.031 1.469 6.031 0 9.344-5 9.344-9.344 0-0.141 0-0.281-0.016-0.422 0.641-0.453 1.203-1.031 1.641-1.703zM24 6.5v15c0 2.484-2.016 4.5-4.5 4.5h-15c-2.484 0-4.5-2.016-4.5-4.5v-15c0-2.484 2.016-4.5 4.5-4.5h15c2.484 0 4.5 2.016 4.5 4.5z"></path>
    </symbol>
    <symbol id="icon-facebook-square" viewBox="0 0 24 28">
     <path d="M19.5 2c2.484 0 4.5 2.016 4.5 4.5v15c0 2.484-2.016 4.5-4.5 4.5h-2.938v-9.297h3.109l0.469-3.625h-3.578v-2.312c0-1.047 0.281-1.75 1.797-1.75l1.906-0.016v-3.234c-0.328-0.047-1.469-0.141-2.781-0.141-2.766 0-4.672 1.687-4.672 4.781v2.672h-3.125v3.625h3.125v9.297h-8.313c-2.484 0-4.5-2.016-4.5-4.5v-15c0-2.484 2.016-4.5 4.5-4.5h15z"></path>
    </symbol>
    <symbol id="icon-location" viewBox="0 0 32 32">
        <path d="M16 0c-5.523 0-10 4.477-10 10 0 10 10 22 10 22s10-12 10-22c0-5.523-4.477-10-10-10zM16 16c-3.314 0-6-2.686-6-6s2.686-6 6-6 6 2.686 6 6-2.686 6-6 6z"></path>
    </symbol>
    <symbol id="icon-envelope" viewBox="0 0 20 20">
        <path d="M18 2c1.105 0 2 0.895 2 2v0 12c0 1.105-0.895 2-2 2v0h-16c-1.105 0-2-0.895-2-2v0-12c0-1.1 0.9-2 2-2h16zM13.63 11.1l6.37 4.9v-2l-5.12-3.9 5.12-4.1v-2l-10 8-10-8v2l5.12 4.1-5.12 3.9v2l6.37-4.9 3.63 2.9 3.63-2.9z"></path>
    </symbol>
    <symbol id="icon-mobile" viewBox="0 0 32 32">
        <path d="M23 0h-14c-1.65 0-3 1.35-3 3v26c0 1.65 1.35 3 3 3h14c1.65 0 3-1.35 3-3v-26c0-1.65-1.35-3-3-3zM12 1.5h8v1h-8v-1zM16 30c-1.105 0-2-0.895-2-2s0.895-2 2-2 2 0.895 2 2-0.895 2-2 2zM24 24h-16v-20h16v20z"></path>
    </symbol>
    <symbol id="icon-quotes-left" viewBox="0 0 32 32">
        <path d="M7.031 14c3.866 0 7 3.134 7 7s-3.134 7-7 7-7-3.134-7-7l-0.031-1c0-7.732 6.268-14 14-14v4c-2.671 0-5.182 1.040-7.071 2.929-0.364 0.364-0.695 0.751-0.995 1.157 0.357-0.056 0.724-0.086 1.097-0.086zM25.031 14c3.866 0 7 3.134 7 7s-3.134 7-7 7-7-3.134-7-7l-0.031-1c0-7.732 6.268-14 14-14v4c-2.671 0-5.182 1.040-7.071 2.929-0.364 0.364-0.695 0.751-0.995 1.157 0.358-0.056 0.724-0.086 1.097-0.086z"></path>
    </symbol>
    <symbol id="icon-help" viewBox="0 0 20 20">
        <path d="M14.090 2.233c-1.14-0.822-2.572-1.233-4.296-1.233-1.311 0-2.418 0.289-3.317 0.868-1.427 0.906-2.185 2.445-2.277 4.615h3.307c0-0.633 0.185-1.24 0.553-1.828 0.369-0.586 0.995-0.879 1.878-0.879 0.898 0 1.517 0.238 1.854 0.713 0.339 0.477 0.508 1.004 0.508 1.582 0 0.504-0.252 0.965-0.557 1.383-0.167 0.244-0.387 0.469-0.661 0.674 0 0-1.793 1.15-2.58 2.074-0.456 0.535-0.497 1.338-0.538 2.488-0.002 0.082 0.029 0.252 0.315 0.252s2.316 0 2.571 0c0.256 0 0.309-0.189 0.312-0.274 0.018-0.418 0.064-0.633 0.141-0.875 0.144-0.457 0.538-0.855 0.979-1.199l0.91-0.627c0.822-0.641 1.477-1.166 1.767-1.578 0.494-0.676 0.842-1.51 0.842-2.5-0.001-1.615-0.571-2.832-1.711-3.656zM9.741 14.924c-1.139-0.035-2.079 0.754-2.115 1.99-0.035 1.234 0.858 2.051 1.998 2.084 1.189 0.035 2.104-0.727 2.141-1.963 0.034-1.236-0.834-2.076-2.024-2.111z"></path>
    </symbol>
    <symbol id="icon-forum" viewBox="0 0 24 24">
        <path d="M17.016 12q0 0.422-0.305 0.703t-0.727 0.281h-9.984l-3.984 4.031v-14.016q0-0.422 0.281-0.703t0.703-0.281h12.984q0.422 0 0.727 0.281t0.305 0.703v9zM21 6q0.422 0 0.703 0.281t0.281 0.703v15l-3.984-3.984h-11.016q-0.422 0-0.703-0.281t-0.281-0.703v-2.016h12.984v-9h2.016z"></path>
    </symbol>
    <symbol id="icon-calendar" viewBox="0 0 32 32">
        <path d="M10 12h4v4h-4zM16 12h4v4h-4zM22 12h4v4h-4zM4 24h4v4h-4zM10 24h4v4h-4zM16 24h4v4h-4zM10 18h4v4h-4zM16 18h4v4h-4zM22 18h4v4h-4zM4 18h4v4h-4zM26 0v2h-4v-2h-14v2h-4v-2h-4v32h30v-32h-4zM28 30h-26v-22h26v22z"></path>
    </symbol>
    <symbol id="icon-key" viewBox="0 0 26 28">
        <path d="M13 8c0-1.656-1.344-3-3-3s-3 1.344-3 3c0 0.453 0.109 0.891 0.297 1.297-0.406-0.187-0.844-0.297-1.297-0.297-1.656 0-3 1.344-3 3s1.344 3 3 3 3-1.344 3-3c0-0.453-0.109-0.891-0.297-1.297 0.406 0.187 0.844 0.297 1.297 0.297 1.656 0 3-1.344 3-3zM26.297 19c0 0.359-1.437 1.797-1.797 1.797-0.406 0-1.672-1.469-2-1.797l-1.5 1.5 3.437 3.437c0.281 0.281 0.438 0.672 0.438 1.062 0 0.875-1 1.875-1.875 1.875-0.391 0-0.781-0.156-1.062-0.438l-10.484-10.484c-1.641 1.219-3.641 2.047-5.703 2.047-3.406 0-5.75-2.359-5.75-5.75 0-5.125 5.125-10.25 10.25-10.25 3.391 0 5.75 2.344 5.75 5.75 0 2.063-0.828 4.062-2.047 5.703l5.547 5.547 1.5-1.5c-0.328-0.328-1.797-1.594-1.797-2 0-0.359 1.437-1.797 1.797-1.797 0.125 0 0.266 0.063 0.359 0.156 0.578 0.578 4.937 4.688 4.937 5.141z"></path>
    </symbol>
    <symbol id="icon-eye" viewBox="0 0 32 32">
        <path d="M16 6c-6.979 0-13.028 4.064-16 10 2.972 5.936 9.021 10 16 10s13.027-4.064 16-10c-2.972-5.936-9.021-10-16-10zM23.889 11.303c1.88 1.199 3.473 2.805 4.67 4.697-1.197 1.891-2.79 3.498-4.67 4.697-2.362 1.507-5.090 2.303-7.889 2.303s-5.527-0.796-7.889-2.303c-1.88-1.199-3.473-2.805-4.67-4.697 1.197-1.891 2.79-3.498 4.67-4.697 0.122-0.078 0.246-0.154 0.371-0.228-0.311 0.854-0.482 1.776-0.482 2.737 0 4.418 3.582 8 8 8s8-3.582 8-8c0-0.962-0.17-1.883-0.482-2.737 0.124 0.074 0.248 0.15 0.371 0.228v0zM16 13c0 1.657-1.343 3-3 3s-3-1.343-3-3 1.343-3 3-3 3 1.343 3 3z"></path>
    </symbol>
</defs>
</svg>
