<svg aria-hidden="true" style="position: absolute; width: 0; height: 0; overflow: hidden;" version="1.1" xmlns="http://www.w3.org/2000/svg" xmlns:xlink="http://www.w3.org/1999/xlink">
    <defs>
<svg version="1.1" id="wheat" xmlns="http://www.w3.org/2000/svg" xmlns:xlink="http://www.w3.org/1999/xlink" x="0px" y="0px"
	 viewBox="0 0 17.37 17.37" style="enable-background:new 0 0 17.37 17.37;" xml:space="preserve">
<g>
	<g>
		<path style="" d="M12.957,2.071c0.155,0.039,0.295,0.051,0.426,0.046c0.206-0.012,0.389-0.066,0.551-0.155
			c0.164-0.088,0.307-0.216,0.425-0.383c0.116-0.173,0.215-0.377,0.254-0.69c-0.285-0.131-0.512-0.156-0.72-0.148
			c-0.206,0.012-0.388,0.065-0.55,0.156s-0.304,0.217-0.425,0.386c-0.086,0.129-0.164,0.275-0.213,0.471
			C4.923,7.391,2.74,17.186,2.719,17.285l0.397,0.085C3.137,17.271,5.289,7.615,12.957,2.071z"/>
		<path style="" d="M11.218,1.739c0.144,0.152,0.321,0.294,0.615,0.402c0.19-0.249,0.265-0.464,0.304-0.669
			c0.033-0.203,0.021-0.393-0.029-0.572c-0.052-0.177-0.144-0.346-0.28-0.499C11.685,0.249,11.507,0.107,11.211,0
			c-0.191,0.25-0.266,0.465-0.305,0.669c-0.033,0.203-0.022,0.392,0.031,0.571C10.988,1.418,11.08,1.585,11.218,1.739z"/>
		<path style="" d="M14.182,2.791c-0.168-0.12-0.344-0.192-0.527-0.222c-0.183-0.031-0.373-0.021-0.571,0.037
			c-0.198,0.062-0.403,0.16-0.629,0.378c0.142,0.28,0.302,0.44,0.47,0.564c0.168,0.12,0.343,0.191,0.527,0.223
			c0.182,0.033,0.372,0.021,0.569-0.034c0.199-0.062,0.405-0.161,0.63-0.38C14.511,3.076,14.349,2.915,14.182,2.791z"/>
		<path style="" d="M12.629,4.122c-0.167-0.119-0.344-0.192-0.526-0.221C11.919,3.87,11.73,3.88,11.53,3.938
			c-0.198,0.063-0.401,0.161-0.628,0.378c0.141,0.28,0.302,0.44,0.47,0.565C11.54,5,11.715,5.072,11.899,5.104
			c0.183,0.033,0.373,0.022,0.57-0.035c0.199-0.062,0.405-0.16,0.63-0.379C12.959,4.408,12.797,4.246,12.629,4.122z"/>
		<path style="" d="M11.108,5.576c-0.168-0.118-0.344-0.191-0.526-0.222c-0.185-0.029-0.374-0.02-0.572,0.038
			C9.811,5.455,9.607,5.553,9.381,5.77C9.522,6.05,9.682,6.21,9.85,6.334c0.168,0.12,0.344,0.191,0.527,0.223
			c0.183,0.032,0.373,0.021,0.57-0.035c0.199-0.062,0.404-0.16,0.63-0.38C11.437,5.861,11.275,5.7,11.108,5.576z"/>
		<path style="" d="M9.868,7.439C9.701,7.32,9.525,7.248,9.341,7.218C9.158,7.186,8.968,7.197,8.77,7.254
			C8.572,7.317,8.367,7.415,8.141,7.632c0.14,0.279,0.302,0.439,0.469,0.564C8.779,8.315,8.954,8.387,9.138,8.42
			c0.183,0.032,0.373,0.022,0.569-0.036c0.2-0.062,0.405-0.159,0.632-0.38C10.197,7.724,10.036,7.563,9.868,7.439z"/>
		<path style="" d="M8.559,9.408C8.392,9.29,8.216,9.216,8.032,9.186C7.849,9.156,7.659,9.165,7.46,9.222
			C7.262,9.285,7.057,9.383,6.832,9.6c0.141,0.28,0.302,0.44,0.469,0.565c0.168,0.119,0.344,0.191,0.527,0.224
			c0.183,0.031,0.374,0.021,0.57-0.036c0.199-0.062,0.405-0.159,0.63-0.378C8.889,9.693,8.727,9.532,8.559,9.408z"/>
		<path style="" d="M7.202,11.741c-0.167-0.12-0.345-0.191-0.527-0.222c-0.184-0.03-0.374-0.021-0.572,0.037
			c-0.199,0.063-0.404,0.16-0.629,0.378c0.141,0.28,0.302,0.44,0.469,0.563c0.169,0.12,0.344,0.192,0.527,0.225
			c0.184,0.031,0.373,0.021,0.571-0.035c0.2-0.063,0.404-0.16,0.629-0.381C7.531,12.026,7.37,11.864,7.202,11.741z"/>
		<path style="" d="M7.873,4.685c0.154,0.14,0.343,0.267,0.646,0.352c0.172-0.265,0.229-0.484,0.252-0.691
			C8.789,4.141,8.762,3.952,8.694,3.78c-0.066-0.174-0.17-0.333-0.32-0.475C8.22,3.164,8.031,3.037,7.729,2.952
			c-0.17,0.264-0.227,0.483-0.25,0.69C7.462,3.848,7.49,4.035,7.555,4.21C7.619,4.384,7.724,4.543,7.873,4.685z"/>
		<path style="" d="M6.363,6.68c0.154,0.14,0.343,0.268,0.646,0.351c0.172-0.263,0.23-0.484,0.251-0.69
			c0.019-0.205-0.008-0.394-0.075-0.567C7.12,5.6,7.014,5.441,6.865,5.301C6.711,5.16,6.522,5.032,6.221,4.948
			c-0.172,0.264-0.229,0.484-0.25,0.69C5.953,5.844,5.979,6.033,6.045,6.206C6.109,6.379,6.214,6.539,6.363,6.68z"/>
		<path style="" d="M4.985,8.882c0.168,0.125,0.367,0.232,0.679,0.284c0.144-0.279,0.178-0.504,0.179-0.713
			C5.84,8.248,5.794,8.062,5.71,7.897C5.627,7.731,5.505,7.584,5.342,7.458C5.175,7.333,4.974,7.227,4.666,7.174
			C4.522,7.452,4.489,7.677,4.488,7.886c0.002,0.205,0.048,0.39,0.131,0.557C4.702,8.609,4.822,8.757,4.985,8.882z"/>
		<path style="" d="M3.643,11.286c0.168,0.124,0.368,0.232,0.679,0.284c0.144-0.28,0.179-0.504,0.179-0.713
			c-0.002-0.205-0.048-0.391-0.132-0.557c-0.084-0.165-0.204-0.313-0.367-0.438C3.835,9.738,3.634,9.631,3.325,9.577
			c-0.143,0.279-0.177,0.506-0.178,0.712c0.003,0.207,0.049,0.392,0.131,0.558C3.359,11.014,3.48,11.161,3.643,11.286z"/>
		<path style="" d="M9.527,2.936c0.134,0.161,0.303,0.313,0.592,0.437c0.206-0.237,0.294-0.447,0.345-0.649
			c0.046-0.201,0.045-0.391,0.002-0.572c-0.041-0.181-0.122-0.353-0.251-0.515c-0.134-0.16-0.302-0.312-0.59-0.437
			C9.42,1.436,9.334,1.647,9.283,1.85c-0.046,0.2-0.046,0.39-0.005,0.572C9.316,2.604,9.4,2.775,9.527,2.936z"/>
	</g>
</g>
</svg>
	<symbol id="icon-arrow-up" viewBox="0 0 24 24">
		<path d="M5.707 12.707l5.293-5.293v11.586c0 0.552 0.448 1 1 1s1-0.448 1-1v-11.586l5.293 5.293c0.391 0.391 1.024 0.391 1.414 0s0.391-1.024 0-1.414l-7-7c-0.092-0.092-0.202-0.166-0.324-0.217s-0.253-0.076-0.383-0.076c-0.256 0-0.512 0.098-0.707 0.293l-7 7c-0.391 0.391-0.391 1.024 0 1.414s1.024 0.391 1.414 0z"></path>
	</symbol>
	<svg  viewBox="0 0 512 512" id="icon-twitter-square" xmlns="http://www.w3.org/2000/svg"><path d="m475.074219 0h-438.148438c-20.394531 0-36.925781 16.53125-36.925781 36.925781v438.148438c0 20.394531 16.53125 36.925781 36.925781 36.925781h438.148438c20.394531 0 36.925781-16.53125 36.925781-36.925781v-438.148438c0-20.394531-16.53125-36.925781-36.925781-36.925781zm-102.1875 199.601562c.113281 2.519532.167969 5.050782.167969 7.59375 0 77.644532-59.101563 167.179688-167.183594 167.183594h.003906-.003906c-33.183594 0-64.0625-9.726562-90.066406-26.394531 4.597656.542969 9.277343.8125 14.015624.8125 27.53125 0 52.867188-9.390625 72.980469-25.152344-25.722656-.476562-47.410156-17.464843-54.894531-40.8125 3.582031.6875 7.265625 1.0625 11.042969 1.0625 5.363281 0 10.558593-.722656 15.496093-2.070312-26.886718-5.382813-47.140624-29.144531-47.140624-57.597657 0-.265624 0-.503906.007812-.75 7.917969 4.402344 16.972656 7.050782 26.613281 7.347657-15.777343-10.527344-26.148437-28.523438-26.148437-48.910157 0-10.765624 2.910156-20.851562 7.957031-29.535156 28.976563 35.554688 72.28125 58.9375 121.117187 61.394532-1.007812-4.304688-1.527343-8.789063-1.527343-13.398438 0-32.4375 26.316406-58.753906 58.765625-58.753906 16.902344 0 32.167968 7.144531 42.890625 18.566406 13.386719-2.640625 25.957031-7.53125 37.3125-14.261719-4.394531 13.714844-13.707031 25.222657-25.839844 32.5 11.886719-1.421875 23.214844-4.574219 33.742187-9.253906-7.863281 11.785156-17.835937 22.136719-29.308593 30.429687zm0 0"/></svg>
	<svg  viewBox="0 0 512 512" id="icon-facebook-square" xmlns="http://www.w3.org/2000/svg"><path d="m332 512v-227c0-8.289062 6.710938-15 15-15h48.28125l7.5-30h-55.78125c-8.289062 0-15-6.710938-15-15v-48.003906c0-25.179688 15.820312-42.289063 43.402344-46.945313 13.886718-2.316406 26.191406-.941406 36.433594 1.140625l5.445312-36.648437c-23.289062-5.246094-45.363281-6.257813-67.117188-3.0625-38.652343 5.664062-62.527343 22.046875-63.164062 58.578125v74.941406c0 8.289062-6.710938 15-15 15h-30v30h30c8.289062 0 15 6.710938 15 15v227zm0 0"/><path d="m437 0h-362c-41.351562 0-75 33.648438-75 75v362c0 41.351562 33.648438 75 75 75h182v-212h-30c-8.289062 0-15-6.710938-15-15v-60c0-8.289062 6.710938-15 15-15h30v-53.277344c0-57.089844 31.398438-86.503906 88.828125-94.921875 29.515625-4.351562 60.644531-1.902343 92.386719 7.121094 7.253906 2.0625 11.835937 9.183594 10.738281 16.625l-9.84375 66.210937c-.617187 4.144532-2.960937 7.851563-6.429687 10.210938-5.90625 3.996094-10.367188 2.539062-16.613282 1.011719-10.457031-2.625-22.339844-5.625-35.652344-3.339844-16.992187 2.855469-18.414062 10.457031-18.414062 17.355469v33.003906h60c4.613281 0 8.980469 2.125 11.820312 5.769531 2.84375 3.632813 3.855469 8.378907 2.726563 12.863281l-15 60c-1.671875 6.679688-7.660156 11.367188-14.546875 11.367188h-45v212h75c41.351562 0 75-33.648438 75-75v-362c0-41.351562-33.648438-75-75-75zm0 0"/></svg>
	<symbol id="icon-linkedin" viewBox="0 0 32 32">
		<path d="M29 0h-26c-1.65 0-3 1.35-3 3v26c0 1.65 1.35 3 3 3h26c1.65 0 3-1.35 3-3v-26c0-1.65-1.35-3-3-3zM12 26h-4v-14h4v14zM10 10c-1.106 0-2-0.894-2-2s0.894-2 2-2c1.106 0 2 0.894 2 2s-0.894 2-2 2zM26 26h-4v-8c0-1.106-0.894-2-2-2s-2 0.894-2 2v8h-4v-14h4v2.481c0.825-1.131 2.087-2.481 3.5-2.481 2.488 0 4.5 2.238 4.5 5v9z"></path>
	</symbol>
	<svg viewBox="0 0 512 512" id="icon-instagram-square"  xmlns="http://www.w3.org/2000/svg"><path class="fgf" d="m376 91h-240c-24.8125 0-45 20.1875-45 45v240c0 24.8125 20.1875 45 45 45h240c24.8125 0 45-20.1875 45-45v-240c0-24.8125-20.1875-45-45-45zm-120 270c-57.890625 0-105-47.109375-105-105s47.109375-105 105-105 105 47.109375 105 105-47.109375 105-105 105zm105-180c-16.539062 0-30-13.460938-30-30s13.460938-30 30-30 30 13.460938 30 30-13.460938 30-30 30zm0 0"/><path d="m256 181c-41.351562 0-75 33.648438-75 75s33.648438 75 75 75 75-33.648438 75-75-33.648438-75-75-75zm0 0"/><path d="m436 0h-360c-41.351562 0-76 34.648438-76 76v360c0 41.351562 34.648438 76 76 76h360c41.351562 0 76-34.648438 76-76v-360c0-41.351562-34.648438-76-76-76zm15 376c0 41.351562-33.648438 75-75 75h-240c-41.351562 0-75-33.648438-75-75v-240c0-41.351562 33.648438-75 75-75h240c41.351562 0 75 33.648438 75 75zm0 0"/></svg>
	<symbol id="icon-quotes-left" viewBox="0 0 32 32">
        <path d="M7.031 14c3.866 0 7 3.134 7 7s-3.134 7-7 7-7-3.134-7-7l-0.031-1c0-7.732 6.268-14 14-14v4c-2.671 0-5.182 1.040-7.071 2.929-0.364 0.364-0.695 0.751-0.995 1.157 0.357-0.056 0.724-0.086 1.097-0.086zM25.031 14c3.866 0 7 3.134 7 7s-3.134 7-7 7-7-3.134-7-7l-0.031-1c0-7.732 6.268-14 14-14v4c-2.671 0-5.182 1.040-7.071 2.929-0.364 0.364-0.695 0.751-0.995 1.157 0.358-0.056 0.724-0.086 1.097-0.086z"></path>
    </symbol>
	<symbol id="icon-star-full" viewBox="0 0 32 32">
        <path d="M32 12.408l-11.056-1.607-4.944-10.018-4.944 10.018-11.056 1.607 8 7.798-1.889 11.011 9.889-5.199 9.889 5.199-1.889-11.011 8-7.798z"></path>
    </symbol>
	<symbol id="icon-star-half" viewBox="0 0 32 32">
		<path d="M32 12.408l-11.056-1.607-4.944-10.018-4.944 10.018-11.056 1.607 8 7.798-1.889 11.011 9.889-5.199 9.889 5.199-1.889-11.011 8-7.798zM16 23.547l-0.029 0.015 0.029-17.837 3.492 7.075 7.807 1.134-5.65 5.507 1.334 7.776-6.983-3.671z"></path>
	</symbol>
	<symbol id="icon-star-empty" viewBox="0 0 32 32">
		<path d="M32 12.408l-11.056-1.607-4.944-10.018-4.944 10.018-11.056 1.607 8 7.798-1.889 11.011 9.889-5.199 9.889 5.199-1.889-11.011 8-7.798zM16 23.547l-6.983 3.671 1.334-7.776-5.65-5.507 7.808-1.134 3.492-7.075 3.492 7.075 7.807 1.134-5.65 5.507 1.334 7.776-6.983-3.671z"></path>
	</symbol>
	<svg id="heat-menu" viewBox="0 -46 512 512"  xmlns="http://www.w3.org/2000/svg"><path d="m409 40c-21.878906 0-44.335938 7.164062-61.65625 19.238281-15.878906-35.5-51.570312-59.238281-91.34375-59.238281s-75.464844 23.738281-91.34375 59.238281c-17.320312-12.074219-39.777344-19.238281-61.65625-19.238281-38.726562 0-75.046875 22.210938-92.527344 56.578125-2.503906 4.925781-.542968 10.941406 4.378906 13.445313 4.921876 2.503906 10.941407.542968 13.445313-4.378907 14.105469-27.726562 43.425781-45.644531 74.703125-45.644531 22.117188 0 44.804688 8.84375 59.210938 23.082031 2.523437 2.492188 6.183593 3.464844 9.605468 2.550781 3.429688-.914062 6.117188-3.578124 7.0625-6.996093 9.546875-34.527344 41.261719-58.636719 77.121094-58.636719s67.574219 24.109375 77.121094 58.636719c.945312 3.417969 3.632812 6.082031 7.0625 6.996093 3.425781.914063 7.082031-.058593 9.605468-2.550781 14.40625-14.238281 37.09375-23.082031 59.210938-23.082031 44.988281 0 83 36.636719 83 80s-38.011719 80-83 80c-2.941406 0-5.941406-.164062-8.910156-.488281-2.832032-.316407-5.648438.597656-7.765625 2.492187-2.113281 1.898438-3.324219 4.605469-3.324219 7.445313v90.550781h-53v-50c0-5.523438-4.476562-10-10-10s-10 4.476562-10 10v50h-50v-50c0-5.523438-4.476562-10-10-10s-10 4.476562-10 10v50h-50v-50c0-5.523438-4.476562-10-10-10s-10 4.476562-10 10v50h-53v-90.550781c0-2.839844-1.210938-5.546875-3.324219-7.445313-2.117187-1.894531-4.941406-2.804687-7.765625-2.492187-34.527344 3.777343-68.183594-14.820313-83.613281-45.15625-2.5-4.925781-8.523437-6.886719-13.445313-4.378907-4.921874 2.503907-6.882812 8.519532-4.378906 13.445313 17.480469 34.367187 53.800782 56.578125 92.527344 56.578125v170c0 5.523438 4.476562 10 10 10h286c5.523438 0 10-4.476562 10-10v-170c54.226562 0 103-43.800781 103-100 0-56.203125-48.777344-100-103-100zm-286 360v-60h266v60zm0 0"/><path d="m10 150c5.519531 0 10-4.480469 10-10s-4.480469-10-10-10-10 4.480469-10 10 4.480469 10 10 10zm0 0"/></svg>
</defs>
</svg>