<svg aria-hidden="true" style="position: absolute; width: 0; height: 0; overflow: hidden;" version="1.1" xmlns="http://www.w3.org/2000/svg" xmlns:xlink="http://www.w3.org/1999/xlink">
    <defs>
        <symbol id="icon-th-small" viewBox="0 0 24 24">
            <path d="M7.5 19c0 1.381-1.119 2.5-2.5 2.5s-2.5-1.119-2.5-2.5c0-1.381 1.119-2.5 2.5-2.5s2.5 1.119 2.5 2.5z"></path>
            <path d="M7.5 12c0 1.381-1.119 2.5-2.5 2.5s-2.5-1.119-2.5-2.5c0-1.381 1.119-2.5 2.5-2.5s2.5 1.119 2.5 2.5z"></path>
            <path d="M7.5 5c0 1.381-1.119 2.5-2.5 2.5s-2.5-1.119-2.5-2.5c0-1.381 1.119-2.5 2.5-2.5s2.5 1.119 2.5 2.5z"></path>
            <path d="M14.5 19c0 1.381-1.119 2.5-2.5 2.5s-2.5-1.119-2.5-2.5c0-1.381 1.119-2.5 2.5-2.5s2.5 1.119 2.5 2.5z"></path>
            <path d="M14.5 12c0 1.381-1.119 2.5-2.5 2.5s-2.5-1.119-2.5-2.5c0-1.381 1.119-2.5 2.5-2.5s2.5 1.119 2.5 2.5z"></path>
            <path d="M14.5 5c0 1.381-1.119 2.5-2.5 2.5s-2.5-1.119-2.5-2.5c0-1.381 1.119-2.5 2.5-2.5s2.5 1.119 2.5 2.5z"></path>
            <path d="M21.5 19c0 1.381-1.119 2.5-2.5 2.5s-2.5-1.119-2.5-2.5c0-1.381 1.119-2.5 2.5-2.5s2.5 1.119 2.5 2.5z"></path>
            <path d="M21.5 12c0 1.381-1.119 2.5-2.5 2.5s-2.5-1.119-2.5-2.5c0-1.381 1.119-2.5 2.5-2.5s2.5 1.119 2.5 2.5z"></path>
            <path d="M21.5 5c0 1.381-1.119 2.5-2.5 2.5s-2.5-1.119-2.5-2.5c0-1.381 1.119-2.5 2.5-2.5s2.5 1.119 2.5 2.5z"></path>
        </symbol>
        <symbol id="icon-heart" viewBox="0 0 24 24">
            <path d="M20.133 5.317c0.88 0.881 1.319 2.031 1.319 3.184s-0.44 2.303-1.319 3.182l-8.133 8.133-8.133-8.133c-0.879-0.879-1.318-2.029-1.318-3.183s0.439-2.304 1.318-3.183 2.029-1.318 3.183-1.318 2.304 0.439 3.183 1.318l1.060 1.060c0.391 0.391 1.024 0.391 1.414 0l1.062-1.062c0.879-0.879 2.029-1.318 3.182-1.317s2.303 0.44 3.182 1.319zM21.547 3.903c-1.269-1.269-2.934-1.904-4.596-1.905s-3.327 0.634-4.597 1.903l-0.354 0.355-0.353-0.353c-1.269-1.269-2.935-1.904-4.597-1.904s-3.328 0.635-4.597 1.904-1.904 2.935-1.904 4.597 0.635 3.328 1.904 4.597l8.84 8.84c0.391 0.391 1.024 0.391 1.414 0l8.84-8.84c1.269-1.269 1.904-2.934 1.905-4.596s-0.634-3.327-1.905-4.598z"></path>
        </symbol>
        <symbol id="icon-shopping-cart" viewBox="0 0 24 24">
            <path d="M11 21c0-0.552-0.225-1.053-0.586-1.414s-0.862-0.586-1.414-0.586-1.053 0.225-1.414 0.586-0.586 0.862-0.586 1.414 0.225 1.053 0.586 1.414 0.862 0.586 1.414 0.586 1.053-0.225 1.414-0.586 0.586-0.862 0.586-1.414zM22 21c0-0.552-0.225-1.053-0.586-1.414s-0.862-0.586-1.414-0.586-1.053 0.225-1.414 0.586-0.586 0.862-0.586 1.414 0.225 1.053 0.586 1.414 0.862 0.586 1.414 0.586 1.053-0.225 1.414-0.586 0.586-0.862 0.586-1.414zM7.221 7h14.57l-1.371 7.191c-0.046 0.228-0.166 0.425-0.332 0.568-0.18 0.156-0.413 0.246-0.688 0.241h-9.734c-0.232 0.003-0.451-0.071-0.626-0.203-0.19-0.143-0.329-0.351-0.379-0.603zM1 2h3.18l0.848 4.239c0.108 0.437 0.502 0.761 0.972 0.761h1.221l-0.4-2h-0.821c-0.552 0-1 0.448-1 1 0 0.053 0.004 0.105 0.012 0.155 0.004 0.028 0.010 0.057 0.017 0.084l1.671 8.347c0.149 0.751 0.57 1.383 1.14 1.811 0.521 0.392 1.17 0.613 1.854 0.603h9.706c0.748 0.015 1.455-0.261 1.995-0.727 0.494-0.426 0.848-1.013 0.985-1.683l1.602-8.402c0.103-0.543-0.252-1.066-0.795-1.17-0.065-0.013-0.13-0.019-0.187-0.018h-16.18l-0.84-4.196c-0.094-0.462-0.497-0.804-0.98-0.804h-4c-0.552 0-1 0.448-1 1s0.448 1 1 1z"></path>
        </symbol>
        <svg  viewBox="0 0 512 512" id="icon-twitter-square" xmlns="http://www.w3.org/2000/svg"><path d="m475.074219 0h-438.148438c-20.394531 0-36.925781 16.53125-36.925781 36.925781v438.148438c0 20.394531 16.53125 36.925781 36.925781 36.925781h438.148438c20.394531 0 36.925781-16.53125 36.925781-36.925781v-438.148438c0-20.394531-16.53125-36.925781-36.925781-36.925781zm-102.1875 199.601562c.113281 2.519532.167969 5.050782.167969 7.59375 0 77.644532-59.101563 167.179688-167.183594 167.183594h.003906-.003906c-33.183594 0-64.0625-9.726562-90.066406-26.394531 4.597656.542969 9.277343.8125 14.015624.8125 27.53125 0 52.867188-9.390625 72.980469-25.152344-25.722656-.476562-47.410156-17.464843-54.894531-40.8125 3.582031.6875 7.265625 1.0625 11.042969 1.0625 5.363281 0 10.558593-.722656 15.496093-2.070312-26.886718-5.382813-47.140624-29.144531-47.140624-57.597657 0-.265624 0-.503906.007812-.75 7.917969 4.402344 16.972656 7.050782 26.613281 7.347657-15.777343-10.527344-26.148437-28.523438-26.148437-48.910157 0-10.765624 2.910156-20.851562 7.957031-29.535156 28.976563 35.554688 72.28125 58.9375 121.117187 61.394532-1.007812-4.304688-1.527343-8.789063-1.527343-13.398438 0-32.4375 26.316406-58.753906 58.765625-58.753906 16.902344 0 32.167968 7.144531 42.890625 18.566406 13.386719-2.640625 25.957031-7.53125 37.3125-14.261719-4.394531 13.714844-13.707031 25.222657-25.839844 32.5 11.886719-1.421875 23.214844-4.574219 33.742187-9.253906-7.863281 11.785156-17.835937 22.136719-29.308593 30.429687zm0 0"/></svg>
        <svg  viewBox="0 0 512 512" id="icon-facebook-square" xmlns="http://www.w3.org/2000/svg"><path d="m332 512v-227c0-8.289062 6.710938-15 15-15h48.28125l7.5-30h-55.78125c-8.289062 0-15-6.710938-15-15v-48.003906c0-25.179688 15.820312-42.289063 43.402344-46.945313 13.886718-2.316406 26.191406-.941406 36.433594 1.140625l5.445312-36.648437c-23.289062-5.246094-45.363281-6.257813-67.117188-3.0625-38.652343 5.664062-62.527343 22.046875-63.164062 58.578125v74.941406c0 8.289062-6.710938 15-15 15h-30v30h30c8.289062 0 15 6.710938 15 15v227zm0 0"/><path d="m437 0h-362c-41.351562 0-75 33.648438-75 75v362c0 41.351562 33.648438 75 75 75h182v-212h-30c-8.289062 0-15-6.710938-15-15v-60c0-8.289062 6.710938-15 15-15h30v-53.277344c0-57.089844 31.398438-86.503906 88.828125-94.921875 29.515625-4.351562 60.644531-1.902343 92.386719 7.121094 7.253906 2.0625 11.835937 9.183594 10.738281 16.625l-9.84375 66.210937c-.617187 4.144532-2.960937 7.851563-6.429687 10.210938-5.90625 3.996094-10.367188 2.539062-16.613282 1.011719-10.457031-2.625-22.339844-5.625-35.652344-3.339844-16.992187 2.855469-18.414062 10.457031-18.414062 17.355469v33.003906h60c4.613281 0 8.980469 2.125 11.820312 5.769531 2.84375 3.632813 3.855469 8.378907 2.726563 12.863281l-15 60c-1.671875 6.679688-7.660156 11.367188-14.546875 11.367188h-45v212h75c41.351562 0 75-33.648438 75-75v-362c0-41.351562-33.648438-75-75-75zm0 0"/></svg>
        <symbol id="icon-linkedin" viewBox="0 0 32 32">
             <path d="M29 0h-26c-1.65 0-3 1.35-3 3v26c0 1.65 1.35 3 3 3h26c1.65 0 3-1.35 3-3v-26c0-1.65-1.35-3-3-3zM12 26h-4v-14h4v14zM10 10c-1.106 0-2-0.894-2-2s0.894-2 2-2c1.106 0 2 0.894 2 2s-0.894 2-2 2zM26 26h-4v-8c0-1.106-0.894-2-2-2s-2 0.894-2 2v8h-4v-14h4v2.481c0.825-1.131 2.087-2.481 3.5-2.481 2.488 0 4.5 2.238 4.5 5v9z"></path>
        </symbol>
        <svg viewBox="0 0 512 512" id="icon-instagram-square"  xmlns="http://www.w3.org/2000/svg"><path class="fgf" d="m376 91h-240c-24.8125 0-45 20.1875-45 45v240c0 24.8125 20.1875 45 45 45h240c24.8125 0 45-20.1875 45-45v-240c0-24.8125-20.1875-45-45-45zm-120 270c-57.890625 0-105-47.109375-105-105s47.109375-105 105-105 105 47.109375 105 105-47.109375 105-105 105zm105-180c-16.539062 0-30-13.460938-30-30s13.460938-30 30-30 30 13.460938 30 30-13.460938 30-30 30zm0 0"/><path d="m256 181c-41.351562 0-75 33.648438-75 75s33.648438 75 75 75 75-33.648438 75-75-33.648438-75-75-75zm0 0"/><path d="m436 0h-360c-41.351562 0-76 34.648438-76 76v360c0 41.351562 34.648438 76 76 76h360c41.351562 0 76-34.648438 76-76v-360c0-41.351562-34.648438-76-76-76zm15 376c0 41.351562-33.648438 75-75 75h-240c-41.351562 0-75-33.648438-75-75v-240c0-41.351562 33.648438-75 75-75h240c41.351562 0 75 33.648438 75 75zm0 0"/></svg>
        <svg  viewBox="0 0 60 59" id='feature-one' xmlns="http://www.w3.org/2000/svg"><g ><g id="026---Idea" ><path id="Shape" d="m55.143 30.953c-.180728-.9415823-1.0042302-1.6224504-1.963-1.623h-1.931l-.142-.851c-.141662-.8547477-.8150907-1.5225343-1.671-1.657-.19-.03-.382-.05-.571-.076.3274689-1.5288062.0554127-3.1249886-.76-4.459.4308169-1.1175257.3504088-2.3676964-.2200195-3.4208244s-1.5736058-1.8034792-2.7449805-2.0531756c-.7488911-4.0080145-4.2356951-6.9214442-8.313-6.946-.1 0-.189.013-.284.016-.6515045-1.02315288-1.7256011-1.70220088-2.929298-1.85191345-1.2036969-.14971258-2.4114108.24552995-3.293702 1.07791345-1.111462-.72248434-2.4083569-1.1076628-3.734-1.109-2.1359492.00874082-4.1489959 1.00014234-5.458 2.688-1.4534677-.4238352-3.0208066-.1635964-4.2593137.7072106-1.2385071.8708071-2.0137239 2.2576432-2.1066863 3.7687894-1.5266629.641743-2.5200364 2.1359406-2.521 3.792.003134.2870658.0366541.572993.1.853-1.3501124 2.0353266-1.7029006 4.5736359-.959 6.9-.268.037-.542.07-.8.108-.86035287.129809-1.53978521.7979443-1.684 1.656l-.142.854h-1.936c-.9571508.0006578-1.77966295.679377-1.962 1.619l-4.379 22.482c-.17101461.8804657.06089033 1.7912635.6321472 2.4827341.57125686.6914705 1.42193438 1.0910707 2.3188528 1.0892659h20.854c.828 1.366 3.344 2 5.716 2 2.347 0 4.839-.619 5.691-2h20.879c.8967062.0017463 1.7471793-.3977201 2.318396-1.0889483.5712166-.6912283.8032791-1.6017364.632604-2.4820517zm-39.878-10.187c-.811938-.4881877-1.1994384-1.4573229-.9479146-2.3707266.2515237-.9134037 1.08052-1.5475526 2.0279146-1.5512734.6630417-.0019666 1.2870585.313201 1.679.848.2129303.2868843.5627369.4383793.9176511.3974184.3549143-.0409609.6610161-.2681548.803-.596.141984-.3278452.0982792-.7065341-.1146511-.9934184-.6790297-.9075527-1.708075-1.4881143-2.836-1.6.2981423-1.4004791 1.5331428-2.403058 2.965-2.407.1220124.0061884.2435554.0195448.364.04-.0804495.2050145-.150538.413945-.21.626-.1244587.5293486.1968889 1.0611281.7233961 1.1971062.5265073.1359781 1.0651711-.173691 1.2126039-.6971062.1137118-.439513.288408-.8609381.519-1.252.8870486-1.4860588 2.4873452-2.3992674 4.218-2.407.9418914.00417 1.8622497.2821189 2.649.8-.1498789.4211076-.2292778.8640519-.235 1.311 0 .5522847.4477153 1 1 1s1-.4477153 1-1c0-1.161731.941769-2.1035 2.1035-2.1035s2.1035.941769 2.1035 2.1035c0 .5522847.4477153 1 1 1s1-.4477153 1-1c0-.077-.019-.15-.023-.227 2.8633441.1766672 5.2711283 2.2120213 5.922 5.006-.4664661.1358062-.9047548.3542731-1.294.645-.2858125.2143594-.4355547.5649147-.3928203.9196152.0427344.3547006.2714531.6596589.6.8.3285469.1403412.7070078.0947442.9928203-.1196152.7991086-.5916463 1.9029846-.5444616 2.6486913.113217.7457068.6576787.9304614 1.7470062.4433087 2.613783-.217683.382746-.548483.6887447-.947.876-.4179164.2023494-.6415685.6657486-.5399835 1.1188268.1015849.4530783.5016789.776627.9659835.7811732.1466355.0002227.2914783-.0322303.424-.095.2650236-.1284335.515464-.2850007.747-.467.5169232 1.4695642.1927165 3.1040105-.846 4.265l-.024.025c-1.3027747 1.4112776-3.3809864 1.7926906-5.1.936-.1683686-.0889266-.3301196-.1898539-.484-.302.7365719-1.032642.8383019-2.3890425.264-3.52-.1607695-.3192168-.4796268-.5284158-.8364614-.5487937-.3568347-.0203779-.6974349.1511611-.8935.45s-.2178081.6795769-.0570386.9987937c.3288222.6609419.1237272 1.4630251-.482 1.885-.3557078.2368235-.7951482.3117249-1.2092239.2061089s-.7639552-.3818448-.9627761-.7601089c-.1598763-.3195741-.4780989-.5295797-.8347964-.5509098-.3566974-.02133-.6976789.149256-.8945.4475001-.1968211.298244-.21958.6788356-.0597036.9984097.5864681 1.1838838 1.7948213 1.9315427 3.116 1.928.4301201-.0029151.8558543-.086705 1.255-.247.3571725.3127.7506661.5812964 1.172.8 1.4252119.7387529 3.0825117.8919607 4.619.427-.9882273 1.3493456-2.4672193 2.2562069-4.118 2.525-.5135633.083605-.8771992.5470675-.8362143 1.0657749.040985.5187073.4728938.919311.9932143.9212251.0532255-.0000175.1063747-.0040287.159-.012.6089289-.1054158 1.2040242-.279181 1.774-.518.3080574.5446553.5580939 1.1201415.746 1.717.0344142.1042128.0519685.2132519.052.323-.0002519.4322075-.2583895.8225619-.656.992-.4599764.1779113-.9822029.0375453-1.291-.347-.7744533-.9094404-1.7885601-1.5833173-2.927-1.945-2.161-.724-2.995-1.371-3.349-2.075.518862-.0647395 1.0315675-.1717622 1.533-.32.3415459-.1050361.6011113-.384306.6809203-.7326115.0798091-.3483054-.0322631-.7127306-.294-.956s-.6333744-.3284246-.9749203-.2233885c-.5611159.1721511-1.1403319.2785308-1.726.317-1.1283402.0881894-2.2619048-.0828373-3.314-.5-.3950277-.1540605-.8442701-.0422508-1.121.279-1.4559635 1.6724538-3.9478574 1.9567152-5.7430816.6551386-1.7952242-1.3015765-2.2998086-3.7583497-1.1629184-5.6621386.1841704-.307427.1903405-.6897551.0161861-1.0029649s-.5021752-.5097173-.8605-.5155-.6925157.1800378-.8766861.4874649c-.238586.406059-.4304726.8378039-.572 1.287-.7874809-.041431-1.4084206-.6855304-1.421-1.474v-.025c-.0005173-.2638693-.1064589-.5165907-.2942597-.7019501-.1878009-.1853594-.4418868-.2879853-.7057403-.2850499-.5546788.005491-1.0011256.4572951-1 1.012.0044528 1.7734668 1.3418538 3.2598987 3.105 3.451.0035845.3352284.0340151.6696311.091 1-2.2327928.4831347-4.5486183-.3194455-6.0036118-2.0806316-1.4549936-1.7611862-1.8061655-4.1868533-.9103882-6.2883684.2237217.2263432.4734607.425396.744.593.4723969.2767228 1.0794921.1221344 1.3620132-.3468178.2825212-.4689522.1354231-1.0779056-.3300132-1.3661822zm-4.4 8.033c.461-.068.937-.128 1.41-.19 1.8489234 2.9546304 5.3851304 4.389274 8.77 3.558.9094997 1.7261663 2.5714022 2.9299599 4.4950808 3.2559972 1.9236787.3260372 3.8894278-.262919 5.3169192-1.5929972.6795698.202697 1.3795072.3294705 2.087.378.483 1.832 1.879 2.942 4.812 3.925.7906821.2478808 1.4960375.7124592 2.036 1.341.6002998.7138339 1.4833272 1.1286667 2.416 1.135.4079034-.0001344.8115999-.0824381 1.187-.242 1.1335438-.4844411 1.8688883-1.5982775 1.869-2.831.0009195-.3214858-.0504164-.6409841-.152-.946-.2248837-.7065599-.5210757-1.3884046-.884-2.035 1.7004725-1.2224254 2.8850466-3.0340431 3.323-5.082.2129773-.253039.4055794-.5225483.576-.806.335.043.67.081 1.007.137l3.61 21.714c-7.0564939-2.3562987-14.6875061-2.3562987-21.744 0v-12.518c0-.5522847-.4477153-1-1-1s-1 .4477153-1 1v12.522c-7.0556977-2.358461-14.6865688-2.3612685-21.744-.008zm-8.214 25.833c-.18895586-.228251-.2659823-.5290209-.21-.82l4.379-22.482h1.6l-3.138 18.859c-.11037243.6864386.14237999 1.3811045.66806574 1.836115.52568576.4550104 1.24941507.6055441 1.91293426.397885 5.3310039-1.7271415 11.0104532-2.0875013 16.517-1.048l-.298 3.625h-20.652c-.30168092.0002141-.58756596-.1348382-.779-.368zm27.349 2.368c-2.409 0-3.791-.712-3.994-1.029l.344-4.15c1.0995773.2737803 2.1756369.6345846 3.218 1.079.1348035.0649541.2823664.0991122.432.1.1500306-.0002285.2980631-.0344161.433-.1 1.0417263-.447028 2.1174766-.8101815 3.217-1.086l.344 4.156c-.203.318-1.585 1.03-3.994 1.03zm27.349-2.368c-.191434.2331618-.4773191.3682141-.779.368h-20.649l-.3-3.632c5.5095832-1.037362 11.191496-.6739038 16.524 1.057.6633643.2049213 1.3855275.0522508 1.9091961-.4036178.5236686-.4558685.7743775-1.1501113.6628039-1.8353822l-3.135-18.855h1.6l4.38 22.48c.055473.2917534-.0226859.5930135-.213.821z"/><path id="Shape" d="m26.686 22.685c-.4093551.3703847-.441136 1.0024199-.071 1.412.8483053.9366084 1.9694213 1.5830428 3.205 1.848-.5595777.7885583-1.4670723 1.2564735-2.434 1.255-.5522847 0-1 .4477153-1 1s.4477153 1 1 1c2.070157.0082594 3.9276303-1.2703233 4.659-3.207 2.4865405-.4120764 4.4551291-2.3260373 4.937-4.8.0744538-.3538613-.0479307-.7203513-.3200693-.9584726-.2721387-.2381213-.6516311-.3107736-.9924777-.1900059-.3408465.1207677-.5899418.4161394-.651453.7724785-.1960875 1.031393-.7911685 1.9437787-1.656 2.539-1.6637494 1.1205406-3.8950927.8662081-5.264-.6-.3703847-.4093551-1.0024199-.441136-1.412-.071z"/><path id="Shape" d="m23.2 21.6c.5522847 0 1-.4477153 1-1 0-.6895629.2739278-1.350883.7615224-1.8384776s1.1489147-.7615224 1.8384776-.7615224c.5522847 0 1-.4477153 1-1s-.4477153-1-1-1c-2.5393675.0027557-4.5972443 2.0606325-4.6 4.6 0 .2652165.1053568.5195704.2928932.7071068s.4418903.2928932.7071068.2928932z"/><path id="Shape" d="m31 2v-1c0-.55228475-.4477153-1-1-1s-1 .44771525-1 1v1c0 .55228475.4477153 1 1 1s1-.44771525 1-1z"/><path id="Shape" d="m46.41 7.176-1 1c-.2599566.25107447-.3642126.62287789-.2726972.97250732.0915155.34962944.3645604.6226744.7141899.71418984.3496294.09151544.7214328-.01274058.9725073-.27269716l1-1c.2599566-.25107447.3642126-.62287789.2726972-.97250732-.0915155-.34962944-.3645604-.6226744-.7141899-.71418984-.3496294-.09151544-.7214328.01274058-.9725073.27269716z"/><path id="Shape" d="m13.883 9.883c.4043959-.00008635.7689341-.2437275.923678-.61734544s.0692299-.80366031-.216678-1.08965456l-1-1c-.2510745-.25995658-.6228779-.3642126-.9725073-.27269716-.3496295.09151544-.6226744.3645604-.7141899.71418984-.0915154.34962943.0127406.72143285.2726972.97250732l1 1c.1874927.18754937.4418052.29294336.707.293z"/><path id="Shape" d="m21.581 5.675c.1313847-.00028124.2614627-.02609305.383-.076.2451011-.10152817.4398132-.29629087.5412776-.54141839s.1013645-.52052773-.0002776-.76558161l-1.149-2.772c-.1316192-.33762411-.43559-.57762635-.7945371-.62733226-.358947-.04970591-.7166983.09866304-.9351117.38781568s-.2633091.67383911-.1173512 1.00551658l1.148 2.772c.1548963.37359074.5195709.61710177.924.617z"/><path id="Shape" d="m39.95.979c-.5100349-.21099754-1.0945733.0311428-1.306.541l-1.149 2.772c-.1019555.24516905-.10222.52082095-.0007353.76618523.1014848.24536427.2963859.44029399.5417353.54181477.1215373.04990695.2516153.07571876.383.076.4044291.00010177.7691037-.24340926.924-.617l1.148-2.772c.1019555-.24516905.10222-.52082095.0007353-.76618523-.1014848-.24536427-.2963859-.44029399-.5417353-.54181477z"/><path id="Shape" d="m50.325 17.582c.1314874-.0002372.2616372-.0264031.383-.077l2.771-1.148c.3301134-.1366541.5622467-.4390411.6089575-.7932547.0467108-.3542137-.0990974-.7064405-.3825-.924-.2834026-.2175596-.6613441-.2673994-.9914575-.1307453l-2.772 1.148c-.4423387.1816955-.6941348.6511321-.6008203 1.1201409.0933144.4690087.5056209.8063148.9838203.8048591z"/><path id="Shape" d="m9.292 17.505c.51031111.2115251 1.0954749-.0306889 1.307-.541s-.0306889-1.0954749-.541-1.307l-2.772-1.148c-.51031111-.2112489-1.09525108.0311889-1.3065.5415s.03118889 1.0952511.5415 1.3065z"/></g></g></svg>
        <svg xmlns="http://www.w3.org/2000/svg" viewBox="0 0 64 64" id='feature-two'><g id="graduate-avatar-laptop-education"><path d="M61,56H59.7a7.124,7.124,0,0,0,.3-2,6.952,6.952,0,0,0-2-4.89V41a5.017,5.017,0,0,0-4-4.9V33a3.009,3.009,0,0,0-3-3H40.48A10.928,10.928,0,0,0,43,23V21.86a3.987,3.987,0,0,0-.1-7.75l-.63-5L45,8.33V12h2V7a1,1,0,0,0-.73-.96l-14-4a.991.991,0,0,0-.54,0l-14,4a1,1,0,0,0,0,1.92l4,1.15-.63,5a3.987,3.987,0,0,0-.1,7.75V23a11.03,11.03,0,0,0,2.53,7H13a3.009,3.009,0,0,0-3,3v3.1A5.017,5.017,0,0,0,6,41v8.11A6.952,6.952,0,0,0,4,54a7.062,7.062,0,0,0,.29,2H3a1,1,0,0,0-1,1v4a1,1,0,0,0,1,1H61a1,1,0,0,0,1-1V57A1,1,0,0,0,61,56ZM43,16.28a1.979,1.979,0,0,1,0,3.44ZM21,19.72a1.979,1.979,0,0,1,0-3.44ZM54,38.17A3.014,3.014,0,0,1,56,41v6.68a7.03,7.03,0,0,0-2-.6ZM54,49.1A5.017,5.017,0,0,1,58,54a5.085,5.085,0,0,1-.42,2H55.82A3,3,0,0,0,56,55V54a2.006,2.006,0,0,0-2-2ZM21.64,7,32,4.04,42.36,7,32,9.96Zm19.23,7H23.13l.55-4.34,8.05,2.3a.931.931,0,0,0,.54,0l8.05-2.3ZM23,23V16H41v7a8.942,8.942,0,0,1-2.64,6.36,6.406,6.406,0,0,1-.74.64H26.37A9.039,9.039,0,0,1,23,23ZM12,33a1,1,0,0,1,1-1H51a1,1,0,0,1,1,1V52H12ZM54,54v1a1,1,0,0,1-1,1H11a1,1,0,0,1-1-1V54ZM8,41a3.014,3.014,0,0,1,2-2.83v8.91a7.03,7.03,0,0,0-2,.6Zm2,8.1V52a2.006,2.006,0,0,0-2,2v1a3,3,0,0,0,.18,1H6.42A5,5,0,0,1,10,49.1ZM60,60H4V58H60Z"/><path d="M32,46a4,4,0,0,0,4-4H34a2,2,0,1,1-2-2V38a4,4,0,0,0,0,8Z"/><path d="M28,23a1,1,0,0,0,1-1V20a1,1,0,0,0-2,0v2A1,1,0,0,0,28,23Z"/><path d="M36,19a1,1,0,0,0-1,1v2a1,1,0,0,0,2,0V20A1,1,0,0,0,36,19Z"/><path d="M32,27c-1.936,0-3-.751-3-1H27c0,1.71,2.149,3,5,3s5-1.29,5-3H35C35,26.249,33.936,27,32,27Z"/></g></svg>
        <svg version="1.1" id="feature-tree" xmlns="http://www.w3.org/2000/svg" xmlns:xlink="http://www.w3.org/1999/xlink" x="0px" y="0px"
	 viewBox="0 0 512 512"  xml:space="preserve">
            <path d="M341.333,281.6c-28.237,0-51.2,22.963-51.2,51.2c0,28.237,22.963,51.2,51.2,51.2c28.237,0,51.2-22.963,51.2-51.2
                C392.533,304.563,369.57,281.6,341.333,281.6z M341.333,366.933c-18.825,0-34.133-15.309-34.133-34.133
                c0-18.825,15.309-34.133,34.133-34.133c18.825,0,34.133,15.309,34.133,34.133C375.467,351.625,360.158,366.933,341.333,366.933z"
                />
            <path d="M358.4,366.933v35.26l-12.339-8.226c-2.867-1.92-6.596-1.92-9.464,0l-12.331,8.226v-35.26H307.2v51.2
                c0,3.149,1.732,6.042,4.514,7.526c2.765,1.485,6.144,1.314,8.755-0.427l20.864-13.909l20.864,13.909
                c1.425,0.947,3.081,1.434,4.736,1.434c1.382,0,2.765-0.333,4.028-1.007c2.773-1.485,4.506-4.378,4.506-7.526v-51.2H358.4z"/>
            <rect x="196.267" y="85.333" width="110.933" height="17.067"/>
            <rect x="119.467" y="136.533" width="273.067" height="17.067"/>
            <rect x="119.467" y="187.733" width="187.733" height="17.067"/>
            <rect x="341.333" y="187.733" width="51.2" height="17.067"/>
            <rect x="119.467" y="238.933" width="273.067" height="17.067"/>
            <rect x="119.467" y="290.133" width="102.4" height="17.067"/>
            <rect x="119.467" y="332.8" width="42.667" height="17.067"/>
            <rect x="196.267" y="332.8" width="25.6" height="17.067"/>
            <path d="M469.333,0c-23.526,0-42.667,19.14-42.667,42.667v17.067c0,4.71,3.814,8.533,8.533,8.533h68.267
                c4.719,0,8.533-3.823,8.533-8.533V42.667C512,19.14,492.86,0,469.333,0z M494.933,51.2h-51.2v-8.533
                c0-14.114,11.486-25.6,25.6-25.6s25.6,11.486,25.6,25.6V51.2z"/>
            <path d="M469.333,0h-358.4C87.407,0,68.267,19.14,68.267,42.667v409.6h17.067v-409.6c0-14.114,11.486-25.6,25.6-25.6h324.284
                c-5.367,7.134-8.55,16-8.55,25.6v426.667c0,14.114-11.486,25.6-25.6,25.6H76.8V512h324.267c23.526,0,42.667-19.14,42.667-42.667
                V42.667c0-14.114,11.486-25.6,25.6-25.6c4.719,0,8.533-3.823,8.533-8.533S474.052,0,469.333,0z"/>
            <path d="M401.067,494.933c-14.114,0-25.6-11.486-25.6-25.6v-17.067c0-4.719-3.814-8.533-8.533-8.533H8.533
                c-4.71,0-8.533,3.814-8.533,8.533v17.067C0,492.86,19.14,512,42.667,512h358.4c4.719,0,8.533-3.814,8.533-8.533
                C409.6,498.748,405.786,494.933,401.067,494.933z M42.667,494.933c-14.114,0-25.6-11.486-25.6-25.6V460.8H358.4v8.533
                c0,9.6,3.183,18.466,8.55,25.6H42.667z"/>
        </svg>
        <symbol id="icon-star-full" viewBox="0 0 32 32">
            <path d="M32 12.408l-11.056-1.607-4.944-10.018-4.944 10.018-11.056 1.607 8 7.798-1.889 11.011 9.889-5.199 9.889 5.199-1.889-11.011 8-7.798z"></path>
        </symbol>
        <symbol id="icon-star-half" viewBox="0 0 32 32">
            <path d="M32 12.408l-11.056-1.607-4.944-10.018-4.944 10.018-11.056 1.607 8 7.798-1.889 11.011 9.889-5.199 9.889 5.199-1.889-11.011 8-7.798zM16 23.547l-0.029 0.015 0.029-17.837 3.492 7.075 7.807 1.134-5.65 5.507 1.334 7.776-6.983-3.671z"></path>
        </symbol>
        <symbol id="icon-star-empty" viewBox="0 0 32 32">
            <path d="M32 12.408l-11.056-1.607-4.944-10.018-4.944 10.018-11.056 1.607 8 7.798-1.889 11.011 9.889-5.199 9.889 5.199-1.889-11.011 8-7.798zM16 23.547l-6.983 3.671 1.334-7.776-5.65-5.507 7.808-1.134 3.492-7.075 3.492 7.075 7.807 1.134-5.65 5.507 1.334 7.776-6.983-3.671z"></path>
        </symbol>
        <symbol id="icon-point-up" viewBox="0 0 32 32">
            <path d="M30 19v-5c0-1.654-1.346-3-3-3-0.535 0-1.037 0.14-1.472 0.386-0.534-0.833-1.467-1.386-2.528-1.386-0.768 0-1.469 0.29-2 0.766-0.531-0.476-1.232-0.766-2-0.766-0.35 0-0.687 0.060-1 0.171v-7.171c0-1.654-1.346-3-3-3s-3 1.346-3 3v12.334l-5.501-2.932c-0.454-0.262-0.973-0.401-1.499-0.401-1.654 0-3 1.346-3 3 0 0.824 0.327 1.592 0.922 2.163 0.008 0.007 0.015 0.015 0.023 0.022l7.474 6.815h-1.419c-0.552 0-1 0.448-1 1v6c0 0.552 0.448 1 1 1h20c0.552 0 1-0.448 1-1v-6c0-0.552-0.448-1-1-1h-1.382l2.276-4.553c0.069-0.139 0.106-0.292 0.106-0.447zM28 27c0 0.552-0.448 1-1 1s-1-0.448-1-1 0.448-1 1-1 1 0.448 1 1zM28 18.764l-2.618 5.236h-11.995l-9.088-8.286c-0.193-0.19-0.299-0.443-0.299-0.714 0-0.551 0.449-1 1-1 0.171 0 0.332 0.041 0.479 0.122 0.017 0.010 0.033 0.020 0.051 0.029l7 3.732c0.31 0.165 0.684 0.156 0.985-0.025s0.485-0.506 0.485-0.857v-14c0-0.551 0.449-1 1-1s1 0.449 1 1v10c0 0.552 0.448 1 1 1s1-0.448 1-1c0-0.551 0.449-1 1-1s1 0.449 1 1c0 0.552 0.448 1 1 1s1-0.448 1-1c0-0.551 0.449-1 1-1s1 0.449 1 1v1c0 0.552 0.448 1 1 1s1-0.448 1-1c0-0.551 0.449-1 1-1s1 0.449 1 1v4.764z"></path>
        </symbol>
        <symbol id="icon-enter" viewBox="0 0 32 32">
            <path d="M12 16h-10v-4h10v-4l6 6-6 6zM32 0v26l-12 6v-6h-12v-8h2v6h10v-18l8-4h-18v8h-2v-10z"></path>
        </symbol>
        <symbol id="icon-locked" viewBox="0 0 32 32">
            <path d="M29 32h-26c-0.552 0-1-0.447-1-1v-16c0-0.553 0.448-1 1-1h3v-4c0-5.523 4.477-10 10-10s10 4.477 10 10v4h3c0.553 0 1 0.447 1 1v16c0 0.553-0.447 1-1 1zM22 9.5c0-3.038-2.687-5.5-6-5.5s-6 2.462-6 5.5v4.5h12v-4.5z"></path>
        </symbol>
        <symbol id="icon-envelope" viewBox="0 0 20 20">
            <path d="M18 2c1.105 0 2 0.895 2 2v0 12c0 1.105-0.895 2-2 2v0h-16c-1.105 0-2-0.895-2-2v0-12c0-1.1 0.9-2 2-2h16zM13.63 11.1l6.37 4.9v-2l-5.12-3.9 5.12-4.1v-2l-10 8-10-8v2l5.12 4.1-5.12 3.9v2l6.37-4.9 3.63 2.9 3.63-2.9z"></path>
        </symbol>
        <symbol id="icon-user" viewBox="0 0 32 32">
            <path d="M18 22.082v-1.649c2.203-1.241 4-4.337 4-7.432 0-4.971 0-9-6-9s-6 4.029-6 9c0 3.096 1.797 6.191 4 7.432v1.649c-6.784 0.555-12 3.888-12 7.918h28c0-4.030-5.216-7.364-12-7.918z"></path>
        </symbol>
        <svg id="blob" viewBox="0 0 200 200" xmlns="http://www.w3.org/2000/svg" width="100%" height="100%">
            <path d="M24.7,20.5C13.8,33.1,-25.7,35.3,-34.5,23.9C-43.4,12.6,-21.7,-12.5,-2,-13.6C17.8,-14.8,35.6,8,24.7,20.5Z" transform="translate(100 100)" />
        </svg>
        <symbol id="icon-keyboard_arrow_right" viewBox="0 0 24 24">
            <path d="M8.578 16.594l4.594-4.594-4.594-4.594 1.406-1.406 6 6-6 6z"></path>
        </symbol>
        <symbol id="icon-filter" viewBox="0 0 24 24">
            <path d="M19.845 4l-6.609 7.814c-0.147 0.173-0.236 0.399-0.236 0.646v6.922l-2-1v-5.922c0.001-0.227-0.077-0.457-0.236-0.646l-6.609-7.814zM22 2h-20c-0.552 0-1 0.448-1 1 0 0.247 0.089 0.473 0.236 0.646l7.764 9.18v6.174c0 0.389 0.222 0.727 0.553 0.894l4 2c0.494 0.247 1.095 0.047 1.342-0.447 0.072-0.146 0.106-0.301 0.105-0.447v-8.174l7.764-9.18c0.357-0.422 0.304-1.053-0.118-1.409-0.189-0.16-0.419-0.238-0.646-0.237z"></path>
        </symbol>
        <symbol id="icon-users" viewBox="0 0 36 32">
            <path d="M24 24.082v-1.649c2.203-1.241 4-4.337 4-7.432 0-4.971 0-9-6-9s-6 4.029-6 9c0 3.096 1.797 6.191 4 7.432v1.649c-6.784 0.555-12 3.888-12 7.918h28c0-4.030-5.216-7.364-12-7.918z"></path>
            <path d="M10.225 24.854c1.728-1.13 3.877-1.989 6.243-2.513-0.47-0.556-0.897-1.176-1.265-1.844-0.95-1.726-1.453-3.627-1.453-5.497 0-2.689 0-5.228 0.956-7.305 0.928-2.016 2.598-3.265 4.976-3.734-0.529-2.39-1.936-3.961-5.682-3.961-6 0-6 4.029-6 9 0 3.096 1.797 6.191 4 7.432v1.649c-6.784 0.555-12 3.888-12 7.918h8.719c0.454-0.403 0.956-0.787 1.506-1.146z"></path>
        </symbol>
        <symbol id="icon-play2" viewBox="0 0 32 32">
            <path d="M16 0c-8.837 0-16 7.163-16 16s7.163 16 16 16 16-7.163 16-16-7.163-16-16-16zM16 29c-7.18 0-13-5.82-13-13s5.82-13 13-13 13 5.82 13 13-5.82 13-13 13zM12 9l12 7-12 7z"></path>
        </symbol>
        <symbol id="icon-add_shopping_cart" viewBox="0 0 24 24">
         <path d="M7.172 14.766q0 0.234 0.234 0.234h11.578v2.016h-12q-0.797 0-1.383-0.609t-0.586-1.406q0-0.469 0.234-0.938l1.359-2.484-3.609-7.594h-2.016v-1.969h3.281q0.938 1.969 1.875 3.984 0.234 0.422 1.078 2.227t1.313 2.789h7.031q3.516-6.375 3.844-7.031l1.734 0.984-3.844 6.984q-0.563 1.031-1.734 1.031h-7.453l-0.891 1.641zM17.016 18q0.797 0 1.383 0.609t0.586 1.406-0.586 1.383-1.383 0.586-1.406-0.586-0.609-1.383 0.609-1.406 1.406-0.609zM6.984 18q0.797 0 1.406 0.609t0.609 1.406-0.609 1.383-1.406 0.586-1.383-0.586-0.586-1.383 0.586-1.406 1.383-0.609zM11.016 9v-3h-3v-2.016h3v-3h1.969v3h3v2.016h-3v3h-1.969z"></path>
        </symbol>
        <symbol id="icon-heart-plus" viewBox="0 0 32 32">
            <path d="M24 12.977c-3.866 0-7 3.158-7 7.055 0 2.22 1.020 4.197 2.609 5.491-2.056 1.525-3.609 2.488-3.609 2.488s-14-8.652-14-15.622c0-4.2 2.583-8.399 7.5-8.399 4.5 0 6.5 4.296 6.5 4.296s1.75-4.296 6.5-4.296 7.416 4.115 7.416 8.399c0 0.958-0.272 1.943-0.716 2.932-1.281-1.436-3.134-2.344-5.2-2.344zM24 13.984c3.313 0 6 2.707 6 6.047s-2.687 6.048-6 6.048c-3.314 0-6-2.708-6-6.048s2.686-6.047 6-6.047zM21 21.039h2v2.016h2v-2.016h2v-2.016h-2v-2.016h-2v2.016h-2v2.016z"></path>
        </symbol>
        <symbol id="icon-check1" viewBox="0 0 20 20">
            <path d="M8.294 16.998c-0.435 0-0.847-0.203-1.111-0.553l-3.573-4.721c-0.465-0.613-0.344-1.486 0.27-1.951 0.615-0.467 1.488-0.344 1.953 0.27l2.351 3.104 5.911-9.492c0.407-0.652 1.267-0.852 1.921-0.445s0.854 1.266 0.446 1.92l-6.984 11.21c-0.242 0.391-0.661 0.635-1.12 0.656-0.022 0.002-0.042 0.002-0.064 0.002z"></path>
        </symbol>
        <symbol id="icon-medal" viewBox="0 0 32 32">
            <path d="M17.062 11.637l4.298-10.637 5.563 2.248-4.367 10.808c-1.502-1.317-3.401-2.191-5.494-2.419v0 0zM9.369 14.062l-4.369-10.814 5.563-2.248 4.298 10.638c-2.093 0.23-3.991 1.106-5.492 2.424v0 0zM15.966 30.578c4.971 0 9-4.029 9-9s-4.029-9-9-9c-4.971 0-9 4.029-9 9s4.029 9 9 9v0 0zM15.966 24.27l-3.5 2.308 1.5-4-3-2h3.5l1.5-4 1.5 4h3.5l-3 2 1.5 4-3.5-2.308z"></path>
        </symbol>
        <symbol id="icon-cloud-download" viewBox="0 0 30 28">
            <path d="M20 14.5c0-0.281-0.219-0.5-0.5-0.5h-3.5v-5.5c0-0.266-0.234-0.5-0.5-0.5h-3c-0.266 0-0.5 0.234-0.5 0.5v5.5h-3.5c-0.281 0-0.5 0.234-0.5 0.5 0 0.125 0.047 0.266 0.141 0.359l5.5 5.5c0.094 0.094 0.219 0.141 0.359 0.141 0.125 0 0.266-0.047 0.359-0.141l5.484-5.484c0.094-0.109 0.156-0.234 0.156-0.375zM30 18c0 3.313-2.688 6-6 6h-17c-3.859 0-7-3.141-7-7 0-2.719 1.578-5.187 4.031-6.328-0.016-0.234-0.031-0.453-0.031-0.672 0-4.422 3.578-8 8-8 3.25 0 6.172 1.969 7.406 4.969 0.719-0.625 1.641-0.969 2.594-0.969 2.203 0 4 1.797 4 4 0 0.766-0.219 1.516-0.641 2.156 2.719 0.641 4.641 3.063 4.641 5.844z"></path>
        </symbol>
        <symbol id="icon-document" viewBox="0 0 20 20">
            <path d="M4 18h12v-12h-4v-4h-8v16zM2 19v-19h12l4 4v16h-16v-1z"></path>
        </symbol>
        <symbol id="icon-heart2" viewBox="0 0 32 32">
            <path d="M29.193 5.265c-3.629-3.596-9.432-3.671-13.191-0.288-3.76-3.383-9.561-3.308-13.192 0.288-3.741 3.704-3.741 9.709 0 13.415 1.069 1.059 11.053 10.941 11.053 10.941 1.183 1.172 3.096 1.172 4.278 0 0 0 10.932-10.822 11.053-10.941 3.742-3.706 3.742-9.711-0.001-13.415zM27.768 17.268l-11.053 10.941c-0.393 0.391-1.034 0.391-1.425 0l-11.053-10.941c-2.95-2.92-2.95-7.671 0-10.591 2.844-2.815 7.416-2.914 10.409-0.222l1.356 1.22 1.355-1.22c2.994-2.692 7.566-2.594 10.41 0.222 2.95 2.919 2.95 7.67 0.001 10.591zM9.253 7.501c0.277 0 0.5 0.224 0.5 0.5s-0.224 0.5-0.5 0.5h-0.001c-1.794 0-3.249 1.455-3.249 3.249v0.001c0 0.276-0.224 0.5-0.5 0.5s-0.5-0.224-0.5-0.5v0c0-2.346 1.901-4.247 4.246-4.249 0.002 0 0.002-0.001 0.004-0.001z"></path>
        </symbol>
        <symbol id="icon-attachment" viewBox="0 0 32 32">
            <path d="M20.807 10.22l-2.030-2.029-10.15 10.148c-1.682 1.681-1.682 4.408 0 6.089s4.408 1.681 6.090 0l12.18-12.178c2.804-2.802 2.804-7.346 0-10.148-2.802-2.803-7.347-2.803-10.149 0l-12.788 12.787c-0.009 0.009-0.019 0.018-0.027 0.026-3.909 3.909-3.909 10.245 0 14.153 3.908 3.908 10.246 3.908 14.156 0 0.009-0.009 0.016-0.018 0.026-0.027l0.001 0.001 8.729-8.728-2.031-2.029-8.729 8.727c-0.009 0.008-0.018 0.018-0.026 0.026-2.784 2.783-7.312 2.783-10.096 0-2.783-2.783-2.783-7.31 0-10.093 0.010-0.009 0.019-0.018 0.028-0.026l-0.001-0.002 12.79-12.786c1.678-1.679 4.411-1.679 6.090 0s1.678 4.411 0 6.089l-12.18 12.178c-0.56 0.56-1.47 0.56-2.030 0-0.559-0.559-0.559-1.47 0-2.029l10.15-10.149z"></path>
        </symbol>
        <symbol id="icon-pencil" viewBox="0 0 32 32">
            <path d="M27 0c2.761 0 5 2.239 5 5 0 1.126-0.372 2.164-1 3l-2 2-7-7 2-2c0.836-0.628 1.874-1 3-1zM2 23l-2 9 9-2 18.5-18.5-7-7-18.5 18.5zM22.362 11.362l-14 14-1.724-1.724 14-14 1.724 1.724z"></path>
        </symbol>
        <symbol id="icon-notification" viewBox="0 0 32 32">
            <path d="M16 3c-3.472 0-6.737 1.352-9.192 3.808s-3.808 5.72-3.808 9.192c0 3.472 1.352 6.737 3.808 9.192s5.72 3.808 9.192 3.808c3.472 0 6.737-1.352 9.192-3.808s3.808-5.72 3.808-9.192c0-3.472-1.352-6.737-3.808-9.192s-5.72-3.808-9.192-3.808zM16 0v0c8.837 0 16 7.163 16 16s-7.163 16-16 16c-8.837 0-16-7.163-16-16s7.163-16 16-16zM14 22h4v4h-4zM14 6h4v12h-4z"></path>
        </symbol>
    </defs>
</svg>