<svg aria-hidden="true" style="position: absolute; width: 0; height: 0; overflow: hidden;" version="1.1" xmlns="http://www.w3.org/2000/svg" xmlns:xlink="http://www.w3.org/1999/xlink">
    <defs>
<svg version="1.1" id="wheat" xmlns="http://www.w3.org/2000/svg" xmlns:xlink="http://www.w3.org/1999/xlink" x="0px" y="0px"
	 viewBox="0 0 17.37 17.37" style="enable-background:new 0 0 17.37 17.37;" xml:space="preserve">
<g>
	<g>
		<path style="" d="M12.957,2.071c0.155,0.039,0.295,0.051,0.426,0.046c0.206-0.012,0.389-0.066,0.551-0.155
			c0.164-0.088,0.307-0.216,0.425-0.383c0.116-0.173,0.215-0.377,0.254-0.69c-0.285-0.131-0.512-0.156-0.72-0.148
			c-0.206,0.012-0.388,0.065-0.55,0.156s-0.304,0.217-0.425,0.386c-0.086,0.129-0.164,0.275-0.213,0.471
			C4.923,7.391,2.74,17.186,2.719,17.285l0.397,0.085C3.137,17.271,5.289,7.615,12.957,2.071z"/>
		<path style="" d="M11.218,1.739c0.144,0.152,0.321,0.294,0.615,0.402c0.19-0.249,0.265-0.464,0.304-0.669
			c0.033-0.203,0.021-0.393-0.029-0.572c-0.052-0.177-0.144-0.346-0.28-0.499C11.685,0.249,11.507,0.107,11.211,0
			c-0.191,0.25-0.266,0.465-0.305,0.669c-0.033,0.203-0.022,0.392,0.031,0.571C10.988,1.418,11.08,1.585,11.218,1.739z"/>
		<path style="" d="M14.182,2.791c-0.168-0.12-0.344-0.192-0.527-0.222c-0.183-0.031-0.373-0.021-0.571,0.037
			c-0.198,0.062-0.403,0.16-0.629,0.378c0.142,0.28,0.302,0.44,0.47,0.564c0.168,0.12,0.343,0.191,0.527,0.223
			c0.182,0.033,0.372,0.021,0.569-0.034c0.199-0.062,0.405-0.161,0.63-0.38C14.511,3.076,14.349,2.915,14.182,2.791z"/>
		<path style="" d="M12.629,4.122c-0.167-0.119-0.344-0.192-0.526-0.221C11.919,3.87,11.73,3.88,11.53,3.938
			c-0.198,0.063-0.401,0.161-0.628,0.378c0.141,0.28,0.302,0.44,0.47,0.565C11.54,5,11.715,5.072,11.899,5.104
			c0.183,0.033,0.373,0.022,0.57-0.035c0.199-0.062,0.405-0.16,0.63-0.379C12.959,4.408,12.797,4.246,12.629,4.122z"/>
		<path style="" d="M11.108,5.576c-0.168-0.118-0.344-0.191-0.526-0.222c-0.185-0.029-0.374-0.02-0.572,0.038
			C9.811,5.455,9.607,5.553,9.381,5.77C9.522,6.05,9.682,6.21,9.85,6.334c0.168,0.12,0.344,0.191,0.527,0.223
			c0.183,0.032,0.373,0.021,0.57-0.035c0.199-0.062,0.404-0.16,0.63-0.38C11.437,5.861,11.275,5.7,11.108,5.576z"/>
		<path style="" d="M9.868,7.439C9.701,7.32,9.525,7.248,9.341,7.218C9.158,7.186,8.968,7.197,8.77,7.254
			C8.572,7.317,8.367,7.415,8.141,7.632c0.14,0.279,0.302,0.439,0.469,0.564C8.779,8.315,8.954,8.387,9.138,8.42
			c0.183,0.032,0.373,0.022,0.569-0.036c0.2-0.062,0.405-0.159,0.632-0.38C10.197,7.724,10.036,7.563,9.868,7.439z"/>
		<path style="" d="M8.559,9.408C8.392,9.29,8.216,9.216,8.032,9.186C7.849,9.156,7.659,9.165,7.46,9.222
			C7.262,9.285,7.057,9.383,6.832,9.6c0.141,0.28,0.302,0.44,0.469,0.565c0.168,0.119,0.344,0.191,0.527,0.224
			c0.183,0.031,0.374,0.021,0.57-0.036c0.199-0.062,0.405-0.159,0.63-0.378C8.889,9.693,8.727,9.532,8.559,9.408z"/>
		<path style="" d="M7.202,11.741c-0.167-0.12-0.345-0.191-0.527-0.222c-0.184-0.03-0.374-0.021-0.572,0.037
			c-0.199,0.063-0.404,0.16-0.629,0.378c0.141,0.28,0.302,0.44,0.469,0.563c0.169,0.12,0.344,0.192,0.527,0.225
			c0.184,0.031,0.373,0.021,0.571-0.035c0.2-0.063,0.404-0.16,0.629-0.381C7.531,12.026,7.37,11.864,7.202,11.741z"/>
		<path style="" d="M7.873,4.685c0.154,0.14,0.343,0.267,0.646,0.352c0.172-0.265,0.229-0.484,0.252-0.691
			C8.789,4.141,8.762,3.952,8.694,3.78c-0.066-0.174-0.17-0.333-0.32-0.475C8.22,3.164,8.031,3.037,7.729,2.952
			c-0.17,0.264-0.227,0.483-0.25,0.69C7.462,3.848,7.49,4.035,7.555,4.21C7.619,4.384,7.724,4.543,7.873,4.685z"/>
		<path style="" d="M6.363,6.68c0.154,0.14,0.343,0.268,0.646,0.351c0.172-0.263,0.23-0.484,0.251-0.69
			c0.019-0.205-0.008-0.394-0.075-0.567C7.12,5.6,7.014,5.441,6.865,5.301C6.711,5.16,6.522,5.032,6.221,4.948
			c-0.172,0.264-0.229,0.484-0.25,0.69C5.953,5.844,5.979,6.033,6.045,6.206C6.109,6.379,6.214,6.539,6.363,6.68z"/>
		<path style="" d="M4.985,8.882c0.168,0.125,0.367,0.232,0.679,0.284c0.144-0.279,0.178-0.504,0.179-0.713
			C5.84,8.248,5.794,8.062,5.71,7.897C5.627,7.731,5.505,7.584,5.342,7.458C5.175,7.333,4.974,7.227,4.666,7.174
			C4.522,7.452,4.489,7.677,4.488,7.886c0.002,0.205,0.048,0.39,0.131,0.557C4.702,8.609,4.822,8.757,4.985,8.882z"/>
		<path style="" d="M3.643,11.286c0.168,0.124,0.368,0.232,0.679,0.284c0.144-0.28,0.179-0.504,0.179-0.713
			c-0.002-0.205-0.048-0.391-0.132-0.557c-0.084-0.165-0.204-0.313-0.367-0.438C3.835,9.738,3.634,9.631,3.325,9.577
			c-0.143,0.279-0.177,0.506-0.178,0.712c0.003,0.207,0.049,0.392,0.131,0.558C3.359,11.014,3.48,11.161,3.643,11.286z"/>
		<path style="" d="M9.527,2.936c0.134,0.161,0.303,0.313,0.592,0.437c0.206-0.237,0.294-0.447,0.345-0.649
			c0.046-0.201,0.045-0.391,0.002-0.572c-0.041-0.181-0.122-0.353-0.251-0.515c-0.134-0.16-0.302-0.312-0.59-0.437
			C9.42,1.436,9.334,1.647,9.283,1.85c-0.046,0.2-0.046,0.39-0.005,0.572C9.316,2.604,9.4,2.775,9.527,2.936z"/>
	</g>
</g>
</svg>
	<symbol id="icon-arrow-up" viewBox="0 0 24 24">
		<path d="M5.707 12.707l5.293-5.293v11.586c0 0.552 0.448 1 1 1s1-0.448 1-1v-11.586l5.293 5.293c0.391 0.391 1.024 0.391 1.414 0s0.391-1.024 0-1.414l-7-7c-0.092-0.092-0.202-0.166-0.324-0.217s-0.253-0.076-0.383-0.076c-0.256 0-0.512 0.098-0.707 0.293l-7 7c-0.391 0.391-0.391 1.024 0 1.414s1.024 0.391 1.414 0z"></path>
	</symbol>
	<symbol id="icon-twitter" viewBox="0 0 20 20">
		<path d="M17.316 6.246c0.008 0.162 0.011 0.326 0.011 0.488 0 4.99-3.797 10.742-10.74 10.742-2.133 0-4.116-0.625-5.787-1.697 0.296 0.035 0.596 0.053 0.9 0.053 1.77 0 3.397-0.604 4.688-1.615-1.651-0.031-3.046-1.121-3.526-2.621 0.23 0.043 0.467 0.066 0.71 0.066 0.345 0 0.679-0.045 0.995-0.131-1.727-0.348-3.028-1.873-3.028-3.703 0-0.016 0-0.031 0-0.047 0.509 0.283 1.092 0.453 1.71 0.473-1.013-0.678-1.68-1.832-1.68-3.143 0-0.691 0.186-1.34 0.512-1.898 1.861 2.285 4.644 3.787 7.781 3.945-0.064-0.277-0.097-0.564-0.097-0.861 0-2.084 1.689-3.773 3.774-3.773 1.086 0 2.067 0.457 2.756 1.191 0.859-0.17 1.667-0.484 2.397-0.916-0.282 0.881-0.881 1.621-1.66 2.088 0.764-0.092 1.49-0.293 2.168-0.594-0.506 0.758-1.146 1.422-1.884 1.953z"></path>
	</symbol>
	<svg  viewBox="0 0 512 512" id="icon-twitter-square" xmlns="http://www.w3.org/2000/svg"><path d="m475.074219 0h-438.148438c-20.394531 0-36.925781 16.53125-36.925781 36.925781v438.148438c0 20.394531 16.53125 36.925781 36.925781 36.925781h438.148438c20.394531 0 36.925781-16.53125 36.925781-36.925781v-438.148438c0-20.394531-16.53125-36.925781-36.925781-36.925781zm-102.1875 199.601562c.113281 2.519532.167969 5.050782.167969 7.59375 0 77.644532-59.101563 167.179688-167.183594 167.183594h.003906-.003906c-33.183594 0-64.0625-9.726562-90.066406-26.394531 4.597656.542969 9.277343.8125 14.015624.8125 27.53125 0 52.867188-9.390625 72.980469-25.152344-25.722656-.476562-47.410156-17.464843-54.894531-40.8125 3.582031.6875 7.265625 1.0625 11.042969 1.0625 5.363281 0 10.558593-.722656 15.496093-2.070312-26.886718-5.382813-47.140624-29.144531-47.140624-57.597657 0-.265624 0-.503906.007812-.75 7.917969 4.402344 16.972656 7.050782 26.613281 7.347657-15.777343-10.527344-26.148437-28.523438-26.148437-48.910157 0-10.765624 2.910156-20.851562 7.957031-29.535156 28.976563 35.554688 72.28125 58.9375 121.117187 61.394532-1.007812-4.304688-1.527343-8.789063-1.527343-13.398438 0-32.4375 26.316406-58.753906 58.765625-58.753906 16.902344 0 32.167968 7.144531 42.890625 18.566406 13.386719-2.640625 25.957031-7.53125 37.3125-14.261719-4.394531 13.714844-13.707031 25.222657-25.839844 32.5 11.886719-1.421875 23.214844-4.574219 33.742187-9.253906-7.863281 11.785156-17.835937 22.136719-29.308593 30.429687zm0 0"/></svg>
	<svg  viewBox="0 0 512 512" id="icon-facebook-square" xmlns="http://www.w3.org/2000/svg"><path d="m332 512v-227c0-8.289062 6.710938-15 15-15h48.28125l7.5-30h-55.78125c-8.289062 0-15-6.710938-15-15v-48.003906c0-25.179688 15.820312-42.289063 43.402344-46.945313 13.886718-2.316406 26.191406-.941406 36.433594 1.140625l5.445312-36.648437c-23.289062-5.246094-45.363281-6.257813-67.117188-3.0625-38.652343 5.664062-62.527343 22.046875-63.164062 58.578125v74.941406c0 8.289062-6.710938 15-15 15h-30v30h30c8.289062 0 15 6.710938 15 15v227zm0 0"/><path d="m437 0h-362c-41.351562 0-75 33.648438-75 75v362c0 41.351562 33.648438 75 75 75h182v-212h-30c-8.289062 0-15-6.710938-15-15v-60c0-8.289062 6.710938-15 15-15h30v-53.277344c0-57.089844 31.398438-86.503906 88.828125-94.921875 29.515625-4.351562 60.644531-1.902343 92.386719 7.121094 7.253906 2.0625 11.835937 9.183594 10.738281 16.625l-9.84375 66.210937c-.617187 4.144532-2.960937 7.851563-6.429687 10.210938-5.90625 3.996094-10.367188 2.539062-16.613282 1.011719-10.457031-2.625-22.339844-5.625-35.652344-3.339844-16.992187 2.855469-18.414062 10.457031-18.414062 17.355469v33.003906h60c4.613281 0 8.980469 2.125 11.820312 5.769531 2.84375 3.632813 3.855469 8.378907 2.726563 12.863281l-15 60c-1.671875 6.679688-7.660156 11.367188-14.546875 11.367188h-45v212h75c41.351562 0 75-33.648438 75-75v-362c0-41.351562-33.648438-75-75-75zm0 0"/></svg>
	<symbol id="icon-linkedin" viewBox="0 0 32 32">
		<path d="M29 0h-26c-1.65 0-3 1.35-3 3v26c0 1.65 1.35 3 3 3h26c1.65 0 3-1.35 3-3v-26c0-1.65-1.35-3-3-3zM12 26h-4v-14h4v14zM10 10c-1.106 0-2-0.894-2-2s0.894-2 2-2c1.106 0 2 0.894 2 2s-0.894 2-2 2zM26 26h-4v-8c0-1.106-0.894-2-2-2s-2 0.894-2 2v8h-4v-14h4v2.481c0.825-1.131 2.087-2.481 3.5-2.481 2.488 0 4.5 2.238 4.5 5v9z"></path>
	</symbol>
	<symbol id="icon-pinterest" viewBox="0 0 32 32">
		<path d="M16 2.138c-7.656 0-13.863 6.206-13.863 13.863 0 5.875 3.656 10.887 8.813 12.906-0.119-1.094-0.231-2.781 0.050-3.975 0.25-1.081 1.625-6.887 1.625-6.887s-0.412-0.831-0.412-2.056c0-1.925 1.119-3.369 2.506-3.369 1.181 0 1.756 0.887 1.756 1.95 0 1.188-0.756 2.969-1.15 4.613-0.331 1.381 0.688 2.506 2.050 2.506 2.462 0 4.356-2.6 4.356-6.35 0-3.319-2.387-5.638-5.787-5.638-3.944 0-6.256 2.956-6.256 6.019 0 1.194 0.456 2.469 1.031 3.163 0.113 0.137 0.131 0.256 0.094 0.4-0.106 0.438-0.338 1.381-0.387 1.575-0.063 0.256-0.2 0.306-0.463 0.188-1.731-0.806-2.813-3.337-2.813-5.369 0-4.375 3.175-8.387 9.156-8.387 4.806 0 8.544 3.425 8.544 8.006 0 4.775-3.012 8.625-7.194 8.625-1.406 0-2.725-0.731-3.175-1.594 0 0-0.694 2.644-0.863 3.294-0.313 1.206-1.156 2.712-1.725 3.631 1.3 0.4 2.675 0.619 4.106 0.619 7.656 0 13.863-6.206 13.863-13.863 0-7.662-6.206-13.869-13.863-13.869z"></path>
	</symbol>
	<symbol id="icon-instagram" viewBox="0 0 32 32">
		<path d="M16 2.881c4.275 0 4.781 0.019 6.462 0.094 1.563 0.069 2.406 0.331 2.969 0.55 0.744 0.288 1.281 0.638 1.837 1.194 0.563 0.563 0.906 1.094 1.2 1.838 0.219 0.563 0.481 1.412 0.55 2.969 0.075 1.688 0.094 2.194 0.094 6.463s-0.019 4.781-0.094 6.463c-0.069 1.563-0.331 2.406-0.55 2.969-0.288 0.744-0.637 1.281-1.194 1.837-0.563 0.563-1.094 0.906-1.837 1.2-0.563 0.219-1.413 0.481-2.969 0.55-1.688 0.075-2.194 0.094-6.463 0.094s-4.781-0.019-6.463-0.094c-1.563-0.069-2.406-0.331-2.969-0.55-0.744-0.288-1.281-0.637-1.838-1.194-0.563-0.563-0.906-1.094-1.2-1.837-0.219-0.563-0.481-1.413-0.55-2.969-0.075-1.688-0.094-2.194-0.094-6.463s0.019-4.781 0.094-6.463c0.069-1.563 0.331-2.406 0.55-2.969 0.288-0.744 0.638-1.281 1.194-1.838 0.563-0.563 1.094-0.906 1.838-1.2 0.563-0.219 1.412-0.481 2.969-0.55 1.681-0.075 2.188-0.094 6.463-0.094zM16 0c-4.344 0-4.887 0.019-6.594 0.094-1.7 0.075-2.869 0.35-3.881 0.744-1.056 0.412-1.95 0.956-2.837 1.85-0.894 0.888-1.438 1.781-1.85 2.831-0.394 1.019-0.669 2.181-0.744 3.881-0.075 1.713-0.094 2.256-0.094 6.6s0.019 4.887 0.094 6.594c0.075 1.7 0.35 2.869 0.744 3.881 0.413 1.056 0.956 1.95 1.85 2.837 0.887 0.887 1.781 1.438 2.831 1.844 1.019 0.394 2.181 0.669 3.881 0.744 1.706 0.075 2.25 0.094 6.594 0.094s4.888-0.019 6.594-0.094c1.7-0.075 2.869-0.35 3.881-0.744 1.050-0.406 1.944-0.956 2.831-1.844s1.438-1.781 1.844-2.831c0.394-1.019 0.669-2.181 0.744-3.881 0.075-1.706 0.094-2.25 0.094-6.594s-0.019-4.887-0.094-6.594c-0.075-1.7-0.35-2.869-0.744-3.881-0.394-1.063-0.938-1.956-1.831-2.844-0.887-0.887-1.781-1.438-2.831-1.844-1.019-0.394-2.181-0.669-3.881-0.744-1.712-0.081-2.256-0.1-6.6-0.1v0z"></path>
		<path d="M16 7.781c-4.537 0-8.219 3.681-8.219 8.219s3.681 8.219 8.219 8.219 8.219-3.681 8.219-8.219c0-4.537-3.681-8.219-8.219-8.219zM16 21.331c-2.944 0-5.331-2.387-5.331-5.331s2.387-5.331 5.331-5.331c2.944 0 5.331 2.387 5.331 5.331s-2.387 5.331-5.331 5.331z"></path>
		<path d="M26.462 7.456c0 1.060-0.859 1.919-1.919 1.919s-1.919-0.859-1.919-1.919c0-1.060 0.859-1.919 1.919-1.919s1.919 0.859 1.919 1.919z"></path>
	</symbol>
	<svg viewBox="0 0 512 512" id="icon-instagram-square"  xmlns="http://www.w3.org/2000/svg"><path class="fgf" d="m376 91h-240c-24.8125 0-45 20.1875-45 45v240c0 24.8125 20.1875 45 45 45h240c24.8125 0 45-20.1875 45-45v-240c0-24.8125-20.1875-45-45-45zm-120 270c-57.890625 0-105-47.109375-105-105s47.109375-105 105-105 105 47.109375 105 105-47.109375 105-105 105zm105-180c-16.539062 0-30-13.460938-30-30s13.460938-30 30-30 30 13.460938 30 30-13.460938 30-30 30zm0 0"/><path d="m256 181c-41.351562 0-75 33.648438-75 75s33.648438 75 75 75 75-33.648438 75-75-33.648438-75-75-75zm0 0"/><path d="m436 0h-360c-41.351562 0-76 34.648438-76 76v360c0 41.351562 34.648438 76 76 76h360c41.351562 0 76-34.648438 76-76v-360c0-41.351562-34.648438-76-76-76zm15 376c0 41.351562-33.648438 75-75 75h-240c-41.351562 0-75-33.648438-75-75v-240c0-41.351562 33.648438-75 75-75h240c41.351562 0 75 33.648438 75 75zm0 0"/></svg>
	<symbol id="icon-quotes-left" viewBox="0 0 32 32">
        <path d="M7.031 14c3.866 0 7 3.134 7 7s-3.134 7-7 7-7-3.134-7-7l-0.031-1c0-7.732 6.268-14 14-14v4c-2.671 0-5.182 1.040-7.071 2.929-0.364 0.364-0.695 0.751-0.995 1.157 0.357-0.056 0.724-0.086 1.097-0.086zM25.031 14c3.866 0 7 3.134 7 7s-3.134 7-7 7-7-3.134-7-7l-0.031-1c0-7.732 6.268-14 14-14v4c-2.671 0-5.182 1.040-7.071 2.929-0.364 0.364-0.695 0.751-0.995 1.157 0.358-0.056 0.724-0.086 1.097-0.086z"></path>
    </symbol>
	<symbol id="icon-star-full" viewBox="0 0 32 32">
        <path d="M32 12.408l-11.056-1.607-4.944-10.018-4.944 10.018-11.056 1.607 8 7.798-1.889 11.011 9.889-5.199 9.889 5.199-1.889-11.011 8-7.798z"></path>
    </symbol>
	<symbol id="icon-star-half" viewBox="0 0 32 32">
		<path d="M32 12.408l-11.056-1.607-4.944-10.018-4.944 10.018-11.056 1.607 8 7.798-1.889 11.011 9.889-5.199 9.889 5.199-1.889-11.011 8-7.798zM16 23.547l-0.029 0.015 0.029-17.837 3.492 7.075 7.807 1.134-5.65 5.507 1.334 7.776-6.983-3.671z"></path>
	</symbol>
	<symbol id="icon-star-empty" viewBox="0 0 32 32">
		<path d="M32 12.408l-11.056-1.607-4.944-10.018-4.944 10.018-11.056 1.607 8 7.798-1.889 11.011 9.889-5.199 9.889 5.199-1.889-11.011 8-7.798zM16 23.547l-6.983 3.671 1.334-7.776-5.65-5.507 7.808-1.134 3.492-7.075 3.492 7.075 7.807 1.134-5.65 5.507 1.334 7.776-6.983-3.671z"></path>
	</symbol>
	<svg id="heat-menu" viewBox="0 -46 512 512"  xmlns="http://www.w3.org/2000/svg"><path d="m409 40c-21.878906 0-44.335938 7.164062-61.65625 19.238281-15.878906-35.5-51.570312-59.238281-91.34375-59.238281s-75.464844 23.738281-91.34375 59.238281c-17.320312-12.074219-39.777344-19.238281-61.65625-19.238281-38.726562 0-75.046875 22.210938-92.527344 56.578125-2.503906 4.925781-.542968 10.941406 4.378906 13.445313 4.921876 2.503906 10.941407.542968 13.445313-4.378907 14.105469-27.726562 43.425781-45.644531 74.703125-45.644531 22.117188 0 44.804688 8.84375 59.210938 23.082031 2.523437 2.492188 6.183593 3.464844 9.605468 2.550781 3.429688-.914062 6.117188-3.578124 7.0625-6.996093 9.546875-34.527344 41.261719-58.636719 77.121094-58.636719s67.574219 24.109375 77.121094 58.636719c.945312 3.417969 3.632812 6.082031 7.0625 6.996093 3.425781.914063 7.082031-.058593 9.605468-2.550781 14.40625-14.238281 37.09375-23.082031 59.210938-23.082031 44.988281 0 83 36.636719 83 80s-38.011719 80-83 80c-2.941406 0-5.941406-.164062-8.910156-.488281-2.832032-.316407-5.648438.597656-7.765625 2.492187-2.113281 1.898438-3.324219 4.605469-3.324219 7.445313v90.550781h-53v-50c0-5.523438-4.476562-10-10-10s-10 4.476562-10 10v50h-50v-50c0-5.523438-4.476562-10-10-10s-10 4.476562-10 10v50h-50v-50c0-5.523438-4.476562-10-10-10s-10 4.476562-10 10v50h-53v-90.550781c0-2.839844-1.210938-5.546875-3.324219-7.445313-2.117187-1.894531-4.941406-2.804687-7.765625-2.492187-34.527344 3.777343-68.183594-14.820313-83.613281-45.15625-2.5-4.925781-8.523437-6.886719-13.445313-4.378907-4.921874 2.503907-6.882812 8.519532-4.378906 13.445313 17.480469 34.367187 53.800782 56.578125 92.527344 56.578125v170c0 5.523438 4.476562 10 10 10h286c5.523438 0 10-4.476562 10-10v-170c54.226562 0 103-43.800781 103-100 0-56.203125-48.777344-100-103-100zm-286 360v-60h266v60zm0 0"/><path d="m10 150c5.519531 0 10-4.480469 10-10s-4.480469-10-10-10-10 4.480469-10 10 4.480469 10 10 10zm0 0"/></svg>
	    <symbol id="icon-location" viewBox="0 0 32 32">
        <path d="M16 0c-5.523 0-10 4.477-10 10 0 10 10 22 10 22s10-12 10-22c0-5.523-4.477-10-10-10zM16 16c-3.314 0-6-2.686-6-6s2.686-6 6-6 6 2.686 6 6-2.686 6-6 6z"></path>
    </symbol>
	<symbol id="icon-location" viewBox="0 0 32 32">
        <path d="M16 0c-5.523 0-10 4.477-10 10 0 10 10 22 10 22s10-12 10-22c0-5.523-4.477-10-10-10zM16 16c-3.314 0-6-2.686-6-6s2.686-6 6-6 6 2.686 6 6-2.686 6-6 6z"></path>
    </symbol>
    <symbol id="icon-envelope" viewBox="0 0 20 20">
        <path d="M18 2c1.105 0 2 0.895 2 2v0 12c0 1.105-0.895 2-2 2v0h-16c-1.105 0-2-0.895-2-2v0-12c0-1.1 0.9-2 2-2h16zM13.63 11.1l6.37 4.9v-2l-5.12-3.9 5.12-4.1v-2l-10 8-10-8v2l5.12 4.1-5.12 3.9v2l6.37-4.9 3.63 2.9 3.63-2.9z"></path>
    </symbol>
    <symbol id="icon-mobile" viewBox="0 0 32 32">
        <path d="M23 0h-14c-1.65 0-3 1.35-3 3v26c0 1.65 1.35 3 3 3h14c1.65 0 3-1.35 3-3v-26c0-1.65-1.35-3-3-3zM12 1.5h8v1h-8v-1zM16 30c-1.105 0-2-0.895-2-2s0.895-2 2-2 2 0.895 2 2-0.895 2-2 2zM24 24h-16v-20h16v20z"></path>
    </symbol>
	<symbol id="icon-x" viewBox="0 0 24 24">
		<path d="M5.293 6.707l5.293 5.293-5.293 5.293c-0.391 0.391-0.391 1.024 0 1.414s1.024 0.391 1.414 0l5.293-5.293 5.293 5.293c0.391 0.391 1.024 0.391 1.414 0s0.391-1.024 0-1.414l-5.293-5.293 5.293-5.293c0.391-0.391 0.391-1.024 0-1.414s-1.024-0.391-1.414 0l-5.293 5.293-5.293-5.293c-0.391-0.391-1.024-0.391-1.414 0s-0.391 1.024 0 1.414z"></path>
	</symbol>
	<symbol id="icon-search" viewBox="0 0 32 32">
		<path d="M19.427 20.427c-1.39 0.99-3.090 1.573-4.927 1.573-4.694 0-8.5-3.806-8.5-8.5s3.806-8.5 8.5-8.5c4.694 0 8.5 3.806 8.5 8.5 0 1.837-0.583 3.537-1.573 4.927l5.585 5.585c0.55 0.55 0.546 1.431-0 1.976l-0.023 0.023c-0.544 0.544-1.431 0.546-1.976 0l-5.585-5.585zM14.5 20c3.59 0 6.5-2.91 6.5-6.5s-2.91-6.5-6.5-6.5c-3.59 0-6.5 2.91-6.5 6.5s2.91 6.5 6.5 6.5v0z"></path>
	</symbol>
	<svg id="icon-mixture" data-name="Capa 1" xmlns="http://www.w3.org/2000/svg" viewBox="0 0 312.68 304.97"><title>Iogo_hazpanencasa</title><path d="M269.73,110H222.81l54.52-54.52a15.5,15.5,0,1,0-21.92-21.93L179,110H43a12.15,12.15,0,0,0,0,24.3h4v12.15A85.11,85.11,0,0,0,98,224.3a20.22,20.22,0,0,0-14.53,19.33v4.05H229.23v-4.05A20.22,20.22,0,0,0,214.7,224.3a85.11,85.11,0,0,0,51-77.86V134.29h4.05a12.15,12.15,0,0,0,0-24.3Zm-8.6-70.72A7.4,7.4,0,1,1,271.6,49.74L211.36,110h-21Zm-106.47,95-4.6,4.6a11.52,11.52,0,0,1-8.47,3.56c-9.31-.42-19.16,3.06-27.43,9.42a85.06,85.06,0,0,0-14.52-1.38c-20.52,0-35.4,4.1-43,11.51a76.75,76.75,0,0,1-1.58-15.56V134.29Zm5.68,35.37c.41,8.94-3.8,18.73-11.28,26.2-12.51,12.52-30.34,15.07-39.73,5.68-4.41-4.41-6.33-10.87-5.42-18.18,1-7.7,4.91-15.35,11.1-21.55,7.48-7.47,17.3-11.72,26.2-11.27a19.56,19.56,0,0,0,14.57-5.92l10.33-10.33h20.95l-20.8,20.8A19.52,19.52,0,0,0,160.34,169.66ZM95.88,182.35a34.94,34.94,0,0,0,0,8.55c-13.9-.39-24.82-2.91-31.12-7.24a77.26,77.26,0,0,1-5.16-11.55c2.66-8.25,18.09-13.52,40.05-13.52,2.27,0,4.61.13,7,.36A44.88,44.88,0,0,0,95.88,182.35ZM209,231.48a12.18,12.18,0,0,1,11.46,8.1H92.24a12.17,12.17,0,0,1,11.45-8.1Zm-28.34-8.1H132a76.78,76.78,0,0,1-58.71-27.32,100.29,100.29,0,0,0,24.7,3,26.37,26.37,0,0,0,5.58,8.22c5.36,5.36,12.62,8,20.41,8,10.43,0,21.8-4.68,30.78-13.65a47.46,47.46,0,0,0,12.3-21c16.4-7.15,31.9-13.87,45.93-13.87,14.88,0,28.64,1.8,40.13,5.2A77,77,0,0,1,180.64,223.38Zm76.94-76.94a77,77,0,0,1-2.13,17.68c-12.24-3.62-26.79-5.53-42.42-5.53-14.32,0-29.1,5.87-44.63,12.58,0-.63.06-1.26,0-1.88a11.44,11.44,0,0,1,3.55-8.47l26.53-26.53h59.07Zm12.15-20.25H43a4,4,0,0,1,0-8.1H269.73a4,4,0,0,1,0,8.1Z"/><path d="M140,158.59c-6.47,0-13.69,3.34-19.3,8.95-4.85,4.86-8.06,11-8.79,16.82-.59,4.79.51,8.86,3.11,11.45a12.32,12.32,0,0,0,9,3.27c6.48,0,13.69-3.34,19.3-9,4.85-4.86,8.06-11,8.79-16.82.59-4.79-.51-8.86-3.11-11.45A12.32,12.32,0,0,0,140,158.59Zm4.06,13.71c-.51,4.09-2.88,8.49-6.49,12.1-4.06,4.06-9.26,6.58-13.57,6.58a4.77,4.77,0,0,1-3.25-.89c-.76-.76-1.07-2.57-.81-4.72.51-4.08,2.88-8.49,6.49-12.1,4.06-4.06,9.26-6.58,13.57-6.58a4.77,4.77,0,0,1,3.25.89C144.05,168.34,144.36,170.15,144.1,172.3Z"/></svg>
	<symbol id="icon-menu" viewBox="0 0 20 20">
		<path d="M0 3h20v2h-20v-2zM0 9h20v2h-20v-2zM0 15h20v2h-20v-2z"></path>
	</symbol>
	<svg id="icon-step1" data-name="Capa 1" xmlns="http://www.w3.org/2000/svg" viewBox="0 0 312.68 304.97"><defs><style>.cls-1{fill:#fff;}</style></defs><title>Iogo_hazpanencasa</title><path class="cls-1" d="M284.87,164.4a101.74,101.74,0,0,0-79.11-89.2V62.39a17.13,17.13,0,0,0-4.13-33.76H165.34a17.13,17.13,0,0,0-4.14,33.76V75.23a101.25,101.25,0,0,0-49.64,27.31,102.42,102.42,0,0,0-8.55,9.71l-.39,0H66.71a5,5,0,1,0,0,10.08H96.15a101.21,101.21,0,0,0-9,19.37H32.35a5,5,0,0,0,0,10.08h52a102.36,102.36,0,0,0-2.51,19.38H59.57a5,5,0,1,0,0,10.08H82a102.14,102.14,0,0,0,3.14,19.37H52.51a5,5,0,0,0,0,10.08H88.38a101.76,101.76,0,0,0,85.11,65.18q5,.5,10,.49a102.08,102.08,0,0,0,55.57-16.42,5,5,0,0,0-5.51-8.45,91.72,91.72,0,1,1,27-27.05,5,5,0,0,0,8.46,5.49A102.2,102.2,0,0,0,284.87,164.4ZM158.28,45.76a7.06,7.06,0,0,1,7.06-7h36.29a7.06,7.06,0,0,1,0,14.11H165.34A7.07,7.07,0,0,1,158.28,45.76Zm13,27.74V62.9h24.4V73.48A103.19,103.19,0,0,0,171.28,73.5Z"/><path class="cls-1" d="M252,237.92a5.05,5.05,0,1,0,3.56,1.48A5,5,0,0,0,252,237.92Z"/><path class="cls-1" d="M183.56,96.34a78.19,78.19,0,1,0,78.19,78.19A78.28,78.28,0,0,0,183.56,96.34Zm0,146.3a68.11,68.11,0,1,1,68.11-68.11A68.18,68.18,0,0,1,183.56,242.64Z"/><path class="cls-1" d="M237.45,169.55h-4.67a5,5,0,0,0,0,10.08h4.67a5,5,0,1,0,0-10.08Z"/><path class="cls-1" d="M134.34,169.43h-4.67a5,5,0,0,0,0,10.08h4.67a5,5,0,0,0,0-10.08Z"/><path class="cls-1" d="M183.62,130.35a5,5,0,0,0,5-5v-4.67a5,5,0,1,0-10.08,0v4.67A5,5,0,0,0,183.62,130.35Z"/><path class="cls-1" d="M183.5,218.71a5,5,0,0,0-5,5v4.67a5,5,0,0,0,10.08,0v-4.67A5,5,0,0,0,183.5,218.71Z"/><path class="cls-1" d="M32.35,200.59a5.05,5.05,0,1,0,3.56,1.48A5.08,5.08,0,0,0,32.35,200.59Z"/><path class="cls-1" d="M171.35,159.86V146.52h22.33v53H178.82V159.86Z"/></svg>
	<svg id="icon-step2" data-name="Capa 1" xmlns="http://www.w3.org/2000/svg" viewBox="0 0 312.68 304.97"><defs><style>.cls-1{fill:#fff;}</style></defs><title>Iogo_hazpanencasa</title><path class="cls-1" d="M286.24,164.53a102.81,102.81,0,0,0-80-90.16V61.43a17.32,17.32,0,0,0-4.18-34.13H165.43a17.32,17.32,0,0,0-4.18,34.13v13A102.27,102.27,0,0,0,111.09,102a103.37,103.37,0,0,0-8.65,9.82l-.39,0H65.75a5.1,5.1,0,0,0,0,10.19H95.5a102.16,102.16,0,0,0-9,19.58H31a5.1,5.1,0,0,0,0,10.19H83.59a103.55,103.55,0,0,0-2.53,19.58H58.53a5.1,5.1,0,0,0,0,10.19H81.22a103.57,103.57,0,0,0,3.18,19.58h-33a5.09,5.09,0,0,0,0,10.18H87.65a102.92,102.92,0,0,0,86,65.88c3.36.33,6.73.49,10.09.49a103.18,103.18,0,0,0,56.16-16.59,5.1,5.1,0,0,0-5.56-8.54,92.71,92.71,0,1,1,27.31-27.34,5.09,5.09,0,1,0,8.54,5.55A103.23,103.23,0,0,0,286.24,164.53ZM158.3,44.62a7.14,7.14,0,0,1,7.13-7.13h36.68a7.14,7.14,0,0,1,0,14.27H165.43A7.14,7.14,0,0,1,158.3,44.62Zm13.14,28V61.94H196.1v10.7A103.79,103.79,0,0,0,171.44,72.66Z"/><path class="cls-1" d="M253,238.83a5.09,5.09,0,1,0,3.6,1.49A5.16,5.16,0,0,0,253,238.83Z"/><path class="cls-1" d="M183.85,95.74a79,79,0,1,0,79,79A79.12,79.12,0,0,0,183.85,95.74Zm0,147.86a68.84,68.84,0,1,1,68.83-68.83A68.91,68.91,0,0,1,183.85,243.6Z"/><path class="cls-1" d="M238.31,169.73h-4.72a5.1,5.1,0,0,0,0,10.19h4.72a5.1,5.1,0,1,0,0-10.19Z"/><path class="cls-1" d="M134.1,169.61h-4.72a5.1,5.1,0,0,0,0,10.19h4.72a5.1,5.1,0,1,0,0-10.19Z"/><path class="cls-1" d="M183.91,130.11A5.09,5.09,0,0,0,189,125V120.3a5.09,5.09,0,1,0-10.18,0V125A5.09,5.09,0,0,0,183.91,130.11Z"/><path class="cls-1" d="M183.79,219.42a5.09,5.09,0,0,0-5.1,5.09v4.72a5.1,5.1,0,1,0,10.19,0v-4.72A5.09,5.09,0,0,0,183.79,219.42Z"/><path class="cls-1" d="M31,201.1a5.1,5.1,0,1,0,3.61,1.5A5.13,5.13,0,0,0,31,201.1Z"/><path class="cls-1" d="M178.62,178.91a50.71,50.71,0,0,0,7.62-8.31,14.19,14.19,0,0,0,3.08-8.17,5.74,5.74,0,0,0-1.06-3.66,3.77,3.77,0,0,0-3.12-1.32,3.73,3.73,0,0,0-3.29,1.79,9.19,9.19,0,0,0-1.1,5.24H166.83a21.74,21.74,0,0,1,2.86-10.8,16,16,0,0,1,6.88-6.3,21.67,21.67,0,0,1,9.45-2q9,0,13.41,4.47a15.81,15.81,0,0,1,4.39,11.58,23.12,23.12,0,0,1-5.09,14.28A55.77,55.77,0,0,1,186,187.63h18.32v11.65H167V188.51Q174.08,182.95,178.62,178.91Z"/></svg>
	<svg id="icon-step3" data-name="Capa 1" xmlns="http://www.w3.org/2000/svg" viewBox="0 0 312.68 304.97"><defs><style>.cls-1{fill:#fff;}</style></defs><title>Iogo_hazpanencasa</title><path class="cls-1" d="M284.53,164.37a101.44,101.44,0,0,0-78.9-89V62.63A17.09,17.09,0,0,0,201.5,29H165.31a17.09,17.09,0,0,0-4.12,33.67V75.44a101,101,0,0,0-49.51,27.23,102,102,0,0,0-8.53,9.69l-.38,0H67a5,5,0,1,0,0,10H96.31a100.38,100.38,0,0,0-8.92,19.32H32.68a5,5,0,1,0,0,10.06H84.55a102.54,102.54,0,0,0-2.5,19.32H59.83a5,5,0,1,0,0,10H82.21a102.3,102.3,0,0,0,3.14,19.32H52.79a5,5,0,1,0,0,10.06H88.56a101.53,101.53,0,0,0,84.89,65q5,.5,10,.49a101.76,101.76,0,0,0,55.41-16.38,5,5,0,0,0-5.48-8.42,91.5,91.5,0,1,1,26.94-27,5,5,0,1,0,8.43,5.47A101.88,101.88,0,0,0,284.53,164.37ZM158.27,46.05a7.05,7.05,0,0,1,7-7H201.5a7,7,0,0,1,0,14.08H165.31A7.05,7.05,0,0,1,158.27,46.05Zm13,27.66V63.14h24.34V73.7A102.16,102.16,0,0,0,171.24,73.71Z"/><path class="cls-1" d="M251.73,237.69a5,5,0,1,0,3.56,1.47A5.07,5.07,0,0,0,251.73,237.69Z"/><path class="cls-1" d="M183.48,96.49a78,78,0,1,0,78,78A78.07,78.07,0,0,0,183.48,96.49Zm0,145.91a67.93,67.93,0,1,1,67.93-67.93A68,68,0,0,1,183.48,242.4Z"/><path class="cls-1" d="M237.23,169.51h-4.66a5,5,0,0,0,0,10.05h4.66a5,5,0,1,0,0-10.05Z"/><path class="cls-1" d="M134.4,169.38h-4.66a5,5,0,0,0,0,10.06h4.66a5,5,0,0,0,0-10.06Z"/><path class="cls-1" d="M183.55,130.41a5,5,0,0,0,5-5v-4.65a5,5,0,1,0-10,0v4.65A5,5,0,0,0,183.55,130.41Z"/><path class="cls-1" d="M183.42,218.53a5,5,0,0,0-5,5v4.66a5,5,0,0,0,10,0v-4.66A5,5,0,0,0,183.42,218.53Z"/><path class="cls-1" d="M32.68,200.46a5,5,0,0,0-5,5,5,5,0,0,0,10.06,0,5,5,0,0,0-5-5Z"/><path class="cls-1" d="M170.16,150.57q4.77-4.38,13.3-4.38a21.49,21.49,0,0,1,9.5,1.92,13.45,13.45,0,0,1,8,12.61,12,12,0,0,1-2.38,7.84,11.79,11.79,0,0,1-5.43,3.94v.29q8.75,3.26,8.75,12.44a15.18,15.18,0,0,1-2.1,8,14.15,14.15,0,0,1-6.07,5.42,21.31,21.31,0,0,1-9.47,2q-9,0-14.27-4.37t-5.46-13.41h13.81a6.11,6.11,0,0,0,1.23,4.48,5.13,5.13,0,0,0,4.12,1.59,4.21,4.21,0,0,0,3.28-1.3,4.91,4.91,0,0,0,1.2-3.47,4.7,4.7,0,0,0-1.77-4c-1.19-.86-3.1-1.3-5.75-1.3h-2.53V167.3h2.46a9.6,9.6,0,0,0,4.66-.9c1.28-.65,1.92-2,1.92-3.94a4.65,4.65,0,0,0-1.09-3.36,3.91,3.91,0,0,0-3-1.12,3.4,3.4,0,0,0-3.07,1.48,7.36,7.36,0,0,0-1.13,3.65H165.1Q165.39,154.94,170.16,150.57Z"/></svg>
	<symbol id="icon-arrow-down" viewBox="0 0 24 24">
		<path d="M7.406 8.578l4.594 4.594 4.594-4.594 1.406 1.406-6 6-6-6z"></path>
	</symbol>
</defs>
</svg>